G75*
%MOIN*%
%OFA0B0*%
%FSLAX25Y25*%
%IPPOS*%
%LPD*%
%AMOC8*
5,1,8,0,0,1.08239X$1,22.5*
%
%ADD10C,0.00500*%
%ADD11R,0.42000X0.03000*%
%ADD12R,0.07500X0.02000*%
%ADD13R,0.03000X0.02000*%
%ADD14C,0.00600*%
%ADD15R,0.01500X0.02000*%
D10*
X0377300Y0150800D02*
X0378300Y0149800D01*
X0415300Y0149800D01*
X0416300Y0150800D01*
X0416800Y0162300D01*
X0413500Y0152200D02*
X0413502Y0152263D01*
X0413508Y0152325D01*
X0413518Y0152387D01*
X0413531Y0152449D01*
X0413549Y0152509D01*
X0413570Y0152568D01*
X0413595Y0152626D01*
X0413624Y0152682D01*
X0413656Y0152736D01*
X0413691Y0152788D01*
X0413729Y0152837D01*
X0413771Y0152885D01*
X0413815Y0152929D01*
X0413863Y0152971D01*
X0413912Y0153009D01*
X0413964Y0153044D01*
X0414018Y0153076D01*
X0414074Y0153105D01*
X0414132Y0153130D01*
X0414191Y0153151D01*
X0414251Y0153169D01*
X0414313Y0153182D01*
X0414375Y0153192D01*
X0414437Y0153198D01*
X0414500Y0153200D01*
X0414563Y0153198D01*
X0414625Y0153192D01*
X0414687Y0153182D01*
X0414749Y0153169D01*
X0414809Y0153151D01*
X0414868Y0153130D01*
X0414926Y0153105D01*
X0414982Y0153076D01*
X0415036Y0153044D01*
X0415088Y0153009D01*
X0415137Y0152971D01*
X0415185Y0152929D01*
X0415229Y0152885D01*
X0415271Y0152837D01*
X0415309Y0152788D01*
X0415344Y0152736D01*
X0415376Y0152682D01*
X0415405Y0152626D01*
X0415430Y0152568D01*
X0415451Y0152509D01*
X0415469Y0152449D01*
X0415482Y0152387D01*
X0415492Y0152325D01*
X0415498Y0152263D01*
X0415500Y0152200D01*
X0415498Y0152137D01*
X0415492Y0152075D01*
X0415482Y0152013D01*
X0415469Y0151951D01*
X0415451Y0151891D01*
X0415430Y0151832D01*
X0415405Y0151774D01*
X0415376Y0151718D01*
X0415344Y0151664D01*
X0415309Y0151612D01*
X0415271Y0151563D01*
X0415229Y0151515D01*
X0415185Y0151471D01*
X0415137Y0151429D01*
X0415088Y0151391D01*
X0415036Y0151356D01*
X0414982Y0151324D01*
X0414926Y0151295D01*
X0414868Y0151270D01*
X0414809Y0151249D01*
X0414749Y0151231D01*
X0414687Y0151218D01*
X0414625Y0151208D01*
X0414563Y0151202D01*
X0414500Y0151200D01*
X0414437Y0151202D01*
X0414375Y0151208D01*
X0414313Y0151218D01*
X0414251Y0151231D01*
X0414191Y0151249D01*
X0414132Y0151270D01*
X0414074Y0151295D01*
X0414018Y0151324D01*
X0413964Y0151356D01*
X0413912Y0151391D01*
X0413863Y0151429D01*
X0413815Y0151471D01*
X0413771Y0151515D01*
X0413729Y0151563D01*
X0413691Y0151612D01*
X0413656Y0151664D01*
X0413624Y0151718D01*
X0413595Y0151774D01*
X0413570Y0151832D01*
X0413549Y0151891D01*
X0413531Y0151951D01*
X0413518Y0152013D01*
X0413508Y0152075D01*
X0413502Y0152137D01*
X0413500Y0152200D01*
X0377300Y0150800D02*
X0376800Y0162300D01*
D11*
X0396800Y0165300D03*
D12*
X0379550Y0162800D03*
X0414050Y0162800D03*
D13*
X0401800Y0162800D03*
X0391800Y0162800D03*
D14*
X0024300Y0031800D02*
X0019300Y0031800D01*
X0016800Y0034300D01*
X0016800Y0039300D01*
X0019300Y0041800D01*
X0024300Y0041800D01*
X0026800Y0039300D01*
X0026800Y0034300D01*
X0024300Y0031800D01*
X0024300Y0041800D02*
X0026800Y0044300D01*
X0026800Y0049300D01*
X0024300Y0051800D01*
X0026800Y0054300D01*
X0026800Y0059300D01*
X0024300Y0061800D01*
X0026800Y0064300D01*
X0026800Y0069300D01*
X0024300Y0071800D01*
X0026800Y0074300D01*
X0026800Y0079300D01*
X0024300Y0081800D01*
X0026800Y0084300D01*
X0026800Y0089300D01*
X0024300Y0091800D01*
X0019300Y0091800D01*
X0016800Y0089300D01*
X0016800Y0084300D01*
X0019300Y0081800D01*
X0016800Y0079300D01*
X0016800Y0074300D01*
X0019300Y0071800D01*
X0024300Y0071800D01*
X0019300Y0071800D02*
X0016800Y0069300D01*
X0016800Y0064300D01*
X0019300Y0061800D01*
X0016800Y0059300D01*
X0016800Y0054300D01*
X0019300Y0051800D01*
X0016800Y0049300D01*
X0016800Y0044300D01*
X0019300Y0041800D01*
X0019300Y0051800D02*
X0024300Y0051800D01*
X0024300Y0061800D02*
X0019300Y0061800D01*
X0019300Y0081800D02*
X0024300Y0081800D01*
X0146800Y0123800D02*
X0146800Y0129800D01*
X0146802Y0129860D01*
X0146807Y0129921D01*
X0146816Y0129980D01*
X0146829Y0130039D01*
X0146845Y0130098D01*
X0146865Y0130155D01*
X0146888Y0130210D01*
X0146915Y0130265D01*
X0146944Y0130317D01*
X0146977Y0130368D01*
X0147013Y0130417D01*
X0147051Y0130463D01*
X0147093Y0130507D01*
X0147137Y0130549D01*
X0147183Y0130587D01*
X0147232Y0130623D01*
X0147283Y0130656D01*
X0147335Y0130685D01*
X0147390Y0130712D01*
X0147445Y0130735D01*
X0147502Y0130755D01*
X0147561Y0130771D01*
X0147620Y0130784D01*
X0147679Y0130793D01*
X0147740Y0130798D01*
X0147800Y0130800D01*
X0149300Y0130800D01*
X0149800Y0130300D01*
X0163800Y0130300D01*
X0164300Y0130800D01*
X0165800Y0130800D01*
X0165860Y0130798D01*
X0165921Y0130793D01*
X0165980Y0130784D01*
X0166039Y0130771D01*
X0166098Y0130755D01*
X0166155Y0130735D01*
X0166210Y0130712D01*
X0166265Y0130685D01*
X0166317Y0130656D01*
X0166368Y0130623D01*
X0166417Y0130587D01*
X0166463Y0130549D01*
X0166507Y0130507D01*
X0166549Y0130463D01*
X0166587Y0130417D01*
X0166623Y0130368D01*
X0166656Y0130317D01*
X0166685Y0130265D01*
X0166712Y0130210D01*
X0166735Y0130155D01*
X0166755Y0130098D01*
X0166771Y0130039D01*
X0166784Y0129980D01*
X0166793Y0129921D01*
X0166798Y0129860D01*
X0166800Y0129800D01*
X0166800Y0123800D01*
X0166798Y0123740D01*
X0166793Y0123679D01*
X0166784Y0123620D01*
X0166771Y0123561D01*
X0166755Y0123502D01*
X0166735Y0123445D01*
X0166712Y0123390D01*
X0166685Y0123335D01*
X0166656Y0123283D01*
X0166623Y0123232D01*
X0166587Y0123183D01*
X0166549Y0123137D01*
X0166507Y0123093D01*
X0166463Y0123051D01*
X0166417Y0123013D01*
X0166368Y0122977D01*
X0166317Y0122944D01*
X0166265Y0122915D01*
X0166210Y0122888D01*
X0166155Y0122865D01*
X0166098Y0122845D01*
X0166039Y0122829D01*
X0165980Y0122816D01*
X0165921Y0122807D01*
X0165860Y0122802D01*
X0165800Y0122800D01*
X0164300Y0122800D01*
X0163800Y0123300D01*
X0149800Y0123300D01*
X0149300Y0122800D01*
X0147800Y0122800D01*
X0147740Y0122802D01*
X0147679Y0122807D01*
X0147620Y0122816D01*
X0147561Y0122829D01*
X0147502Y0122845D01*
X0147445Y0122865D01*
X0147390Y0122888D01*
X0147335Y0122915D01*
X0147283Y0122944D01*
X0147232Y0122977D01*
X0147183Y0123013D01*
X0147137Y0123051D01*
X0147093Y0123093D01*
X0147051Y0123137D01*
X0147013Y0123183D01*
X0146977Y0123232D01*
X0146944Y0123283D01*
X0146915Y0123335D01*
X0146888Y0123390D01*
X0146865Y0123445D01*
X0146845Y0123502D01*
X0146829Y0123561D01*
X0146816Y0123620D01*
X0146807Y0123679D01*
X0146802Y0123740D01*
X0146800Y0123800D01*
X0390800Y0109300D02*
X0390803Y0109570D01*
X0390813Y0109840D01*
X0390830Y0110109D01*
X0390853Y0110378D01*
X0390883Y0110647D01*
X0390919Y0110914D01*
X0390962Y0111181D01*
X0391011Y0111446D01*
X0391067Y0111710D01*
X0391130Y0111973D01*
X0391198Y0112234D01*
X0391274Y0112493D01*
X0391355Y0112750D01*
X0391443Y0113006D01*
X0391537Y0113259D01*
X0391637Y0113510D01*
X0391744Y0113758D01*
X0391856Y0114003D01*
X0391975Y0114246D01*
X0392099Y0114485D01*
X0392229Y0114722D01*
X0392365Y0114955D01*
X0392507Y0115185D01*
X0392654Y0115411D01*
X0392807Y0115634D01*
X0392965Y0115853D01*
X0393128Y0116068D01*
X0393297Y0116278D01*
X0393471Y0116485D01*
X0393650Y0116687D01*
X0393833Y0116885D01*
X0394022Y0117078D01*
X0394215Y0117267D01*
X0394413Y0117450D01*
X0394615Y0117629D01*
X0394822Y0117803D01*
X0395032Y0117972D01*
X0395247Y0118135D01*
X0395466Y0118293D01*
X0395689Y0118446D01*
X0395915Y0118593D01*
X0396145Y0118735D01*
X0396378Y0118871D01*
X0396615Y0119001D01*
X0396854Y0119125D01*
X0397097Y0119244D01*
X0397342Y0119356D01*
X0397590Y0119463D01*
X0397841Y0119563D01*
X0398094Y0119657D01*
X0398350Y0119745D01*
X0398607Y0119826D01*
X0398866Y0119902D01*
X0399127Y0119970D01*
X0399390Y0120033D01*
X0399654Y0120089D01*
X0399919Y0120138D01*
X0400186Y0120181D01*
X0400453Y0120217D01*
X0400722Y0120247D01*
X0400991Y0120270D01*
X0401260Y0120287D01*
X0401530Y0120297D01*
X0401800Y0120300D01*
X0402070Y0120297D01*
X0402340Y0120287D01*
X0402609Y0120270D01*
X0402878Y0120247D01*
X0403147Y0120217D01*
X0403414Y0120181D01*
X0403681Y0120138D01*
X0403946Y0120089D01*
X0404210Y0120033D01*
X0404473Y0119970D01*
X0404734Y0119902D01*
X0404993Y0119826D01*
X0405250Y0119745D01*
X0405506Y0119657D01*
X0405759Y0119563D01*
X0406010Y0119463D01*
X0406258Y0119356D01*
X0406503Y0119244D01*
X0406746Y0119125D01*
X0406985Y0119001D01*
X0407222Y0118871D01*
X0407455Y0118735D01*
X0407685Y0118593D01*
X0407911Y0118446D01*
X0408134Y0118293D01*
X0408353Y0118135D01*
X0408568Y0117972D01*
X0408778Y0117803D01*
X0408985Y0117629D01*
X0409187Y0117450D01*
X0409385Y0117267D01*
X0409578Y0117078D01*
X0409767Y0116885D01*
X0409950Y0116687D01*
X0410129Y0116485D01*
X0410303Y0116278D01*
X0410472Y0116068D01*
X0410635Y0115853D01*
X0410793Y0115634D01*
X0410946Y0115411D01*
X0411093Y0115185D01*
X0411235Y0114955D01*
X0411371Y0114722D01*
X0411501Y0114485D01*
X0411625Y0114246D01*
X0411744Y0114003D01*
X0411856Y0113758D01*
X0411963Y0113510D01*
X0412063Y0113259D01*
X0412157Y0113006D01*
X0412245Y0112750D01*
X0412326Y0112493D01*
X0412402Y0112234D01*
X0412470Y0111973D01*
X0412533Y0111710D01*
X0412589Y0111446D01*
X0412638Y0111181D01*
X0412681Y0110914D01*
X0412717Y0110647D01*
X0412747Y0110378D01*
X0412770Y0110109D01*
X0412787Y0109840D01*
X0412797Y0109570D01*
X0412800Y0109300D01*
X0412797Y0109030D01*
X0412787Y0108760D01*
X0412770Y0108491D01*
X0412747Y0108222D01*
X0412717Y0107953D01*
X0412681Y0107686D01*
X0412638Y0107419D01*
X0412589Y0107154D01*
X0412533Y0106890D01*
X0412470Y0106627D01*
X0412402Y0106366D01*
X0412326Y0106107D01*
X0412245Y0105850D01*
X0412157Y0105594D01*
X0412063Y0105341D01*
X0411963Y0105090D01*
X0411856Y0104842D01*
X0411744Y0104597D01*
X0411625Y0104354D01*
X0411501Y0104115D01*
X0411371Y0103878D01*
X0411235Y0103645D01*
X0411093Y0103415D01*
X0410946Y0103189D01*
X0410793Y0102966D01*
X0410635Y0102747D01*
X0410472Y0102532D01*
X0410303Y0102322D01*
X0410129Y0102115D01*
X0409950Y0101913D01*
X0409767Y0101715D01*
X0409578Y0101522D01*
X0409385Y0101333D01*
X0409187Y0101150D01*
X0408985Y0100971D01*
X0408778Y0100797D01*
X0408568Y0100628D01*
X0408353Y0100465D01*
X0408134Y0100307D01*
X0407911Y0100154D01*
X0407685Y0100007D01*
X0407455Y0099865D01*
X0407222Y0099729D01*
X0406985Y0099599D01*
X0406746Y0099475D01*
X0406503Y0099356D01*
X0406258Y0099244D01*
X0406010Y0099137D01*
X0405759Y0099037D01*
X0405506Y0098943D01*
X0405250Y0098855D01*
X0404993Y0098774D01*
X0404734Y0098698D01*
X0404473Y0098630D01*
X0404210Y0098567D01*
X0403946Y0098511D01*
X0403681Y0098462D01*
X0403414Y0098419D01*
X0403147Y0098383D01*
X0402878Y0098353D01*
X0402609Y0098330D01*
X0402340Y0098313D01*
X0402070Y0098303D01*
X0401800Y0098300D01*
X0401530Y0098303D01*
X0401260Y0098313D01*
X0400991Y0098330D01*
X0400722Y0098353D01*
X0400453Y0098383D01*
X0400186Y0098419D01*
X0399919Y0098462D01*
X0399654Y0098511D01*
X0399390Y0098567D01*
X0399127Y0098630D01*
X0398866Y0098698D01*
X0398607Y0098774D01*
X0398350Y0098855D01*
X0398094Y0098943D01*
X0397841Y0099037D01*
X0397590Y0099137D01*
X0397342Y0099244D01*
X0397097Y0099356D01*
X0396854Y0099475D01*
X0396615Y0099599D01*
X0396378Y0099729D01*
X0396145Y0099865D01*
X0395915Y0100007D01*
X0395689Y0100154D01*
X0395466Y0100307D01*
X0395247Y0100465D01*
X0395032Y0100628D01*
X0394822Y0100797D01*
X0394615Y0100971D01*
X0394413Y0101150D01*
X0394215Y0101333D01*
X0394022Y0101522D01*
X0393833Y0101715D01*
X0393650Y0101913D01*
X0393471Y0102115D01*
X0393297Y0102322D01*
X0393128Y0102532D01*
X0392965Y0102747D01*
X0392807Y0102966D01*
X0392654Y0103189D01*
X0392507Y0103415D01*
X0392365Y0103645D01*
X0392229Y0103878D01*
X0392099Y0104115D01*
X0391975Y0104354D01*
X0391856Y0104597D01*
X0391744Y0104842D01*
X0391637Y0105090D01*
X0391537Y0105341D01*
X0391443Y0105594D01*
X0391355Y0105850D01*
X0391274Y0106107D01*
X0391198Y0106366D01*
X0391130Y0106627D01*
X0391067Y0106890D01*
X0391011Y0107154D01*
X0390962Y0107419D01*
X0390919Y0107686D01*
X0390883Y0107953D01*
X0390853Y0108222D01*
X0390830Y0108491D01*
X0390813Y0108760D01*
X0390803Y0109030D01*
X0390800Y0109300D01*
X0406800Y0114300D02*
X0408300Y0114300D01*
X0408300Y0115800D01*
X0408300Y0114300D02*
X0408300Y0112800D01*
X0408300Y0114300D02*
X0409800Y0114300D01*
D15*
X0167550Y0126800D03*
X0146050Y0126800D03*
M02*
