%
M48
M72
T01C0.02362
T02C0.02400
T03C0.02800
T04C0.03200
T05C0.04000
T06C0.05200
T07C0.11800
%
T01
X356800Y105550
T02
X357550Y321800
X357550Y331800
X357550Y341800
X326800Y341800
X326800Y331800
X326800Y321800
X299300Y321800
X299300Y331800
X299300Y341800
X271800Y341800
X271800Y331800
X271800Y321800
X244300Y321800
X244300Y331800
X244300Y341800
X216800Y341800
X216800Y331800
X216800Y321800
X189300Y321800
X189300Y331800
X189300Y341800
X161800Y341800
X161800Y331800
X161800Y321800
X134300Y321800
X134300Y331800
X134300Y341800
X105550Y341800
X105550Y331800
X105550Y321800
X78050Y321800
X78050Y331800
X78050Y341800
X50550Y341800
X50550Y331800
X50550Y321800
T03
X50550Y309300
X50550Y301800
X78050Y304300
X78050Y309300
X105550Y309300
X105550Y304300
X134300Y304300
X134300Y309300
X160550Y309300
X160550Y304300
X189300Y304300
X189300Y309300
X216800Y309300
X216800Y304300
X244300Y304300
X244300Y309300
X271800Y309300
X271800Y304300
X299300Y304300
X299300Y309300
X326800Y309300
X326800Y304300
X358050Y309300
X380550Y304300
X380550Y341800
X356800Y354300
X326800Y354300
X326800Y359300
X299300Y359300
X299300Y354300
X271800Y354300
X271800Y359300
X244300Y359300
X244300Y354300
X216800Y354300
X216800Y359300
X189300Y359300
X189300Y354300
X161800Y354300
X161800Y359300
X134300Y359300
X134300Y354300
X105550Y354300
X105550Y359300
X78050Y359300
X78050Y354300
X50550Y354300
X9300Y301800
X59300Y181800
X59300Y166800
X65550Y88050
X88050Y86800
X121800Y53050
X119300Y34300
X161800Y51800
X171800Y61800
X181800Y71800
X201800Y71800
X216800Y71800
X231800Y61800
X241800Y51800
X251800Y71800
X321800Y79300
X339300Y61800
X331800Y46800
X339300Y104300
X331800Y134300
X331800Y155550
X349300Y181800
X386800Y180550
X221800Y155550
X151800Y79300
T04
X151800Y86800
X141800Y86800
X131800Y86800
X121800Y86800
X141800Y126800
X141800Y146800
X131800Y146800
X121800Y146800
X151800Y146800
X161800Y146800
X171800Y146800
X181800Y146800
X191800Y146800
X201800Y146800
X211800Y146800
X221800Y146800
X231800Y146800
X241800Y146800
X251800Y146800
X261800Y146800
X271800Y146800
X281800Y146800
X291800Y146800
X301800Y146800
X311800Y146800
X320550Y203050
X320550Y213050
X320550Y223050
X320550Y233050
X320550Y243050
X320550Y253050
X320550Y263050
X290550Y263050
X290550Y253050
X290550Y243050
X290550Y233050
X290550Y223050
X290550Y213050
X290550Y203050
X228050Y201800
X228050Y211800
X228050Y221800
X228050Y231800
X228050Y241800
X228050Y251800
X228050Y261800
X198050Y261800
X198050Y251800
X198050Y241800
X198050Y231800
X198050Y221800
X198050Y211800
X198050Y201800
X216800Y131800
X226800Y131800
X241800Y131800
X251800Y131800
X246300Y111800
X227300Y111800
X209300Y111800
X189300Y111800
X171800Y126800
X171800Y86800
X181800Y86800
X191800Y86800
X201800Y86800
X211800Y86800
X221800Y86800
X231800Y86800
X241800Y86800
X251800Y86800
X261800Y86800
X271800Y86800
X281800Y86800
X291800Y86800
X301800Y86800
X311800Y86800
X386800Y134300
X396800Y134300
X396800Y109300
X406800Y109300
X385550Y263050
X400550Y279300
X410550Y279300
X385550Y293050
X161800Y86800
X51800Y88050
X41800Y88050
X83050Y203050
X83050Y213050
X83050Y223050
X83050Y233050
X83050Y243050
X83050Y253050
X83050Y263050
X113050Y263050
X113050Y253050
X113050Y243050
X113050Y233050
X113050Y223050
X113050Y213050
X113050Y203050
T05
X21800Y36800
X21800Y46800
X21800Y56800
X21800Y66800
X21800Y76800
X21800Y86800
X66800Y131800
X47100Y156650
X47100Y174450
X26800Y191800
X21500Y174450
X21500Y156650
X96800Y131800
X181800Y36800
X191800Y36800
X201800Y36800
X211800Y36800
X221800Y36800
X231800Y36800
X241800Y36800
X291800Y36800
X301800Y36800
X311800Y36800
X321800Y36800
X331800Y36800
X341800Y36800
X386800Y51800
X386800Y61800
X386800Y71800
X386800Y81800
X386800Y156800
X396800Y156800
X406800Y156800
X386800Y191800
X386800Y251800
X259300Y409300
X249300Y409300
X239300Y409300
X229300Y409300
X219300Y409300
X209300Y409300
X199300Y409300
X189300Y409300
X179300Y409300
X169300Y409300
X159300Y409300
X149300Y409300
X139300Y409300
X129300Y409300
X26800Y251800
T06
X49300Y136800
X49300Y116800
X9300Y126800
X341800Y156800
X361800Y156800
X351800Y116800
T07
X380363Y219300
X392174Y237804
X403985Y219300
M30
