G75*
%MOIN*%
%OFA0B0*%
%FSLAX25Y25*%
%IPPOS*%
%LPD*%
%AMOC8*
5,1,8,0,0,1.08239X$1,22.5*
%
%ADD10OC8,0.05600*%
%ADD11C,0.05600*%
%ADD12C,0.06400*%
%ADD13C,0.17000*%
%ADD14C,0.05600*%
%ADD15C,0.04800*%
%ADD16OC8,0.10000*%
%ADD17OC8,0.06400*%
%ADD18OC8,0.06300*%
%ADD19C,0.06300*%
%ADD20C,0.07800*%
%ADD21C,0.06000*%
%ADD22C,0.03500*%
%ADD23C,0.02000*%
%ADD24C,0.04000*%
%ADD25C,0.03000*%
%ADD26C,0.04362*%
D10*
X0041800Y0088050D03*
X0051800Y0088050D03*
X0141800Y0126800D03*
X0171800Y0126800D03*
X0189300Y0111800D03*
X0209300Y0111800D03*
X0216800Y0131800D03*
X0226800Y0131800D03*
X0241800Y0131800D03*
X0251800Y0131800D03*
X0385550Y0263050D03*
X0400550Y0279300D03*
X0410550Y0279300D03*
X0385550Y0293050D03*
D11*
X0323350Y0263050D02*
X0317750Y0263050D01*
X0317750Y0253050D02*
X0323350Y0253050D01*
X0323350Y0243050D02*
X0317750Y0243050D01*
X0317750Y0233050D02*
X0323350Y0233050D01*
X0323350Y0223050D02*
X0317750Y0223050D01*
X0317750Y0213050D02*
X0323350Y0213050D01*
X0323350Y0203050D02*
X0317750Y0203050D01*
X0293350Y0203050D02*
X0287750Y0203050D01*
X0287750Y0213050D02*
X0293350Y0213050D01*
X0293350Y0223050D02*
X0287750Y0223050D01*
X0287750Y0233050D02*
X0293350Y0233050D01*
X0293350Y0243050D02*
X0287750Y0243050D01*
X0287750Y0253050D02*
X0293350Y0253050D01*
X0293350Y0263050D02*
X0287750Y0263050D01*
X0230850Y0261800D02*
X0225250Y0261800D01*
X0225250Y0251800D02*
X0230850Y0251800D01*
X0230850Y0241800D02*
X0225250Y0241800D01*
X0225250Y0231800D02*
X0230850Y0231800D01*
X0230850Y0221800D02*
X0225250Y0221800D01*
X0225250Y0211800D02*
X0230850Y0211800D01*
X0230850Y0201800D02*
X0225250Y0201800D01*
X0200850Y0201800D02*
X0195250Y0201800D01*
X0195250Y0211800D02*
X0200850Y0211800D01*
X0200850Y0221800D02*
X0195250Y0221800D01*
X0195250Y0231800D02*
X0200850Y0231800D01*
X0200850Y0241800D02*
X0195250Y0241800D01*
X0195250Y0251800D02*
X0200850Y0251800D01*
X0200850Y0261800D02*
X0195250Y0261800D01*
X0115850Y0263050D02*
X0110250Y0263050D01*
X0110250Y0253050D02*
X0115850Y0253050D01*
X0115850Y0243050D02*
X0110250Y0243050D01*
X0110250Y0233050D02*
X0115850Y0233050D01*
X0115850Y0223050D02*
X0110250Y0223050D01*
X0110250Y0213050D02*
X0115850Y0213050D01*
X0115850Y0203050D02*
X0110250Y0203050D01*
X0085850Y0203050D02*
X0080250Y0203050D01*
X0080250Y0213050D02*
X0085850Y0213050D01*
X0085850Y0223050D02*
X0080250Y0223050D01*
X0080250Y0233050D02*
X0085850Y0233050D01*
X0085850Y0243050D02*
X0080250Y0243050D01*
X0080250Y0253050D02*
X0085850Y0253050D01*
X0085850Y0263050D02*
X0080250Y0263050D01*
X0121800Y0149600D02*
X0121800Y0144000D01*
X0131800Y0144000D02*
X0131800Y0149600D01*
X0141800Y0149600D02*
X0141800Y0144000D01*
X0151800Y0144000D02*
X0151800Y0149600D01*
X0161800Y0149600D02*
X0161800Y0144000D01*
X0171800Y0144000D02*
X0171800Y0149600D01*
X0181800Y0149600D02*
X0181800Y0144000D01*
X0191800Y0144000D02*
X0191800Y0149600D01*
X0201800Y0149600D02*
X0201800Y0144000D01*
X0211800Y0144000D02*
X0211800Y0149600D01*
X0221800Y0149600D02*
X0221800Y0144000D01*
X0231800Y0144000D02*
X0231800Y0149600D01*
X0241800Y0149600D02*
X0241800Y0144000D01*
X0251800Y0144000D02*
X0251800Y0149600D01*
X0261800Y0149600D02*
X0261800Y0144000D01*
X0271800Y0144000D02*
X0271800Y0149600D01*
X0281800Y0149600D02*
X0281800Y0144000D01*
X0291800Y0144000D02*
X0291800Y0149600D01*
X0301800Y0149600D02*
X0301800Y0144000D01*
X0311800Y0144000D02*
X0311800Y0149600D01*
X0311800Y0089600D02*
X0311800Y0084000D01*
X0301800Y0084000D02*
X0301800Y0089600D01*
X0291800Y0089600D02*
X0291800Y0084000D01*
X0281800Y0084000D02*
X0281800Y0089600D01*
X0271800Y0089600D02*
X0271800Y0084000D01*
X0261800Y0084000D02*
X0261800Y0089600D01*
X0251800Y0089600D02*
X0251800Y0084000D01*
X0241800Y0084000D02*
X0241800Y0089600D01*
X0231800Y0089600D02*
X0231800Y0084000D01*
X0221800Y0084000D02*
X0221800Y0089600D01*
X0211800Y0089600D02*
X0211800Y0084000D01*
X0201800Y0084000D02*
X0201800Y0089600D01*
X0191800Y0089600D02*
X0191800Y0084000D01*
X0181800Y0084000D02*
X0181800Y0089600D01*
X0171800Y0089600D02*
X0171800Y0084000D01*
X0161800Y0084000D02*
X0161800Y0089600D01*
X0151800Y0089600D02*
X0151800Y0084000D01*
X0141800Y0084000D02*
X0141800Y0089600D01*
X0131800Y0089600D02*
X0131800Y0084000D01*
X0121800Y0084000D02*
X0121800Y0089600D01*
D12*
X0025000Y0036800D02*
X0018600Y0036800D01*
X0018600Y0046800D02*
X0025000Y0046800D01*
X0025000Y0056800D02*
X0018600Y0056800D01*
X0018600Y0066800D02*
X0025000Y0066800D01*
X0025000Y0076800D02*
X0018600Y0076800D01*
X0018600Y0086800D02*
X0025000Y0086800D01*
X0024700Y0156650D02*
X0018300Y0156650D01*
X0018300Y0174450D02*
X0024700Y0174450D01*
X0043900Y0174450D02*
X0050300Y0174450D01*
X0050300Y0156650D02*
X0043900Y0156650D01*
X0191800Y0040000D02*
X0191800Y0033600D01*
X0201800Y0033600D02*
X0201800Y0040000D01*
X0211800Y0040000D02*
X0211800Y0033600D01*
X0221800Y0033600D02*
X0221800Y0040000D01*
X0231800Y0040000D02*
X0231800Y0033600D01*
X0241800Y0033600D02*
X0241800Y0040000D01*
X0291800Y0040000D02*
X0291800Y0033600D01*
X0301800Y0033600D02*
X0301800Y0040000D01*
X0311800Y0040000D02*
X0311800Y0033600D01*
X0321800Y0033600D02*
X0321800Y0040000D01*
X0331800Y0040000D02*
X0331800Y0033600D01*
X0341800Y0033600D02*
X0341800Y0040000D01*
X0383600Y0051800D02*
X0390000Y0051800D01*
X0390000Y0061800D02*
X0383600Y0061800D01*
X0383600Y0071800D02*
X0390000Y0071800D01*
X0390000Y0081800D02*
X0383600Y0081800D01*
X0386800Y0153600D02*
X0386800Y0160000D01*
X0396800Y0160000D02*
X0396800Y0153600D01*
X0406800Y0153600D02*
X0406800Y0160000D01*
X0259300Y0406100D02*
X0259300Y0412500D01*
X0249300Y0412500D02*
X0249300Y0406100D01*
X0239300Y0406100D02*
X0239300Y0412500D01*
X0229300Y0412500D02*
X0229300Y0406100D01*
X0219300Y0406100D02*
X0219300Y0412500D01*
X0209300Y0412500D02*
X0209300Y0406100D01*
X0199300Y0406100D02*
X0199300Y0412500D01*
X0189300Y0412500D02*
X0189300Y0406100D01*
X0179300Y0406100D02*
X0179300Y0412500D01*
X0169300Y0412500D02*
X0169300Y0406100D01*
X0159300Y0406100D02*
X0159300Y0412500D01*
X0149300Y0412500D02*
X0149300Y0406100D01*
X0139300Y0406100D02*
X0139300Y0412500D01*
X0129300Y0412500D02*
X0129300Y0406100D01*
D13*
X0380363Y0219300D03*
X0392174Y0237804D03*
X0403985Y0219300D03*
D14*
X0246300Y0111800D03*
X0227300Y0111800D03*
D15*
X0216800Y0321800D03*
X0216800Y0331800D03*
X0216800Y0341800D03*
X0189300Y0341800D03*
X0189300Y0331800D03*
X0189300Y0321800D03*
X0161800Y0321800D03*
X0161800Y0331800D03*
X0161800Y0341800D03*
X0134300Y0341800D03*
X0134300Y0331800D03*
X0134300Y0321800D03*
X0105550Y0321800D03*
X0105550Y0331800D03*
X0105550Y0341800D03*
X0078050Y0341800D03*
X0078050Y0331800D03*
X0078050Y0321800D03*
X0050550Y0321800D03*
X0050550Y0331800D03*
X0050550Y0341800D03*
X0244300Y0341800D03*
X0244300Y0331800D03*
X0244300Y0321800D03*
X0271800Y0321800D03*
X0271800Y0331800D03*
X0271800Y0341800D03*
X0299300Y0341800D03*
X0299300Y0331800D03*
X0299300Y0321800D03*
X0326800Y0321800D03*
X0326800Y0331800D03*
X0326800Y0341800D03*
X0357550Y0341800D03*
X0357550Y0331800D03*
X0357550Y0321800D03*
D16*
X0096800Y0131800D03*
X0066800Y0131800D03*
D17*
X0026800Y0191800D03*
X0026800Y0251800D03*
X0181800Y0036800D03*
X0386800Y0191800D03*
X0386800Y0251800D03*
D18*
X0396800Y0134300D03*
X0396800Y0109300D03*
D19*
X0406800Y0109300D03*
X0386800Y0134300D03*
D20*
X0361800Y0152900D02*
X0361800Y0160700D01*
X0341800Y0160700D02*
X0341800Y0152900D01*
X0347900Y0116800D02*
X0355700Y0116800D01*
X0053200Y0116800D02*
X0045400Y0116800D01*
X0045400Y0136800D02*
X0053200Y0136800D01*
X0009300Y0130700D02*
X0009300Y0122900D01*
D21*
X0059300Y0166800D03*
X0059300Y0181800D03*
X0065550Y0088050D03*
X0088050Y0086800D03*
X0121800Y0053050D03*
X0119300Y0034300D03*
X0161800Y0051800D03*
X0171800Y0061800D03*
X0181800Y0071800D03*
X0201800Y0071800D03*
X0216800Y0071800D03*
X0231800Y0061800D03*
X0241800Y0051800D03*
X0251800Y0071800D03*
X0321800Y0079300D03*
X0339300Y0061800D03*
X0331800Y0046800D03*
X0339300Y0104300D03*
X0331800Y0134300D03*
X0331800Y0155550D03*
X0349300Y0181800D03*
X0386800Y0180550D03*
X0380550Y0304300D03*
X0358050Y0309300D03*
X0326800Y0309300D03*
X0326800Y0304300D03*
X0299300Y0304300D03*
X0299300Y0309300D03*
X0271800Y0309300D03*
X0271800Y0304300D03*
X0244300Y0304300D03*
X0244300Y0309300D03*
X0216800Y0309300D03*
X0216800Y0304300D03*
X0189300Y0304300D03*
X0189300Y0309300D03*
X0160550Y0309300D03*
X0160550Y0304300D03*
X0134300Y0304300D03*
X0134300Y0309300D03*
X0105550Y0309300D03*
X0105550Y0304300D03*
X0078050Y0304300D03*
X0078050Y0309300D03*
X0050550Y0309300D03*
X0050550Y0301800D03*
X0009300Y0301800D03*
X0050550Y0354300D03*
X0078050Y0354300D03*
X0078050Y0359300D03*
X0105550Y0359300D03*
X0105550Y0354300D03*
X0134300Y0354300D03*
X0134300Y0359300D03*
X0161800Y0359300D03*
X0161800Y0354300D03*
X0189300Y0354300D03*
X0189300Y0359300D03*
X0216800Y0359300D03*
X0216800Y0354300D03*
X0244300Y0354300D03*
X0244300Y0359300D03*
X0271800Y0359300D03*
X0271800Y0354300D03*
X0299300Y0354300D03*
X0299300Y0359300D03*
X0326800Y0359300D03*
X0326800Y0354300D03*
X0356800Y0354300D03*
X0380550Y0341800D03*
X0221800Y0155550D03*
X0151800Y0079300D03*
D22*
X0221800Y0155550D02*
X0331800Y0155550D01*
X0331800Y0134300D02*
X0331800Y0046800D01*
X0386800Y0180550D02*
X0385550Y0181800D01*
X0349300Y0181800D01*
X0326800Y0304300D02*
X0299300Y0304300D01*
X0299300Y0309300D02*
X0271800Y0309300D01*
X0271800Y0304300D02*
X0244300Y0304300D01*
X0244300Y0309300D02*
X0216800Y0309300D01*
X0216800Y0304300D02*
X0189300Y0304300D01*
X0189300Y0309300D02*
X0160550Y0309300D01*
X0160550Y0304300D02*
X0134300Y0304300D01*
X0134300Y0309300D02*
X0105550Y0309300D01*
X0105550Y0304300D02*
X0078050Y0304300D01*
X0078050Y0309300D02*
X0050550Y0309300D01*
X0050550Y0301800D02*
X0009300Y0301800D01*
X0050550Y0354300D02*
X0078050Y0354300D01*
X0078050Y0359300D02*
X0105550Y0359300D01*
X0105550Y0354300D02*
X0134300Y0354300D01*
X0134300Y0359300D02*
X0161800Y0359300D01*
X0161800Y0354300D02*
X0189300Y0354300D01*
X0189300Y0359300D02*
X0216800Y0359300D01*
X0216800Y0354300D02*
X0244300Y0354300D01*
X0244300Y0359300D02*
X0271800Y0359300D01*
X0271800Y0354300D02*
X0299300Y0354300D01*
X0299300Y0359300D02*
X0326800Y0359300D01*
X0326800Y0354300D02*
X0356800Y0354300D01*
X0358050Y0309300D02*
X0326800Y0309300D01*
X0068050Y0233050D02*
X0018050Y0233050D01*
X0059300Y0181800D02*
X0059300Y0166800D01*
D23*
X0065550Y0088050D02*
X0119300Y0034300D01*
X0121800Y0053050D02*
X0088050Y0086800D01*
X0151800Y0079300D02*
X0321800Y0079300D01*
X0356800Y0105550D02*
X0356800Y0031800D01*
X0351800Y0026800D01*
X0181800Y0026800D01*
X0181800Y0036800D01*
X0161800Y0051800D02*
X0241800Y0051800D01*
X0231800Y0061800D02*
X0171800Y0061800D01*
X0181800Y0071800D02*
X0201800Y0071800D01*
X0216800Y0071800D02*
X0251800Y0071800D01*
D24*
X0380550Y0304300D02*
X0380550Y0341800D01*
D25*
X0339300Y0104300D02*
X0339300Y0061800D01*
D26*
X0356800Y0105550D03*
M02*
