G75*
%MOIN*%
%OFA0B0*%
%FSLAX25Y25*%
%IPPOS*%
%LPD*%
%AMOC8*
5,1,8,0,0,1.08239X$1,22.5*
%
%ADD10C,0.00600*%
%ADD11C,0.01000*%
%ADD12C,0.01200*%
%ADD13C,0.00800*%
%ADD14C,0.01600*%
%ADD15R,0.01575X0.08268*%
%ADD16C,0.00200*%
%ADD17R,0.02000X0.01500*%
%ADD18R,0.12500X0.04000*%
%ADD19R,0.06000X0.10500*%
%ADD20R,0.04000X0.12500*%
%ADD21R,0.10500X0.06000*%
%ADD22C,0.03000*%
%ADD23R,0.03000X0.02000*%
%ADD24R,0.03000X0.04000*%
D10*
X0036800Y0088050D02*
X0036803Y0088295D01*
X0036812Y0088541D01*
X0036827Y0088786D01*
X0036848Y0089030D01*
X0036875Y0089274D01*
X0036908Y0089517D01*
X0036947Y0089760D01*
X0036992Y0090001D01*
X0037043Y0090241D01*
X0037100Y0090480D01*
X0037162Y0090717D01*
X0037231Y0090953D01*
X0037305Y0091187D01*
X0037385Y0091419D01*
X0037470Y0091649D01*
X0037561Y0091877D01*
X0037658Y0092102D01*
X0037760Y0092326D01*
X0037868Y0092546D01*
X0037981Y0092764D01*
X0038099Y0092979D01*
X0038223Y0093191D01*
X0038351Y0093400D01*
X0038485Y0093606D01*
X0038624Y0093808D01*
X0038768Y0094007D01*
X0038917Y0094202D01*
X0039070Y0094394D01*
X0039228Y0094582D01*
X0039390Y0094766D01*
X0039558Y0094945D01*
X0039729Y0095121D01*
X0039905Y0095292D01*
X0040084Y0095460D01*
X0040268Y0095622D01*
X0040456Y0095780D01*
X0040648Y0095933D01*
X0040843Y0096082D01*
X0041042Y0096226D01*
X0041244Y0096365D01*
X0041450Y0096499D01*
X0041659Y0096627D01*
X0041871Y0096751D01*
X0042086Y0096869D01*
X0042304Y0096982D01*
X0042524Y0097090D01*
X0042748Y0097192D01*
X0042973Y0097289D01*
X0043201Y0097380D01*
X0043431Y0097465D01*
X0043663Y0097545D01*
X0043897Y0097619D01*
X0044133Y0097688D01*
X0044370Y0097750D01*
X0044609Y0097807D01*
X0044849Y0097858D01*
X0045090Y0097903D01*
X0045333Y0097942D01*
X0045576Y0097975D01*
X0045820Y0098002D01*
X0046064Y0098023D01*
X0046309Y0098038D01*
X0046555Y0098047D01*
X0046800Y0098050D01*
X0047045Y0098047D01*
X0047291Y0098038D01*
X0047536Y0098023D01*
X0047780Y0098002D01*
X0048024Y0097975D01*
X0048267Y0097942D01*
X0048510Y0097903D01*
X0048751Y0097858D01*
X0048991Y0097807D01*
X0049230Y0097750D01*
X0049467Y0097688D01*
X0049703Y0097619D01*
X0049937Y0097545D01*
X0050169Y0097465D01*
X0050399Y0097380D01*
X0050627Y0097289D01*
X0050852Y0097192D01*
X0051076Y0097090D01*
X0051296Y0096982D01*
X0051514Y0096869D01*
X0051729Y0096751D01*
X0051941Y0096627D01*
X0052150Y0096499D01*
X0052356Y0096365D01*
X0052558Y0096226D01*
X0052757Y0096082D01*
X0052952Y0095933D01*
X0053144Y0095780D01*
X0053332Y0095622D01*
X0053516Y0095460D01*
X0053695Y0095292D01*
X0053871Y0095121D01*
X0054042Y0094945D01*
X0054210Y0094766D01*
X0054372Y0094582D01*
X0054530Y0094394D01*
X0054683Y0094202D01*
X0054832Y0094007D01*
X0054976Y0093808D01*
X0055115Y0093606D01*
X0055249Y0093400D01*
X0055377Y0093191D01*
X0055501Y0092979D01*
X0055619Y0092764D01*
X0055732Y0092546D01*
X0055840Y0092326D01*
X0055942Y0092102D01*
X0056039Y0091877D01*
X0056130Y0091649D01*
X0056215Y0091419D01*
X0056295Y0091187D01*
X0056369Y0090953D01*
X0056438Y0090717D01*
X0056500Y0090480D01*
X0056557Y0090241D01*
X0056608Y0090001D01*
X0056653Y0089760D01*
X0056692Y0089517D01*
X0056725Y0089274D01*
X0056752Y0089030D01*
X0056773Y0088786D01*
X0056788Y0088541D01*
X0056797Y0088295D01*
X0056800Y0088050D01*
X0056797Y0087805D01*
X0056788Y0087559D01*
X0056773Y0087314D01*
X0056752Y0087070D01*
X0056725Y0086826D01*
X0056692Y0086583D01*
X0056653Y0086340D01*
X0056608Y0086099D01*
X0056557Y0085859D01*
X0056500Y0085620D01*
X0056438Y0085383D01*
X0056369Y0085147D01*
X0056295Y0084913D01*
X0056215Y0084681D01*
X0056130Y0084451D01*
X0056039Y0084223D01*
X0055942Y0083998D01*
X0055840Y0083774D01*
X0055732Y0083554D01*
X0055619Y0083336D01*
X0055501Y0083121D01*
X0055377Y0082909D01*
X0055249Y0082700D01*
X0055115Y0082494D01*
X0054976Y0082292D01*
X0054832Y0082093D01*
X0054683Y0081898D01*
X0054530Y0081706D01*
X0054372Y0081518D01*
X0054210Y0081334D01*
X0054042Y0081155D01*
X0053871Y0080979D01*
X0053695Y0080808D01*
X0053516Y0080640D01*
X0053332Y0080478D01*
X0053144Y0080320D01*
X0052952Y0080167D01*
X0052757Y0080018D01*
X0052558Y0079874D01*
X0052356Y0079735D01*
X0052150Y0079601D01*
X0051941Y0079473D01*
X0051729Y0079349D01*
X0051514Y0079231D01*
X0051296Y0079118D01*
X0051076Y0079010D01*
X0050852Y0078908D01*
X0050627Y0078811D01*
X0050399Y0078720D01*
X0050169Y0078635D01*
X0049937Y0078555D01*
X0049703Y0078481D01*
X0049467Y0078412D01*
X0049230Y0078350D01*
X0048991Y0078293D01*
X0048751Y0078242D01*
X0048510Y0078197D01*
X0048267Y0078158D01*
X0048024Y0078125D01*
X0047780Y0078098D01*
X0047536Y0078077D01*
X0047291Y0078062D01*
X0047045Y0078053D01*
X0046800Y0078050D01*
X0046555Y0078053D01*
X0046309Y0078062D01*
X0046064Y0078077D01*
X0045820Y0078098D01*
X0045576Y0078125D01*
X0045333Y0078158D01*
X0045090Y0078197D01*
X0044849Y0078242D01*
X0044609Y0078293D01*
X0044370Y0078350D01*
X0044133Y0078412D01*
X0043897Y0078481D01*
X0043663Y0078555D01*
X0043431Y0078635D01*
X0043201Y0078720D01*
X0042973Y0078811D01*
X0042748Y0078908D01*
X0042524Y0079010D01*
X0042304Y0079118D01*
X0042086Y0079231D01*
X0041871Y0079349D01*
X0041659Y0079473D01*
X0041450Y0079601D01*
X0041244Y0079735D01*
X0041042Y0079874D01*
X0040843Y0080018D01*
X0040648Y0080167D01*
X0040456Y0080320D01*
X0040268Y0080478D01*
X0040084Y0080640D01*
X0039905Y0080808D01*
X0039729Y0080979D01*
X0039558Y0081155D01*
X0039390Y0081334D01*
X0039228Y0081518D01*
X0039070Y0081706D01*
X0038917Y0081898D01*
X0038768Y0082093D01*
X0038624Y0082292D01*
X0038485Y0082494D01*
X0038351Y0082700D01*
X0038223Y0082909D01*
X0038099Y0083121D01*
X0037981Y0083336D01*
X0037868Y0083554D01*
X0037760Y0083774D01*
X0037658Y0083998D01*
X0037561Y0084223D01*
X0037470Y0084451D01*
X0037385Y0084681D01*
X0037305Y0084913D01*
X0037231Y0085147D01*
X0037162Y0085383D01*
X0037100Y0085620D01*
X0037043Y0085859D01*
X0036992Y0086099D01*
X0036947Y0086340D01*
X0036908Y0086583D01*
X0036875Y0086826D01*
X0036848Y0087070D01*
X0036827Y0087314D01*
X0036812Y0087559D01*
X0036803Y0087805D01*
X0036800Y0088050D01*
X0047800Y0107300D02*
X0010800Y0107300D01*
X0010724Y0107302D01*
X0010648Y0107308D01*
X0010573Y0107317D01*
X0010498Y0107331D01*
X0010424Y0107348D01*
X0010351Y0107369D01*
X0010279Y0107393D01*
X0010208Y0107422D01*
X0010139Y0107453D01*
X0010072Y0107488D01*
X0010007Y0107527D01*
X0009943Y0107569D01*
X0009882Y0107614D01*
X0009823Y0107662D01*
X0009767Y0107713D01*
X0009713Y0107767D01*
X0009662Y0107823D01*
X0009614Y0107882D01*
X0009569Y0107943D01*
X0009527Y0108007D01*
X0009488Y0108072D01*
X0009453Y0108139D01*
X0009422Y0108208D01*
X0009393Y0108279D01*
X0009369Y0108351D01*
X0009348Y0108424D01*
X0009331Y0108498D01*
X0009317Y0108573D01*
X0009308Y0108648D01*
X0009302Y0108724D01*
X0009300Y0108800D01*
X0009300Y0120800D01*
X0017800Y0126800D02*
X0019800Y0126800D01*
X0022800Y0128300D02*
X0027800Y0128300D01*
X0029800Y0130800D01*
X0030800Y0130800D01*
X0030800Y0128300D01*
X0035800Y0128300D01*
X0035800Y0125300D01*
X0030800Y0125300D01*
X0030800Y0122800D01*
X0029800Y0122800D01*
X0027800Y0125300D01*
X0022800Y0125300D01*
X0022800Y0128300D01*
X0022300Y0133800D02*
X0021300Y0134800D01*
X0029300Y0136300D02*
X0029300Y0138300D01*
X0035300Y0132800D02*
X0037300Y0134800D01*
X0017800Y0126800D02*
X0017803Y0127082D01*
X0017814Y0127364D01*
X0017831Y0127646D01*
X0017855Y0127927D01*
X0017886Y0128208D01*
X0017924Y0128487D01*
X0017969Y0128766D01*
X0018021Y0129044D01*
X0018079Y0129320D01*
X0018145Y0129594D01*
X0018217Y0129867D01*
X0018295Y0130138D01*
X0018380Y0130407D01*
X0018472Y0130674D01*
X0018571Y0130939D01*
X0018675Y0131201D01*
X0018787Y0131460D01*
X0018904Y0131717D01*
X0019028Y0131971D01*
X0019158Y0132221D01*
X0019294Y0132468D01*
X0019436Y0132712D01*
X0019584Y0132952D01*
X0019738Y0133189D01*
X0019898Y0133422D01*
X0020063Y0133651D01*
X0020234Y0133875D01*
X0020410Y0134096D01*
X0020592Y0134311D01*
X0020779Y0134523D01*
X0020971Y0134730D01*
X0021168Y0134932D01*
X0021370Y0135129D01*
X0021577Y0135321D01*
X0021789Y0135508D01*
X0022004Y0135690D01*
X0022225Y0135866D01*
X0022449Y0136037D01*
X0022678Y0136202D01*
X0022911Y0136362D01*
X0023148Y0136516D01*
X0023388Y0136664D01*
X0023632Y0136806D01*
X0023879Y0136942D01*
X0024129Y0137072D01*
X0024383Y0137196D01*
X0024640Y0137313D01*
X0024899Y0137425D01*
X0025161Y0137529D01*
X0025426Y0137628D01*
X0025693Y0137720D01*
X0025962Y0137805D01*
X0026233Y0137883D01*
X0026506Y0137955D01*
X0026780Y0138021D01*
X0027056Y0138079D01*
X0027334Y0138131D01*
X0027613Y0138176D01*
X0027892Y0138214D01*
X0028173Y0138245D01*
X0028454Y0138269D01*
X0028736Y0138286D01*
X0029018Y0138297D01*
X0029300Y0138300D01*
X0029582Y0138297D01*
X0029864Y0138286D01*
X0030146Y0138269D01*
X0030427Y0138245D01*
X0030708Y0138214D01*
X0030987Y0138176D01*
X0031266Y0138131D01*
X0031544Y0138079D01*
X0031820Y0138021D01*
X0032094Y0137955D01*
X0032367Y0137883D01*
X0032638Y0137805D01*
X0032907Y0137720D01*
X0033174Y0137628D01*
X0033439Y0137529D01*
X0033701Y0137425D01*
X0033960Y0137313D01*
X0034217Y0137196D01*
X0034471Y0137072D01*
X0034721Y0136942D01*
X0034968Y0136806D01*
X0035212Y0136664D01*
X0035452Y0136516D01*
X0035689Y0136362D01*
X0035922Y0136202D01*
X0036151Y0136037D01*
X0036375Y0135866D01*
X0036596Y0135690D01*
X0036811Y0135508D01*
X0037023Y0135321D01*
X0037230Y0135129D01*
X0037432Y0134932D01*
X0037629Y0134730D01*
X0037821Y0134523D01*
X0038008Y0134311D01*
X0038190Y0134096D01*
X0038366Y0133875D01*
X0038537Y0133651D01*
X0038702Y0133422D01*
X0038862Y0133189D01*
X0039016Y0132952D01*
X0039164Y0132712D01*
X0039306Y0132468D01*
X0039442Y0132221D01*
X0039572Y0131971D01*
X0039696Y0131717D01*
X0039813Y0131460D01*
X0039925Y0131201D01*
X0040029Y0130939D01*
X0040128Y0130674D01*
X0040220Y0130407D01*
X0040305Y0130138D01*
X0040383Y0129867D01*
X0040455Y0129594D01*
X0040521Y0129320D01*
X0040579Y0129044D01*
X0040631Y0128766D01*
X0040676Y0128487D01*
X0040714Y0128208D01*
X0040745Y0127927D01*
X0040769Y0127646D01*
X0040786Y0127364D01*
X0040797Y0127082D01*
X0040800Y0126800D01*
X0040797Y0126518D01*
X0040786Y0126236D01*
X0040769Y0125954D01*
X0040745Y0125673D01*
X0040714Y0125392D01*
X0040676Y0125113D01*
X0040631Y0124834D01*
X0040579Y0124556D01*
X0040521Y0124280D01*
X0040455Y0124006D01*
X0040383Y0123733D01*
X0040305Y0123462D01*
X0040220Y0123193D01*
X0040128Y0122926D01*
X0040029Y0122661D01*
X0039925Y0122399D01*
X0039813Y0122140D01*
X0039696Y0121883D01*
X0039572Y0121629D01*
X0039442Y0121379D01*
X0039306Y0121132D01*
X0039164Y0120888D01*
X0039016Y0120648D01*
X0038862Y0120411D01*
X0038702Y0120178D01*
X0038537Y0119949D01*
X0038366Y0119725D01*
X0038190Y0119504D01*
X0038008Y0119289D01*
X0037821Y0119077D01*
X0037629Y0118870D01*
X0037432Y0118668D01*
X0037230Y0118471D01*
X0037023Y0118279D01*
X0036811Y0118092D01*
X0036596Y0117910D01*
X0036375Y0117734D01*
X0036151Y0117563D01*
X0035922Y0117398D01*
X0035689Y0117238D01*
X0035452Y0117084D01*
X0035212Y0116936D01*
X0034968Y0116794D01*
X0034721Y0116658D01*
X0034471Y0116528D01*
X0034217Y0116404D01*
X0033960Y0116287D01*
X0033701Y0116175D01*
X0033439Y0116071D01*
X0033174Y0115972D01*
X0032907Y0115880D01*
X0032638Y0115795D01*
X0032367Y0115717D01*
X0032094Y0115645D01*
X0031820Y0115579D01*
X0031544Y0115521D01*
X0031266Y0115469D01*
X0030987Y0115424D01*
X0030708Y0115386D01*
X0030427Y0115355D01*
X0030146Y0115331D01*
X0029864Y0115314D01*
X0029582Y0115303D01*
X0029300Y0115300D01*
X0029018Y0115303D01*
X0028736Y0115314D01*
X0028454Y0115331D01*
X0028173Y0115355D01*
X0027892Y0115386D01*
X0027613Y0115424D01*
X0027334Y0115469D01*
X0027056Y0115521D01*
X0026780Y0115579D01*
X0026506Y0115645D01*
X0026233Y0115717D01*
X0025962Y0115795D01*
X0025693Y0115880D01*
X0025426Y0115972D01*
X0025161Y0116071D01*
X0024899Y0116175D01*
X0024640Y0116287D01*
X0024383Y0116404D01*
X0024129Y0116528D01*
X0023879Y0116658D01*
X0023632Y0116794D01*
X0023388Y0116936D01*
X0023148Y0117084D01*
X0022911Y0117238D01*
X0022678Y0117398D01*
X0022449Y0117563D01*
X0022225Y0117734D01*
X0022004Y0117910D01*
X0021789Y0118092D01*
X0021577Y0118279D01*
X0021370Y0118471D01*
X0021168Y0118668D01*
X0020971Y0118870D01*
X0020779Y0119077D01*
X0020592Y0119289D01*
X0020410Y0119504D01*
X0020234Y0119725D01*
X0020063Y0119949D01*
X0019898Y0120178D01*
X0019738Y0120411D01*
X0019584Y0120648D01*
X0019436Y0120888D01*
X0019294Y0121132D01*
X0019158Y0121379D01*
X0019028Y0121629D01*
X0018904Y0121883D01*
X0018787Y0122140D01*
X0018675Y0122399D01*
X0018571Y0122661D01*
X0018472Y0122926D01*
X0018380Y0123193D01*
X0018295Y0123462D01*
X0018217Y0123733D01*
X0018145Y0124006D01*
X0018079Y0124280D01*
X0018021Y0124556D01*
X0017969Y0124834D01*
X0017924Y0125113D01*
X0017886Y0125392D01*
X0017855Y0125673D01*
X0017831Y0125954D01*
X0017814Y0126236D01*
X0017803Y0126518D01*
X0017800Y0126800D01*
X0022300Y0119800D02*
X0021300Y0118800D01*
X0029300Y0117300D02*
X0029300Y0115300D01*
X0035300Y0120800D02*
X0037300Y0118800D01*
X0021300Y0126800D02*
X0021302Y0126996D01*
X0021310Y0127193D01*
X0021322Y0127389D01*
X0021339Y0127584D01*
X0021360Y0127779D01*
X0021387Y0127974D01*
X0021418Y0128168D01*
X0021454Y0128361D01*
X0021494Y0128553D01*
X0021540Y0128744D01*
X0021590Y0128934D01*
X0021644Y0129122D01*
X0021704Y0129309D01*
X0021768Y0129495D01*
X0021836Y0129679D01*
X0021909Y0129861D01*
X0021986Y0130042D01*
X0022068Y0130220D01*
X0022154Y0130397D01*
X0022245Y0130571D01*
X0022339Y0130743D01*
X0022438Y0130913D01*
X0022541Y0131080D01*
X0022648Y0131245D01*
X0022759Y0131406D01*
X0022874Y0131566D01*
X0022993Y0131722D01*
X0023116Y0131875D01*
X0023242Y0132025D01*
X0023372Y0132172D01*
X0023506Y0132316D01*
X0023643Y0132457D01*
X0023784Y0132594D01*
X0023928Y0132728D01*
X0024075Y0132858D01*
X0024225Y0132984D01*
X0024378Y0133107D01*
X0024534Y0133226D01*
X0024694Y0133341D01*
X0024855Y0133452D01*
X0025020Y0133559D01*
X0025187Y0133662D01*
X0025357Y0133761D01*
X0025529Y0133855D01*
X0025703Y0133946D01*
X0025880Y0134032D01*
X0026058Y0134114D01*
X0026239Y0134191D01*
X0026421Y0134264D01*
X0026605Y0134332D01*
X0026791Y0134396D01*
X0026978Y0134456D01*
X0027166Y0134510D01*
X0027356Y0134560D01*
X0027547Y0134606D01*
X0027739Y0134646D01*
X0027932Y0134682D01*
X0028126Y0134713D01*
X0028321Y0134740D01*
X0028516Y0134761D01*
X0028711Y0134778D01*
X0028907Y0134790D01*
X0029104Y0134798D01*
X0029300Y0134800D01*
X0029496Y0134798D01*
X0029693Y0134790D01*
X0029889Y0134778D01*
X0030084Y0134761D01*
X0030279Y0134740D01*
X0030474Y0134713D01*
X0030668Y0134682D01*
X0030861Y0134646D01*
X0031053Y0134606D01*
X0031244Y0134560D01*
X0031434Y0134510D01*
X0031622Y0134456D01*
X0031809Y0134396D01*
X0031995Y0134332D01*
X0032179Y0134264D01*
X0032361Y0134191D01*
X0032542Y0134114D01*
X0032720Y0134032D01*
X0032897Y0133946D01*
X0033071Y0133855D01*
X0033243Y0133761D01*
X0033413Y0133662D01*
X0033580Y0133559D01*
X0033745Y0133452D01*
X0033906Y0133341D01*
X0034066Y0133226D01*
X0034222Y0133107D01*
X0034375Y0132984D01*
X0034525Y0132858D01*
X0034672Y0132728D01*
X0034816Y0132594D01*
X0034957Y0132457D01*
X0035094Y0132316D01*
X0035228Y0132172D01*
X0035358Y0132025D01*
X0035484Y0131875D01*
X0035607Y0131722D01*
X0035726Y0131566D01*
X0035841Y0131406D01*
X0035952Y0131245D01*
X0036059Y0131080D01*
X0036162Y0130913D01*
X0036261Y0130743D01*
X0036355Y0130571D01*
X0036446Y0130397D01*
X0036532Y0130220D01*
X0036614Y0130042D01*
X0036691Y0129861D01*
X0036764Y0129679D01*
X0036832Y0129495D01*
X0036896Y0129309D01*
X0036956Y0129122D01*
X0037010Y0128934D01*
X0037060Y0128744D01*
X0037106Y0128553D01*
X0037146Y0128361D01*
X0037182Y0128168D01*
X0037213Y0127974D01*
X0037240Y0127779D01*
X0037261Y0127584D01*
X0037278Y0127389D01*
X0037290Y0127193D01*
X0037298Y0126996D01*
X0037300Y0126800D01*
X0037298Y0126604D01*
X0037290Y0126407D01*
X0037278Y0126211D01*
X0037261Y0126016D01*
X0037240Y0125821D01*
X0037213Y0125626D01*
X0037182Y0125432D01*
X0037146Y0125239D01*
X0037106Y0125047D01*
X0037060Y0124856D01*
X0037010Y0124666D01*
X0036956Y0124478D01*
X0036896Y0124291D01*
X0036832Y0124105D01*
X0036764Y0123921D01*
X0036691Y0123739D01*
X0036614Y0123558D01*
X0036532Y0123380D01*
X0036446Y0123203D01*
X0036355Y0123029D01*
X0036261Y0122857D01*
X0036162Y0122687D01*
X0036059Y0122520D01*
X0035952Y0122355D01*
X0035841Y0122194D01*
X0035726Y0122034D01*
X0035607Y0121878D01*
X0035484Y0121725D01*
X0035358Y0121575D01*
X0035228Y0121428D01*
X0035094Y0121284D01*
X0034957Y0121143D01*
X0034816Y0121006D01*
X0034672Y0120872D01*
X0034525Y0120742D01*
X0034375Y0120616D01*
X0034222Y0120493D01*
X0034066Y0120374D01*
X0033906Y0120259D01*
X0033745Y0120148D01*
X0033580Y0120041D01*
X0033413Y0119938D01*
X0033243Y0119839D01*
X0033071Y0119745D01*
X0032897Y0119654D01*
X0032720Y0119568D01*
X0032542Y0119486D01*
X0032361Y0119409D01*
X0032179Y0119336D01*
X0031995Y0119268D01*
X0031809Y0119204D01*
X0031622Y0119144D01*
X0031434Y0119090D01*
X0031244Y0119040D01*
X0031053Y0118994D01*
X0030861Y0118954D01*
X0030668Y0118918D01*
X0030474Y0118887D01*
X0030279Y0118860D01*
X0030084Y0118839D01*
X0029889Y0118822D01*
X0029693Y0118810D01*
X0029496Y0118802D01*
X0029300Y0118800D01*
X0029104Y0118802D01*
X0028907Y0118810D01*
X0028711Y0118822D01*
X0028516Y0118839D01*
X0028321Y0118860D01*
X0028126Y0118887D01*
X0027932Y0118918D01*
X0027739Y0118954D01*
X0027547Y0118994D01*
X0027356Y0119040D01*
X0027166Y0119090D01*
X0026978Y0119144D01*
X0026791Y0119204D01*
X0026605Y0119268D01*
X0026421Y0119336D01*
X0026239Y0119409D01*
X0026058Y0119486D01*
X0025880Y0119568D01*
X0025703Y0119654D01*
X0025529Y0119745D01*
X0025357Y0119839D01*
X0025187Y0119938D01*
X0025020Y0120041D01*
X0024855Y0120148D01*
X0024694Y0120259D01*
X0024534Y0120374D01*
X0024378Y0120493D01*
X0024225Y0120616D01*
X0024075Y0120742D01*
X0023928Y0120872D01*
X0023784Y0121006D01*
X0023643Y0121143D01*
X0023506Y0121284D01*
X0023372Y0121428D01*
X0023242Y0121575D01*
X0023116Y0121725D01*
X0022993Y0121878D01*
X0022874Y0122034D01*
X0022759Y0122194D01*
X0022648Y0122355D01*
X0022541Y0122520D01*
X0022438Y0122687D01*
X0022339Y0122857D01*
X0022245Y0123029D01*
X0022154Y0123203D01*
X0022068Y0123380D01*
X0021986Y0123558D01*
X0021909Y0123739D01*
X0021836Y0123921D01*
X0021768Y0124105D01*
X0021704Y0124291D01*
X0021644Y0124478D01*
X0021590Y0124666D01*
X0021540Y0124856D01*
X0021494Y0125047D01*
X0021454Y0125239D01*
X0021418Y0125432D01*
X0021387Y0125626D01*
X0021360Y0125821D01*
X0021339Y0126016D01*
X0021322Y0126211D01*
X0021310Y0126407D01*
X0021302Y0126604D01*
X0021300Y0126800D01*
X0009300Y0132800D02*
X0009300Y0144800D01*
X0009302Y0144876D01*
X0009308Y0144952D01*
X0009317Y0145027D01*
X0009331Y0145102D01*
X0009348Y0145176D01*
X0009369Y0145249D01*
X0009393Y0145321D01*
X0009422Y0145392D01*
X0009453Y0145461D01*
X0009488Y0145528D01*
X0009527Y0145593D01*
X0009569Y0145657D01*
X0009614Y0145718D01*
X0009662Y0145777D01*
X0009713Y0145833D01*
X0009767Y0145887D01*
X0009823Y0145938D01*
X0009882Y0145986D01*
X0009943Y0146031D01*
X0010007Y0146073D01*
X0010072Y0146112D01*
X0010139Y0146147D01*
X0010208Y0146178D01*
X0010279Y0146207D01*
X0010351Y0146231D01*
X0010424Y0146252D01*
X0010498Y0146269D01*
X0010573Y0146283D01*
X0010648Y0146292D01*
X0010724Y0146298D01*
X0010800Y0146300D01*
X0047800Y0146300D01*
X0047876Y0146298D01*
X0047952Y0146292D01*
X0048027Y0146283D01*
X0048102Y0146269D01*
X0048176Y0146252D01*
X0048249Y0146231D01*
X0048321Y0146207D01*
X0048392Y0146178D01*
X0048461Y0146147D01*
X0048528Y0146112D01*
X0048593Y0146073D01*
X0048657Y0146031D01*
X0048718Y0145986D01*
X0048777Y0145938D01*
X0048833Y0145887D01*
X0048887Y0145833D01*
X0048938Y0145777D01*
X0048986Y0145718D01*
X0049031Y0145657D01*
X0049073Y0145593D01*
X0049112Y0145528D01*
X0049147Y0145461D01*
X0049178Y0145392D01*
X0049207Y0145321D01*
X0049231Y0145249D01*
X0049252Y0145176D01*
X0049269Y0145102D01*
X0049283Y0145027D01*
X0049292Y0144952D01*
X0049298Y0144876D01*
X0049300Y0144800D01*
X0049300Y0142300D01*
X0042800Y0153550D02*
X0038800Y0153550D01*
X0029300Y0153550D01*
X0025800Y0153550D01*
X0022300Y0161550D02*
X0022300Y0162550D01*
X0021300Y0162550D01*
X0021300Y0168550D01*
X0022300Y0168550D01*
X0022300Y0169550D01*
X0025800Y0177550D02*
X0029300Y0177550D01*
X0039300Y0177550D01*
X0042800Y0177550D01*
X0046300Y0169550D02*
X0046300Y0168550D01*
X0047300Y0168550D01*
X0047300Y0162550D01*
X0046300Y0162550D01*
X0046300Y0161550D01*
X0033300Y0165550D02*
X0033302Y0165613D01*
X0033308Y0165675D01*
X0033318Y0165737D01*
X0033331Y0165799D01*
X0033349Y0165859D01*
X0033370Y0165918D01*
X0033395Y0165976D01*
X0033424Y0166032D01*
X0033456Y0166086D01*
X0033491Y0166138D01*
X0033529Y0166187D01*
X0033571Y0166235D01*
X0033615Y0166279D01*
X0033663Y0166321D01*
X0033712Y0166359D01*
X0033764Y0166394D01*
X0033818Y0166426D01*
X0033874Y0166455D01*
X0033932Y0166480D01*
X0033991Y0166501D01*
X0034051Y0166519D01*
X0034113Y0166532D01*
X0034175Y0166542D01*
X0034237Y0166548D01*
X0034300Y0166550D01*
X0034363Y0166548D01*
X0034425Y0166542D01*
X0034487Y0166532D01*
X0034549Y0166519D01*
X0034609Y0166501D01*
X0034668Y0166480D01*
X0034726Y0166455D01*
X0034782Y0166426D01*
X0034836Y0166394D01*
X0034888Y0166359D01*
X0034937Y0166321D01*
X0034985Y0166279D01*
X0035029Y0166235D01*
X0035071Y0166187D01*
X0035109Y0166138D01*
X0035144Y0166086D01*
X0035176Y0166032D01*
X0035205Y0165976D01*
X0035230Y0165918D01*
X0035251Y0165859D01*
X0035269Y0165799D01*
X0035282Y0165737D01*
X0035292Y0165675D01*
X0035298Y0165613D01*
X0035300Y0165550D01*
X0035298Y0165487D01*
X0035292Y0165425D01*
X0035282Y0165363D01*
X0035269Y0165301D01*
X0035251Y0165241D01*
X0035230Y0165182D01*
X0035205Y0165124D01*
X0035176Y0165068D01*
X0035144Y0165014D01*
X0035109Y0164962D01*
X0035071Y0164913D01*
X0035029Y0164865D01*
X0034985Y0164821D01*
X0034937Y0164779D01*
X0034888Y0164741D01*
X0034836Y0164706D01*
X0034782Y0164674D01*
X0034726Y0164645D01*
X0034668Y0164620D01*
X0034609Y0164599D01*
X0034549Y0164581D01*
X0034487Y0164568D01*
X0034425Y0164558D01*
X0034363Y0164552D01*
X0034300Y0164550D01*
X0034237Y0164552D01*
X0034175Y0164558D01*
X0034113Y0164568D01*
X0034051Y0164581D01*
X0033991Y0164599D01*
X0033932Y0164620D01*
X0033874Y0164645D01*
X0033818Y0164674D01*
X0033764Y0164706D01*
X0033712Y0164741D01*
X0033663Y0164779D01*
X0033615Y0164821D01*
X0033571Y0164865D01*
X0033529Y0164913D01*
X0033491Y0164962D01*
X0033456Y0165014D01*
X0033424Y0165068D01*
X0033395Y0165124D01*
X0033370Y0165182D01*
X0033349Y0165241D01*
X0033331Y0165301D01*
X0033318Y0165363D01*
X0033308Y0165425D01*
X0033302Y0165487D01*
X0033300Y0165550D01*
X0027300Y0165550D02*
X0027302Y0165722D01*
X0027308Y0165893D01*
X0027319Y0166065D01*
X0027334Y0166236D01*
X0027353Y0166407D01*
X0027376Y0166577D01*
X0027403Y0166747D01*
X0027435Y0166916D01*
X0027470Y0167084D01*
X0027510Y0167251D01*
X0027554Y0167417D01*
X0027601Y0167582D01*
X0027653Y0167746D01*
X0027709Y0167908D01*
X0027769Y0168069D01*
X0027833Y0168229D01*
X0027901Y0168387D01*
X0027972Y0168543D01*
X0028047Y0168697D01*
X0028127Y0168850D01*
X0028209Y0169000D01*
X0028296Y0169149D01*
X0028386Y0169295D01*
X0028480Y0169439D01*
X0028577Y0169581D01*
X0028678Y0169720D01*
X0028782Y0169857D01*
X0028889Y0169991D01*
X0029000Y0170122D01*
X0029113Y0170251D01*
X0029230Y0170377D01*
X0029350Y0170500D01*
X0029473Y0170620D01*
X0029599Y0170737D01*
X0029728Y0170850D01*
X0029859Y0170961D01*
X0029993Y0171068D01*
X0030130Y0171172D01*
X0030269Y0171273D01*
X0030411Y0171370D01*
X0030555Y0171464D01*
X0030701Y0171554D01*
X0030850Y0171641D01*
X0031000Y0171723D01*
X0031153Y0171803D01*
X0031307Y0171878D01*
X0031463Y0171949D01*
X0031621Y0172017D01*
X0031781Y0172081D01*
X0031942Y0172141D01*
X0032104Y0172197D01*
X0032268Y0172249D01*
X0032433Y0172296D01*
X0032599Y0172340D01*
X0032766Y0172380D01*
X0032934Y0172415D01*
X0033103Y0172447D01*
X0033273Y0172474D01*
X0033443Y0172497D01*
X0033614Y0172516D01*
X0033785Y0172531D01*
X0033957Y0172542D01*
X0034128Y0172548D01*
X0034300Y0172550D01*
X0034472Y0172548D01*
X0034643Y0172542D01*
X0034815Y0172531D01*
X0034986Y0172516D01*
X0035157Y0172497D01*
X0035327Y0172474D01*
X0035497Y0172447D01*
X0035666Y0172415D01*
X0035834Y0172380D01*
X0036001Y0172340D01*
X0036167Y0172296D01*
X0036332Y0172249D01*
X0036496Y0172197D01*
X0036658Y0172141D01*
X0036819Y0172081D01*
X0036979Y0172017D01*
X0037137Y0171949D01*
X0037293Y0171878D01*
X0037447Y0171803D01*
X0037600Y0171723D01*
X0037750Y0171641D01*
X0037899Y0171554D01*
X0038045Y0171464D01*
X0038189Y0171370D01*
X0038331Y0171273D01*
X0038470Y0171172D01*
X0038607Y0171068D01*
X0038741Y0170961D01*
X0038872Y0170850D01*
X0039001Y0170737D01*
X0039127Y0170620D01*
X0039250Y0170500D01*
X0039370Y0170377D01*
X0039487Y0170251D01*
X0039600Y0170122D01*
X0039711Y0169991D01*
X0039818Y0169857D01*
X0039922Y0169720D01*
X0040023Y0169581D01*
X0040120Y0169439D01*
X0040214Y0169295D01*
X0040304Y0169149D01*
X0040391Y0169000D01*
X0040473Y0168850D01*
X0040553Y0168697D01*
X0040628Y0168543D01*
X0040699Y0168387D01*
X0040767Y0168229D01*
X0040831Y0168069D01*
X0040891Y0167908D01*
X0040947Y0167746D01*
X0040999Y0167582D01*
X0041046Y0167417D01*
X0041090Y0167251D01*
X0041130Y0167084D01*
X0041165Y0166916D01*
X0041197Y0166747D01*
X0041224Y0166577D01*
X0041247Y0166407D01*
X0041266Y0166236D01*
X0041281Y0166065D01*
X0041292Y0165893D01*
X0041298Y0165722D01*
X0041300Y0165550D01*
X0041298Y0165378D01*
X0041292Y0165207D01*
X0041281Y0165035D01*
X0041266Y0164864D01*
X0041247Y0164693D01*
X0041224Y0164523D01*
X0041197Y0164353D01*
X0041165Y0164184D01*
X0041130Y0164016D01*
X0041090Y0163849D01*
X0041046Y0163683D01*
X0040999Y0163518D01*
X0040947Y0163354D01*
X0040891Y0163192D01*
X0040831Y0163031D01*
X0040767Y0162871D01*
X0040699Y0162713D01*
X0040628Y0162557D01*
X0040553Y0162403D01*
X0040473Y0162250D01*
X0040391Y0162100D01*
X0040304Y0161951D01*
X0040214Y0161805D01*
X0040120Y0161661D01*
X0040023Y0161519D01*
X0039922Y0161380D01*
X0039818Y0161243D01*
X0039711Y0161109D01*
X0039600Y0160978D01*
X0039487Y0160849D01*
X0039370Y0160723D01*
X0039250Y0160600D01*
X0039127Y0160480D01*
X0039001Y0160363D01*
X0038872Y0160250D01*
X0038741Y0160139D01*
X0038607Y0160032D01*
X0038470Y0159928D01*
X0038331Y0159827D01*
X0038189Y0159730D01*
X0038045Y0159636D01*
X0037899Y0159546D01*
X0037750Y0159459D01*
X0037600Y0159377D01*
X0037447Y0159297D01*
X0037293Y0159222D01*
X0037137Y0159151D01*
X0036979Y0159083D01*
X0036819Y0159019D01*
X0036658Y0158959D01*
X0036496Y0158903D01*
X0036332Y0158851D01*
X0036167Y0158804D01*
X0036001Y0158760D01*
X0035834Y0158720D01*
X0035666Y0158685D01*
X0035497Y0158653D01*
X0035327Y0158626D01*
X0035157Y0158603D01*
X0034986Y0158584D01*
X0034815Y0158569D01*
X0034643Y0158558D01*
X0034472Y0158552D01*
X0034300Y0158550D01*
X0034128Y0158552D01*
X0033957Y0158558D01*
X0033785Y0158569D01*
X0033614Y0158584D01*
X0033443Y0158603D01*
X0033273Y0158626D01*
X0033103Y0158653D01*
X0032934Y0158685D01*
X0032766Y0158720D01*
X0032599Y0158760D01*
X0032433Y0158804D01*
X0032268Y0158851D01*
X0032104Y0158903D01*
X0031942Y0158959D01*
X0031781Y0159019D01*
X0031621Y0159083D01*
X0031463Y0159151D01*
X0031307Y0159222D01*
X0031153Y0159297D01*
X0031000Y0159377D01*
X0030850Y0159459D01*
X0030701Y0159546D01*
X0030555Y0159636D01*
X0030411Y0159730D01*
X0030269Y0159827D01*
X0030130Y0159928D01*
X0029993Y0160032D01*
X0029859Y0160139D01*
X0029728Y0160250D01*
X0029599Y0160363D01*
X0029473Y0160480D01*
X0029350Y0160600D01*
X0029230Y0160723D01*
X0029113Y0160849D01*
X0029000Y0160978D01*
X0028889Y0161109D01*
X0028782Y0161243D01*
X0028678Y0161380D01*
X0028577Y0161519D01*
X0028480Y0161661D01*
X0028386Y0161805D01*
X0028296Y0161951D01*
X0028209Y0162100D01*
X0028127Y0162250D01*
X0028047Y0162403D01*
X0027972Y0162557D01*
X0027901Y0162713D01*
X0027833Y0162871D01*
X0027769Y0163031D01*
X0027709Y0163192D01*
X0027653Y0163354D01*
X0027601Y0163518D01*
X0027554Y0163683D01*
X0027510Y0163849D01*
X0027470Y0164016D01*
X0027435Y0164184D01*
X0027403Y0164353D01*
X0027376Y0164523D01*
X0027353Y0164693D01*
X0027334Y0164864D01*
X0027319Y0165035D01*
X0027308Y0165207D01*
X0027302Y0165378D01*
X0027300Y0165550D01*
X0029300Y0186800D02*
X0024300Y0186800D01*
X0021800Y0189300D01*
X0021800Y0194300D01*
X0024300Y0196800D01*
X0029300Y0196800D01*
X0031800Y0194300D01*
X0031800Y0189300D01*
X0029300Y0186800D01*
X0076800Y0131800D02*
X0076802Y0131941D01*
X0076808Y0132082D01*
X0076818Y0132222D01*
X0076832Y0132362D01*
X0076850Y0132502D01*
X0076871Y0132641D01*
X0076897Y0132780D01*
X0076926Y0132918D01*
X0076960Y0133054D01*
X0076997Y0133190D01*
X0077038Y0133325D01*
X0077083Y0133459D01*
X0077132Y0133591D01*
X0077184Y0133722D01*
X0077240Y0133851D01*
X0077300Y0133978D01*
X0077363Y0134104D01*
X0077429Y0134228D01*
X0077500Y0134351D01*
X0077573Y0134471D01*
X0077650Y0134589D01*
X0077730Y0134705D01*
X0077814Y0134818D01*
X0077900Y0134929D01*
X0077990Y0135038D01*
X0078083Y0135144D01*
X0078178Y0135247D01*
X0078277Y0135348D01*
X0078378Y0135446D01*
X0078482Y0135541D01*
X0078589Y0135633D01*
X0078698Y0135722D01*
X0078810Y0135807D01*
X0078924Y0135890D01*
X0079040Y0135970D01*
X0079159Y0136046D01*
X0079280Y0136118D01*
X0079402Y0136188D01*
X0079527Y0136253D01*
X0079653Y0136316D01*
X0079781Y0136374D01*
X0079911Y0136429D01*
X0080042Y0136481D01*
X0080175Y0136528D01*
X0080309Y0136572D01*
X0080444Y0136613D01*
X0080580Y0136649D01*
X0080717Y0136681D01*
X0080855Y0136710D01*
X0080993Y0136735D01*
X0081133Y0136755D01*
X0081273Y0136772D01*
X0081413Y0136785D01*
X0081554Y0136794D01*
X0081694Y0136799D01*
X0081835Y0136800D01*
X0081976Y0136797D01*
X0082117Y0136790D01*
X0082257Y0136779D01*
X0082397Y0136764D01*
X0082537Y0136745D01*
X0082676Y0136723D01*
X0082814Y0136696D01*
X0082952Y0136666D01*
X0083088Y0136631D01*
X0083224Y0136593D01*
X0083358Y0136551D01*
X0083492Y0136505D01*
X0083624Y0136456D01*
X0083754Y0136402D01*
X0083883Y0136345D01*
X0084010Y0136285D01*
X0084136Y0136221D01*
X0084259Y0136153D01*
X0084381Y0136082D01*
X0084501Y0136008D01*
X0084618Y0135930D01*
X0084733Y0135849D01*
X0084846Y0135765D01*
X0084957Y0135678D01*
X0085065Y0135587D01*
X0085170Y0135494D01*
X0085273Y0135397D01*
X0085373Y0135298D01*
X0085470Y0135196D01*
X0085564Y0135091D01*
X0085655Y0134984D01*
X0085743Y0134874D01*
X0085828Y0134762D01*
X0085910Y0134647D01*
X0085989Y0134530D01*
X0086064Y0134411D01*
X0086136Y0134290D01*
X0086204Y0134167D01*
X0086269Y0134042D01*
X0086331Y0133915D01*
X0086388Y0133786D01*
X0086443Y0133656D01*
X0086493Y0133525D01*
X0086540Y0133392D01*
X0086583Y0133258D01*
X0086622Y0133122D01*
X0086657Y0132986D01*
X0086689Y0132849D01*
X0086716Y0132711D01*
X0086740Y0132572D01*
X0086760Y0132432D01*
X0086776Y0132292D01*
X0086788Y0132152D01*
X0086796Y0132011D01*
X0086800Y0131870D01*
X0086800Y0131730D01*
X0086796Y0131589D01*
X0086788Y0131448D01*
X0086776Y0131308D01*
X0086760Y0131168D01*
X0086740Y0131028D01*
X0086716Y0130889D01*
X0086689Y0130751D01*
X0086657Y0130614D01*
X0086622Y0130478D01*
X0086583Y0130342D01*
X0086540Y0130208D01*
X0086493Y0130075D01*
X0086443Y0129944D01*
X0086388Y0129814D01*
X0086331Y0129685D01*
X0086269Y0129558D01*
X0086204Y0129433D01*
X0086136Y0129310D01*
X0086064Y0129189D01*
X0085989Y0129070D01*
X0085910Y0128953D01*
X0085828Y0128838D01*
X0085743Y0128726D01*
X0085655Y0128616D01*
X0085564Y0128509D01*
X0085470Y0128404D01*
X0085373Y0128302D01*
X0085273Y0128203D01*
X0085170Y0128106D01*
X0085065Y0128013D01*
X0084957Y0127922D01*
X0084846Y0127835D01*
X0084733Y0127751D01*
X0084618Y0127670D01*
X0084501Y0127592D01*
X0084381Y0127518D01*
X0084259Y0127447D01*
X0084136Y0127379D01*
X0084010Y0127315D01*
X0083883Y0127255D01*
X0083754Y0127198D01*
X0083624Y0127144D01*
X0083492Y0127095D01*
X0083358Y0127049D01*
X0083224Y0127007D01*
X0083088Y0126969D01*
X0082952Y0126934D01*
X0082814Y0126904D01*
X0082676Y0126877D01*
X0082537Y0126855D01*
X0082397Y0126836D01*
X0082257Y0126821D01*
X0082117Y0126810D01*
X0081976Y0126803D01*
X0081835Y0126800D01*
X0081694Y0126801D01*
X0081554Y0126806D01*
X0081413Y0126815D01*
X0081273Y0126828D01*
X0081133Y0126845D01*
X0080993Y0126865D01*
X0080855Y0126890D01*
X0080717Y0126919D01*
X0080580Y0126951D01*
X0080444Y0126987D01*
X0080309Y0127028D01*
X0080175Y0127072D01*
X0080042Y0127119D01*
X0079911Y0127171D01*
X0079781Y0127226D01*
X0079653Y0127284D01*
X0079527Y0127347D01*
X0079402Y0127412D01*
X0079280Y0127482D01*
X0079159Y0127554D01*
X0079040Y0127630D01*
X0078924Y0127710D01*
X0078810Y0127793D01*
X0078698Y0127878D01*
X0078589Y0127967D01*
X0078482Y0128059D01*
X0078378Y0128154D01*
X0078277Y0128252D01*
X0078178Y0128353D01*
X0078083Y0128456D01*
X0077990Y0128562D01*
X0077900Y0128671D01*
X0077814Y0128782D01*
X0077730Y0128895D01*
X0077650Y0129011D01*
X0077573Y0129129D01*
X0077500Y0129249D01*
X0077429Y0129372D01*
X0077363Y0129496D01*
X0077300Y0129622D01*
X0077240Y0129749D01*
X0077184Y0129878D01*
X0077132Y0130009D01*
X0077083Y0130141D01*
X0077038Y0130275D01*
X0076997Y0130410D01*
X0076960Y0130546D01*
X0076926Y0130682D01*
X0076897Y0130820D01*
X0076871Y0130959D01*
X0076850Y0131098D01*
X0076832Y0131238D01*
X0076818Y0131378D01*
X0076808Y0131518D01*
X0076802Y0131659D01*
X0076800Y0131800D01*
X0054300Y0131800D02*
X0054308Y0132475D01*
X0054333Y0133149D01*
X0054375Y0133823D01*
X0054432Y0134495D01*
X0054507Y0135166D01*
X0054598Y0135835D01*
X0054705Y0136501D01*
X0054828Y0137165D01*
X0054968Y0137825D01*
X0055124Y0138482D01*
X0055296Y0139135D01*
X0055484Y0139783D01*
X0055688Y0140426D01*
X0055908Y0141064D01*
X0056143Y0141697D01*
X0056393Y0142324D01*
X0056659Y0142944D01*
X0056940Y0143558D01*
X0057236Y0144164D01*
X0057547Y0144763D01*
X0057873Y0145355D01*
X0058212Y0145938D01*
X0058567Y0146512D01*
X0058935Y0147078D01*
X0059316Y0147635D01*
X0059712Y0148182D01*
X0060120Y0148719D01*
X0060542Y0149246D01*
X0060977Y0149762D01*
X0061424Y0150268D01*
X0061883Y0150762D01*
X0062355Y0151245D01*
X0062838Y0151717D01*
X0063332Y0152176D01*
X0063838Y0152623D01*
X0064354Y0153058D01*
X0064881Y0153480D01*
X0065418Y0153888D01*
X0065965Y0154284D01*
X0066522Y0154665D01*
X0067088Y0155033D01*
X0067662Y0155388D01*
X0068245Y0155727D01*
X0068837Y0156053D01*
X0069436Y0156364D01*
X0070042Y0156660D01*
X0070656Y0156941D01*
X0071276Y0157207D01*
X0071903Y0157457D01*
X0072536Y0157692D01*
X0073174Y0157912D01*
X0073817Y0158116D01*
X0074465Y0158304D01*
X0075118Y0158476D01*
X0075775Y0158632D01*
X0076435Y0158772D01*
X0077099Y0158895D01*
X0077765Y0159002D01*
X0078434Y0159093D01*
X0079105Y0159168D01*
X0079777Y0159225D01*
X0080451Y0159267D01*
X0081125Y0159292D01*
X0081800Y0159300D01*
X0082475Y0159292D01*
X0083149Y0159267D01*
X0083823Y0159225D01*
X0084495Y0159168D01*
X0085166Y0159093D01*
X0085835Y0159002D01*
X0086501Y0158895D01*
X0087165Y0158772D01*
X0087825Y0158632D01*
X0088482Y0158476D01*
X0089135Y0158304D01*
X0089783Y0158116D01*
X0090426Y0157912D01*
X0091064Y0157692D01*
X0091697Y0157457D01*
X0092324Y0157207D01*
X0092944Y0156941D01*
X0093558Y0156660D01*
X0094164Y0156364D01*
X0094763Y0156053D01*
X0095355Y0155727D01*
X0095938Y0155388D01*
X0096512Y0155033D01*
X0097078Y0154665D01*
X0097635Y0154284D01*
X0098182Y0153888D01*
X0098719Y0153480D01*
X0099246Y0153058D01*
X0099762Y0152623D01*
X0100268Y0152176D01*
X0100762Y0151717D01*
X0101245Y0151245D01*
X0101717Y0150762D01*
X0102176Y0150268D01*
X0102623Y0149762D01*
X0103058Y0149246D01*
X0103480Y0148719D01*
X0103888Y0148182D01*
X0104284Y0147635D01*
X0104665Y0147078D01*
X0105033Y0146512D01*
X0105388Y0145938D01*
X0105727Y0145355D01*
X0106053Y0144763D01*
X0106364Y0144164D01*
X0106660Y0143558D01*
X0106941Y0142944D01*
X0107207Y0142324D01*
X0107457Y0141697D01*
X0107692Y0141064D01*
X0107912Y0140426D01*
X0108116Y0139783D01*
X0108304Y0139135D01*
X0108476Y0138482D01*
X0108632Y0137825D01*
X0108772Y0137165D01*
X0108895Y0136501D01*
X0109002Y0135835D01*
X0109093Y0135166D01*
X0109168Y0134495D01*
X0109225Y0133823D01*
X0109267Y0133149D01*
X0109292Y0132475D01*
X0109300Y0131800D01*
X0109292Y0131125D01*
X0109267Y0130451D01*
X0109225Y0129777D01*
X0109168Y0129105D01*
X0109093Y0128434D01*
X0109002Y0127765D01*
X0108895Y0127099D01*
X0108772Y0126435D01*
X0108632Y0125775D01*
X0108476Y0125118D01*
X0108304Y0124465D01*
X0108116Y0123817D01*
X0107912Y0123174D01*
X0107692Y0122536D01*
X0107457Y0121903D01*
X0107207Y0121276D01*
X0106941Y0120656D01*
X0106660Y0120042D01*
X0106364Y0119436D01*
X0106053Y0118837D01*
X0105727Y0118245D01*
X0105388Y0117662D01*
X0105033Y0117088D01*
X0104665Y0116522D01*
X0104284Y0115965D01*
X0103888Y0115418D01*
X0103480Y0114881D01*
X0103058Y0114354D01*
X0102623Y0113838D01*
X0102176Y0113332D01*
X0101717Y0112838D01*
X0101245Y0112355D01*
X0100762Y0111883D01*
X0100268Y0111424D01*
X0099762Y0110977D01*
X0099246Y0110542D01*
X0098719Y0110120D01*
X0098182Y0109712D01*
X0097635Y0109316D01*
X0097078Y0108935D01*
X0096512Y0108567D01*
X0095938Y0108212D01*
X0095355Y0107873D01*
X0094763Y0107547D01*
X0094164Y0107236D01*
X0093558Y0106940D01*
X0092944Y0106659D01*
X0092324Y0106393D01*
X0091697Y0106143D01*
X0091064Y0105908D01*
X0090426Y0105688D01*
X0089783Y0105484D01*
X0089135Y0105296D01*
X0088482Y0105124D01*
X0087825Y0104968D01*
X0087165Y0104828D01*
X0086501Y0104705D01*
X0085835Y0104598D01*
X0085166Y0104507D01*
X0084495Y0104432D01*
X0083823Y0104375D01*
X0083149Y0104333D01*
X0082475Y0104308D01*
X0081800Y0104300D01*
X0081125Y0104308D01*
X0080451Y0104333D01*
X0079777Y0104375D01*
X0079105Y0104432D01*
X0078434Y0104507D01*
X0077765Y0104598D01*
X0077099Y0104705D01*
X0076435Y0104828D01*
X0075775Y0104968D01*
X0075118Y0105124D01*
X0074465Y0105296D01*
X0073817Y0105484D01*
X0073174Y0105688D01*
X0072536Y0105908D01*
X0071903Y0106143D01*
X0071276Y0106393D01*
X0070656Y0106659D01*
X0070042Y0106940D01*
X0069436Y0107236D01*
X0068837Y0107547D01*
X0068245Y0107873D01*
X0067662Y0108212D01*
X0067088Y0108567D01*
X0066522Y0108935D01*
X0065965Y0109316D01*
X0065418Y0109712D01*
X0064881Y0110120D01*
X0064354Y0110542D01*
X0063838Y0110977D01*
X0063332Y0111424D01*
X0062838Y0111883D01*
X0062355Y0112355D01*
X0061883Y0112838D01*
X0061424Y0113332D01*
X0060977Y0113838D01*
X0060542Y0114354D01*
X0060120Y0114881D01*
X0059712Y0115418D01*
X0059316Y0115965D01*
X0058935Y0116522D01*
X0058567Y0117088D01*
X0058212Y0117662D01*
X0057873Y0118245D01*
X0057547Y0118837D01*
X0057236Y0119436D01*
X0056940Y0120042D01*
X0056659Y0120656D01*
X0056393Y0121276D01*
X0056143Y0121903D01*
X0055908Y0122536D01*
X0055688Y0123174D01*
X0055484Y0123817D01*
X0055296Y0124465D01*
X0055124Y0125118D01*
X0054968Y0125775D01*
X0054828Y0126435D01*
X0054705Y0127099D01*
X0054598Y0127765D01*
X0054507Y0128434D01*
X0054432Y0129105D01*
X0054375Y0129777D01*
X0054333Y0130451D01*
X0054308Y0131125D01*
X0054300Y0131800D01*
X0049300Y0131300D02*
X0049300Y0122300D01*
X0049300Y0111300D02*
X0049300Y0108800D01*
X0049298Y0108724D01*
X0049292Y0108648D01*
X0049283Y0108573D01*
X0049269Y0108498D01*
X0049252Y0108424D01*
X0049231Y0108351D01*
X0049207Y0108279D01*
X0049178Y0108208D01*
X0049147Y0108139D01*
X0049112Y0108072D01*
X0049073Y0108007D01*
X0049031Y0107943D01*
X0048986Y0107882D01*
X0048938Y0107823D01*
X0048887Y0107767D01*
X0048833Y0107713D01*
X0048777Y0107662D01*
X0048718Y0107614D01*
X0048657Y0107569D01*
X0048593Y0107527D01*
X0048528Y0107488D01*
X0048461Y0107453D01*
X0048392Y0107422D01*
X0048321Y0107393D01*
X0048249Y0107369D01*
X0048176Y0107348D01*
X0048102Y0107331D01*
X0048027Y0107317D01*
X0047952Y0107308D01*
X0047876Y0107302D01*
X0047800Y0107300D01*
X0091800Y0143800D02*
X0091802Y0143941D01*
X0091808Y0144082D01*
X0091818Y0144222D01*
X0091832Y0144362D01*
X0091850Y0144502D01*
X0091871Y0144641D01*
X0091897Y0144780D01*
X0091926Y0144918D01*
X0091960Y0145054D01*
X0091997Y0145190D01*
X0092038Y0145325D01*
X0092083Y0145459D01*
X0092132Y0145591D01*
X0092184Y0145722D01*
X0092240Y0145851D01*
X0092300Y0145978D01*
X0092363Y0146104D01*
X0092429Y0146228D01*
X0092500Y0146351D01*
X0092573Y0146471D01*
X0092650Y0146589D01*
X0092730Y0146705D01*
X0092814Y0146818D01*
X0092900Y0146929D01*
X0092990Y0147038D01*
X0093083Y0147144D01*
X0093178Y0147247D01*
X0093277Y0147348D01*
X0093378Y0147446D01*
X0093482Y0147541D01*
X0093589Y0147633D01*
X0093698Y0147722D01*
X0093810Y0147807D01*
X0093924Y0147890D01*
X0094040Y0147970D01*
X0094159Y0148046D01*
X0094280Y0148118D01*
X0094402Y0148188D01*
X0094527Y0148253D01*
X0094653Y0148316D01*
X0094781Y0148374D01*
X0094911Y0148429D01*
X0095042Y0148481D01*
X0095175Y0148528D01*
X0095309Y0148572D01*
X0095444Y0148613D01*
X0095580Y0148649D01*
X0095717Y0148681D01*
X0095855Y0148710D01*
X0095993Y0148735D01*
X0096133Y0148755D01*
X0096273Y0148772D01*
X0096413Y0148785D01*
X0096554Y0148794D01*
X0096694Y0148799D01*
X0096835Y0148800D01*
X0096976Y0148797D01*
X0097117Y0148790D01*
X0097257Y0148779D01*
X0097397Y0148764D01*
X0097537Y0148745D01*
X0097676Y0148723D01*
X0097814Y0148696D01*
X0097952Y0148666D01*
X0098088Y0148631D01*
X0098224Y0148593D01*
X0098358Y0148551D01*
X0098492Y0148505D01*
X0098624Y0148456D01*
X0098754Y0148402D01*
X0098883Y0148345D01*
X0099010Y0148285D01*
X0099136Y0148221D01*
X0099259Y0148153D01*
X0099381Y0148082D01*
X0099501Y0148008D01*
X0099618Y0147930D01*
X0099733Y0147849D01*
X0099846Y0147765D01*
X0099957Y0147678D01*
X0100065Y0147587D01*
X0100170Y0147494D01*
X0100273Y0147397D01*
X0100373Y0147298D01*
X0100470Y0147196D01*
X0100564Y0147091D01*
X0100655Y0146984D01*
X0100743Y0146874D01*
X0100828Y0146762D01*
X0100910Y0146647D01*
X0100989Y0146530D01*
X0101064Y0146411D01*
X0101136Y0146290D01*
X0101204Y0146167D01*
X0101269Y0146042D01*
X0101331Y0145915D01*
X0101388Y0145786D01*
X0101443Y0145656D01*
X0101493Y0145525D01*
X0101540Y0145392D01*
X0101583Y0145258D01*
X0101622Y0145122D01*
X0101657Y0144986D01*
X0101689Y0144849D01*
X0101716Y0144711D01*
X0101740Y0144572D01*
X0101760Y0144432D01*
X0101776Y0144292D01*
X0101788Y0144152D01*
X0101796Y0144011D01*
X0101800Y0143870D01*
X0101800Y0143730D01*
X0101796Y0143589D01*
X0101788Y0143448D01*
X0101776Y0143308D01*
X0101760Y0143168D01*
X0101740Y0143028D01*
X0101716Y0142889D01*
X0101689Y0142751D01*
X0101657Y0142614D01*
X0101622Y0142478D01*
X0101583Y0142342D01*
X0101540Y0142208D01*
X0101493Y0142075D01*
X0101443Y0141944D01*
X0101388Y0141814D01*
X0101331Y0141685D01*
X0101269Y0141558D01*
X0101204Y0141433D01*
X0101136Y0141310D01*
X0101064Y0141189D01*
X0100989Y0141070D01*
X0100910Y0140953D01*
X0100828Y0140838D01*
X0100743Y0140726D01*
X0100655Y0140616D01*
X0100564Y0140509D01*
X0100470Y0140404D01*
X0100373Y0140302D01*
X0100273Y0140203D01*
X0100170Y0140106D01*
X0100065Y0140013D01*
X0099957Y0139922D01*
X0099846Y0139835D01*
X0099733Y0139751D01*
X0099618Y0139670D01*
X0099501Y0139592D01*
X0099381Y0139518D01*
X0099259Y0139447D01*
X0099136Y0139379D01*
X0099010Y0139315D01*
X0098883Y0139255D01*
X0098754Y0139198D01*
X0098624Y0139144D01*
X0098492Y0139095D01*
X0098358Y0139049D01*
X0098224Y0139007D01*
X0098088Y0138969D01*
X0097952Y0138934D01*
X0097814Y0138904D01*
X0097676Y0138877D01*
X0097537Y0138855D01*
X0097397Y0138836D01*
X0097257Y0138821D01*
X0097117Y0138810D01*
X0096976Y0138803D01*
X0096835Y0138800D01*
X0096694Y0138801D01*
X0096554Y0138806D01*
X0096413Y0138815D01*
X0096273Y0138828D01*
X0096133Y0138845D01*
X0095993Y0138865D01*
X0095855Y0138890D01*
X0095717Y0138919D01*
X0095580Y0138951D01*
X0095444Y0138987D01*
X0095309Y0139028D01*
X0095175Y0139072D01*
X0095042Y0139119D01*
X0094911Y0139171D01*
X0094781Y0139226D01*
X0094653Y0139284D01*
X0094527Y0139347D01*
X0094402Y0139412D01*
X0094280Y0139482D01*
X0094159Y0139554D01*
X0094040Y0139630D01*
X0093924Y0139710D01*
X0093810Y0139793D01*
X0093698Y0139878D01*
X0093589Y0139967D01*
X0093482Y0140059D01*
X0093378Y0140154D01*
X0093277Y0140252D01*
X0093178Y0140353D01*
X0093083Y0140456D01*
X0092990Y0140562D01*
X0092900Y0140671D01*
X0092814Y0140782D01*
X0092730Y0140895D01*
X0092650Y0141011D01*
X0092573Y0141129D01*
X0092500Y0141249D01*
X0092429Y0141372D01*
X0092363Y0141496D01*
X0092300Y0141622D01*
X0092240Y0141749D01*
X0092184Y0141878D01*
X0092132Y0142009D01*
X0092083Y0142141D01*
X0092038Y0142275D01*
X0091997Y0142410D01*
X0091960Y0142546D01*
X0091926Y0142682D01*
X0091897Y0142820D01*
X0091871Y0142959D01*
X0091850Y0143098D01*
X0091832Y0143238D01*
X0091818Y0143378D01*
X0091808Y0143518D01*
X0091802Y0143659D01*
X0091800Y0143800D01*
X0112800Y0142800D02*
X0112800Y0121800D01*
X0112940Y0121798D01*
X0113080Y0121792D01*
X0113220Y0121782D01*
X0113360Y0121769D01*
X0113499Y0121751D01*
X0113638Y0121729D01*
X0113775Y0121704D01*
X0113913Y0121675D01*
X0114049Y0121642D01*
X0114184Y0121605D01*
X0114318Y0121564D01*
X0114451Y0121519D01*
X0114583Y0121471D01*
X0114713Y0121419D01*
X0114842Y0121364D01*
X0114969Y0121305D01*
X0115095Y0121242D01*
X0115219Y0121176D01*
X0115340Y0121107D01*
X0115460Y0121034D01*
X0115578Y0120957D01*
X0115693Y0120878D01*
X0115807Y0120795D01*
X0115917Y0120709D01*
X0116026Y0120620D01*
X0116132Y0120528D01*
X0116235Y0120433D01*
X0116336Y0120336D01*
X0116433Y0120235D01*
X0116528Y0120132D01*
X0116620Y0120026D01*
X0116709Y0119917D01*
X0116795Y0119807D01*
X0116878Y0119693D01*
X0116957Y0119578D01*
X0117034Y0119460D01*
X0117107Y0119340D01*
X0117176Y0119219D01*
X0117242Y0119095D01*
X0117305Y0118969D01*
X0117364Y0118842D01*
X0117419Y0118713D01*
X0117471Y0118583D01*
X0117519Y0118451D01*
X0117564Y0118318D01*
X0117605Y0118184D01*
X0117642Y0118049D01*
X0117675Y0117913D01*
X0117704Y0117775D01*
X0117729Y0117638D01*
X0117751Y0117499D01*
X0117769Y0117360D01*
X0117782Y0117220D01*
X0117792Y0117080D01*
X0117798Y0116940D01*
X0117800Y0116800D01*
X0117798Y0116660D01*
X0117792Y0116520D01*
X0117782Y0116380D01*
X0117769Y0116240D01*
X0117751Y0116101D01*
X0117729Y0115962D01*
X0117704Y0115825D01*
X0117675Y0115687D01*
X0117642Y0115551D01*
X0117605Y0115416D01*
X0117564Y0115282D01*
X0117519Y0115149D01*
X0117471Y0115017D01*
X0117419Y0114887D01*
X0117364Y0114758D01*
X0117305Y0114631D01*
X0117242Y0114505D01*
X0117176Y0114381D01*
X0117107Y0114260D01*
X0117034Y0114140D01*
X0116957Y0114022D01*
X0116878Y0113907D01*
X0116795Y0113793D01*
X0116709Y0113683D01*
X0116620Y0113574D01*
X0116528Y0113468D01*
X0116433Y0113365D01*
X0116336Y0113264D01*
X0116235Y0113167D01*
X0116132Y0113072D01*
X0116026Y0112980D01*
X0115917Y0112891D01*
X0115807Y0112805D01*
X0115693Y0112722D01*
X0115578Y0112643D01*
X0115460Y0112566D01*
X0115340Y0112493D01*
X0115219Y0112424D01*
X0115095Y0112358D01*
X0114969Y0112295D01*
X0114842Y0112236D01*
X0114713Y0112181D01*
X0114583Y0112129D01*
X0114451Y0112081D01*
X0114318Y0112036D01*
X0114184Y0111995D01*
X0114049Y0111958D01*
X0113913Y0111925D01*
X0113775Y0111896D01*
X0113638Y0111871D01*
X0113499Y0111849D01*
X0113360Y0111831D01*
X0113220Y0111818D01*
X0113080Y0111808D01*
X0112940Y0111802D01*
X0112800Y0111800D01*
X0112800Y0090800D01*
X0320800Y0090800D01*
X0320800Y0142800D01*
X0112800Y0142800D01*
X0109550Y0198050D02*
X0086550Y0198050D01*
X0086550Y0268050D01*
X0094050Y0268050D01*
X0094052Y0267924D01*
X0094058Y0267799D01*
X0094068Y0267674D01*
X0094082Y0267549D01*
X0094099Y0267424D01*
X0094121Y0267300D01*
X0094146Y0267177D01*
X0094176Y0267055D01*
X0094209Y0266934D01*
X0094246Y0266814D01*
X0094286Y0266695D01*
X0094331Y0266578D01*
X0094379Y0266461D01*
X0094431Y0266347D01*
X0094486Y0266234D01*
X0094545Y0266123D01*
X0094607Y0266014D01*
X0094673Y0265907D01*
X0094742Y0265802D01*
X0094814Y0265699D01*
X0094889Y0265598D01*
X0094968Y0265500D01*
X0095050Y0265405D01*
X0095134Y0265312D01*
X0095222Y0265222D01*
X0095312Y0265134D01*
X0095405Y0265050D01*
X0095500Y0264968D01*
X0095598Y0264889D01*
X0095699Y0264814D01*
X0095802Y0264742D01*
X0095907Y0264673D01*
X0096014Y0264607D01*
X0096123Y0264545D01*
X0096234Y0264486D01*
X0096347Y0264431D01*
X0096461Y0264379D01*
X0096578Y0264331D01*
X0096695Y0264286D01*
X0096814Y0264246D01*
X0096934Y0264209D01*
X0097055Y0264176D01*
X0097177Y0264146D01*
X0097300Y0264121D01*
X0097424Y0264099D01*
X0097549Y0264082D01*
X0097674Y0264068D01*
X0097799Y0264058D01*
X0097924Y0264052D01*
X0098050Y0264050D01*
X0098176Y0264052D01*
X0098301Y0264058D01*
X0098426Y0264068D01*
X0098551Y0264082D01*
X0098676Y0264099D01*
X0098800Y0264121D01*
X0098923Y0264146D01*
X0099045Y0264176D01*
X0099166Y0264209D01*
X0099286Y0264246D01*
X0099405Y0264286D01*
X0099522Y0264331D01*
X0099639Y0264379D01*
X0099753Y0264431D01*
X0099866Y0264486D01*
X0099977Y0264545D01*
X0100086Y0264607D01*
X0100193Y0264673D01*
X0100298Y0264742D01*
X0100401Y0264814D01*
X0100502Y0264889D01*
X0100600Y0264968D01*
X0100695Y0265050D01*
X0100788Y0265134D01*
X0100878Y0265222D01*
X0100966Y0265312D01*
X0101050Y0265405D01*
X0101132Y0265500D01*
X0101211Y0265598D01*
X0101286Y0265699D01*
X0101358Y0265802D01*
X0101427Y0265907D01*
X0101493Y0266014D01*
X0101555Y0266123D01*
X0101614Y0266234D01*
X0101669Y0266347D01*
X0101721Y0266461D01*
X0101769Y0266578D01*
X0101814Y0266695D01*
X0101854Y0266814D01*
X0101891Y0266934D01*
X0101924Y0267055D01*
X0101954Y0267177D01*
X0101979Y0267300D01*
X0102001Y0267424D01*
X0102018Y0267549D01*
X0102032Y0267674D01*
X0102042Y0267799D01*
X0102048Y0267924D01*
X0102050Y0268050D01*
X0109550Y0268050D01*
X0109550Y0198050D01*
X0031800Y0249300D02*
X0029300Y0246800D01*
X0024300Y0246800D01*
X0021800Y0249300D01*
X0021800Y0254300D01*
X0024300Y0256800D01*
X0029300Y0256800D01*
X0031800Y0254300D01*
X0031800Y0249300D01*
X0038936Y0344792D02*
X0038938Y0344923D01*
X0038944Y0345055D01*
X0038954Y0345186D01*
X0038968Y0345317D01*
X0038986Y0345447D01*
X0039008Y0345576D01*
X0039033Y0345705D01*
X0039063Y0345833D01*
X0039097Y0345960D01*
X0039134Y0346087D01*
X0039175Y0346211D01*
X0039220Y0346335D01*
X0039269Y0346457D01*
X0039321Y0346578D01*
X0039377Y0346696D01*
X0039437Y0346814D01*
X0039500Y0346929D01*
X0039567Y0347042D01*
X0039637Y0347154D01*
X0039710Y0347263D01*
X0039786Y0347369D01*
X0039866Y0347474D01*
X0039949Y0347576D01*
X0040035Y0347675D01*
X0040124Y0347772D01*
X0040216Y0347866D01*
X0040311Y0347957D01*
X0040408Y0348046D01*
X0040508Y0348131D01*
X0040611Y0348213D01*
X0040716Y0348292D01*
X0040823Y0348368D01*
X0040933Y0348440D01*
X0041045Y0348509D01*
X0041159Y0348575D01*
X0041274Y0348637D01*
X0041392Y0348696D01*
X0041511Y0348751D01*
X0041632Y0348803D01*
X0041755Y0348850D01*
X0041879Y0348894D01*
X0042004Y0348935D01*
X0042130Y0348971D01*
X0042258Y0349004D01*
X0042386Y0349032D01*
X0042515Y0349057D01*
X0042645Y0349078D01*
X0042775Y0349095D01*
X0042906Y0349108D01*
X0043037Y0349117D01*
X0043168Y0349122D01*
X0043300Y0349123D01*
X0043431Y0349120D01*
X0043563Y0349113D01*
X0043694Y0349102D01*
X0043824Y0349087D01*
X0043954Y0349068D01*
X0044084Y0349045D01*
X0044212Y0349019D01*
X0044340Y0348988D01*
X0044467Y0348953D01*
X0044593Y0348915D01*
X0044717Y0348873D01*
X0044841Y0348827D01*
X0044962Y0348777D01*
X0045082Y0348724D01*
X0045201Y0348667D01*
X0045318Y0348607D01*
X0045432Y0348543D01*
X0045545Y0348475D01*
X0045656Y0348404D01*
X0045765Y0348330D01*
X0045871Y0348253D01*
X0045975Y0348172D01*
X0046076Y0348089D01*
X0046175Y0348002D01*
X0046271Y0347912D01*
X0046364Y0347819D01*
X0046455Y0347724D01*
X0046542Y0347626D01*
X0046627Y0347525D01*
X0046708Y0347422D01*
X0046786Y0347316D01*
X0046861Y0347208D01*
X0046933Y0347098D01*
X0047001Y0346986D01*
X0047066Y0346872D01*
X0047127Y0346755D01*
X0047185Y0346637D01*
X0047239Y0346517D01*
X0047290Y0346396D01*
X0047337Y0346273D01*
X0047380Y0346149D01*
X0047419Y0346024D01*
X0047455Y0345897D01*
X0047486Y0345769D01*
X0047514Y0345641D01*
X0047538Y0345512D01*
X0047558Y0345382D01*
X0047574Y0345251D01*
X0047586Y0345120D01*
X0047594Y0344989D01*
X0047598Y0344858D01*
X0047598Y0344726D01*
X0047594Y0344595D01*
X0047586Y0344464D01*
X0047574Y0344333D01*
X0047558Y0344202D01*
X0047538Y0344072D01*
X0047514Y0343943D01*
X0047486Y0343815D01*
X0047455Y0343687D01*
X0047419Y0343560D01*
X0047380Y0343435D01*
X0047337Y0343311D01*
X0047290Y0343188D01*
X0047239Y0343067D01*
X0047185Y0342947D01*
X0047127Y0342829D01*
X0047066Y0342712D01*
X0047001Y0342598D01*
X0046933Y0342486D01*
X0046861Y0342376D01*
X0046786Y0342268D01*
X0046708Y0342162D01*
X0046627Y0342059D01*
X0046542Y0341958D01*
X0046455Y0341860D01*
X0046364Y0341765D01*
X0046271Y0341672D01*
X0046175Y0341582D01*
X0046076Y0341495D01*
X0045975Y0341412D01*
X0045871Y0341331D01*
X0045765Y0341254D01*
X0045656Y0341180D01*
X0045545Y0341109D01*
X0045433Y0341041D01*
X0045318Y0340977D01*
X0045201Y0340917D01*
X0045082Y0340860D01*
X0044962Y0340807D01*
X0044841Y0340757D01*
X0044717Y0340711D01*
X0044593Y0340669D01*
X0044467Y0340631D01*
X0044340Y0340596D01*
X0044212Y0340565D01*
X0044084Y0340539D01*
X0043954Y0340516D01*
X0043824Y0340497D01*
X0043694Y0340482D01*
X0043563Y0340471D01*
X0043431Y0340464D01*
X0043300Y0340461D01*
X0043168Y0340462D01*
X0043037Y0340467D01*
X0042906Y0340476D01*
X0042775Y0340489D01*
X0042645Y0340506D01*
X0042515Y0340527D01*
X0042386Y0340552D01*
X0042258Y0340580D01*
X0042130Y0340613D01*
X0042004Y0340649D01*
X0041879Y0340690D01*
X0041755Y0340734D01*
X0041632Y0340781D01*
X0041511Y0340833D01*
X0041392Y0340888D01*
X0041274Y0340947D01*
X0041159Y0341009D01*
X0041045Y0341075D01*
X0040933Y0341144D01*
X0040823Y0341216D01*
X0040716Y0341292D01*
X0040611Y0341371D01*
X0040508Y0341453D01*
X0040408Y0341538D01*
X0040311Y0341627D01*
X0040216Y0341718D01*
X0040124Y0341812D01*
X0040035Y0341909D01*
X0039949Y0342008D01*
X0039866Y0342110D01*
X0039786Y0342215D01*
X0039710Y0342321D01*
X0039637Y0342430D01*
X0039567Y0342542D01*
X0039500Y0342655D01*
X0039437Y0342770D01*
X0039377Y0342888D01*
X0039321Y0343006D01*
X0039269Y0343127D01*
X0039220Y0343249D01*
X0039175Y0343373D01*
X0039134Y0343497D01*
X0039097Y0343624D01*
X0039063Y0343751D01*
X0039033Y0343879D01*
X0039008Y0344008D01*
X0038986Y0344137D01*
X0038968Y0344267D01*
X0038954Y0344398D01*
X0038944Y0344529D01*
X0038938Y0344661D01*
X0038936Y0344792D01*
X0066436Y0344792D02*
X0066438Y0344923D01*
X0066444Y0345055D01*
X0066454Y0345186D01*
X0066468Y0345317D01*
X0066486Y0345447D01*
X0066508Y0345576D01*
X0066533Y0345705D01*
X0066563Y0345833D01*
X0066597Y0345960D01*
X0066634Y0346087D01*
X0066675Y0346211D01*
X0066720Y0346335D01*
X0066769Y0346457D01*
X0066821Y0346578D01*
X0066877Y0346696D01*
X0066937Y0346814D01*
X0067000Y0346929D01*
X0067067Y0347042D01*
X0067137Y0347154D01*
X0067210Y0347263D01*
X0067286Y0347369D01*
X0067366Y0347474D01*
X0067449Y0347576D01*
X0067535Y0347675D01*
X0067624Y0347772D01*
X0067716Y0347866D01*
X0067811Y0347957D01*
X0067908Y0348046D01*
X0068008Y0348131D01*
X0068111Y0348213D01*
X0068216Y0348292D01*
X0068323Y0348368D01*
X0068433Y0348440D01*
X0068545Y0348509D01*
X0068659Y0348575D01*
X0068774Y0348637D01*
X0068892Y0348696D01*
X0069011Y0348751D01*
X0069132Y0348803D01*
X0069255Y0348850D01*
X0069379Y0348894D01*
X0069504Y0348935D01*
X0069630Y0348971D01*
X0069758Y0349004D01*
X0069886Y0349032D01*
X0070015Y0349057D01*
X0070145Y0349078D01*
X0070275Y0349095D01*
X0070406Y0349108D01*
X0070537Y0349117D01*
X0070668Y0349122D01*
X0070800Y0349123D01*
X0070931Y0349120D01*
X0071063Y0349113D01*
X0071194Y0349102D01*
X0071324Y0349087D01*
X0071454Y0349068D01*
X0071584Y0349045D01*
X0071712Y0349019D01*
X0071840Y0348988D01*
X0071967Y0348953D01*
X0072093Y0348915D01*
X0072217Y0348873D01*
X0072341Y0348827D01*
X0072462Y0348777D01*
X0072582Y0348724D01*
X0072701Y0348667D01*
X0072818Y0348607D01*
X0072932Y0348543D01*
X0073045Y0348475D01*
X0073156Y0348404D01*
X0073265Y0348330D01*
X0073371Y0348253D01*
X0073475Y0348172D01*
X0073576Y0348089D01*
X0073675Y0348002D01*
X0073771Y0347912D01*
X0073864Y0347819D01*
X0073955Y0347724D01*
X0074042Y0347626D01*
X0074127Y0347525D01*
X0074208Y0347422D01*
X0074286Y0347316D01*
X0074361Y0347208D01*
X0074433Y0347098D01*
X0074501Y0346986D01*
X0074566Y0346872D01*
X0074627Y0346755D01*
X0074685Y0346637D01*
X0074739Y0346517D01*
X0074790Y0346396D01*
X0074837Y0346273D01*
X0074880Y0346149D01*
X0074919Y0346024D01*
X0074955Y0345897D01*
X0074986Y0345769D01*
X0075014Y0345641D01*
X0075038Y0345512D01*
X0075058Y0345382D01*
X0075074Y0345251D01*
X0075086Y0345120D01*
X0075094Y0344989D01*
X0075098Y0344858D01*
X0075098Y0344726D01*
X0075094Y0344595D01*
X0075086Y0344464D01*
X0075074Y0344333D01*
X0075058Y0344202D01*
X0075038Y0344072D01*
X0075014Y0343943D01*
X0074986Y0343815D01*
X0074955Y0343687D01*
X0074919Y0343560D01*
X0074880Y0343435D01*
X0074837Y0343311D01*
X0074790Y0343188D01*
X0074739Y0343067D01*
X0074685Y0342947D01*
X0074627Y0342829D01*
X0074566Y0342712D01*
X0074501Y0342598D01*
X0074433Y0342486D01*
X0074361Y0342376D01*
X0074286Y0342268D01*
X0074208Y0342162D01*
X0074127Y0342059D01*
X0074042Y0341958D01*
X0073955Y0341860D01*
X0073864Y0341765D01*
X0073771Y0341672D01*
X0073675Y0341582D01*
X0073576Y0341495D01*
X0073475Y0341412D01*
X0073371Y0341331D01*
X0073265Y0341254D01*
X0073156Y0341180D01*
X0073045Y0341109D01*
X0072933Y0341041D01*
X0072818Y0340977D01*
X0072701Y0340917D01*
X0072582Y0340860D01*
X0072462Y0340807D01*
X0072341Y0340757D01*
X0072217Y0340711D01*
X0072093Y0340669D01*
X0071967Y0340631D01*
X0071840Y0340596D01*
X0071712Y0340565D01*
X0071584Y0340539D01*
X0071454Y0340516D01*
X0071324Y0340497D01*
X0071194Y0340482D01*
X0071063Y0340471D01*
X0070931Y0340464D01*
X0070800Y0340461D01*
X0070668Y0340462D01*
X0070537Y0340467D01*
X0070406Y0340476D01*
X0070275Y0340489D01*
X0070145Y0340506D01*
X0070015Y0340527D01*
X0069886Y0340552D01*
X0069758Y0340580D01*
X0069630Y0340613D01*
X0069504Y0340649D01*
X0069379Y0340690D01*
X0069255Y0340734D01*
X0069132Y0340781D01*
X0069011Y0340833D01*
X0068892Y0340888D01*
X0068774Y0340947D01*
X0068659Y0341009D01*
X0068545Y0341075D01*
X0068433Y0341144D01*
X0068323Y0341216D01*
X0068216Y0341292D01*
X0068111Y0341371D01*
X0068008Y0341453D01*
X0067908Y0341538D01*
X0067811Y0341627D01*
X0067716Y0341718D01*
X0067624Y0341812D01*
X0067535Y0341909D01*
X0067449Y0342008D01*
X0067366Y0342110D01*
X0067286Y0342215D01*
X0067210Y0342321D01*
X0067137Y0342430D01*
X0067067Y0342542D01*
X0067000Y0342655D01*
X0066937Y0342770D01*
X0066877Y0342888D01*
X0066821Y0343006D01*
X0066769Y0343127D01*
X0066720Y0343249D01*
X0066675Y0343373D01*
X0066634Y0343497D01*
X0066597Y0343624D01*
X0066563Y0343751D01*
X0066533Y0343879D01*
X0066508Y0344008D01*
X0066486Y0344137D01*
X0066468Y0344267D01*
X0066454Y0344398D01*
X0066444Y0344529D01*
X0066438Y0344661D01*
X0066436Y0344792D01*
X0093936Y0344792D02*
X0093938Y0344923D01*
X0093944Y0345055D01*
X0093954Y0345186D01*
X0093968Y0345317D01*
X0093986Y0345447D01*
X0094008Y0345576D01*
X0094033Y0345705D01*
X0094063Y0345833D01*
X0094097Y0345960D01*
X0094134Y0346087D01*
X0094175Y0346211D01*
X0094220Y0346335D01*
X0094269Y0346457D01*
X0094321Y0346578D01*
X0094377Y0346696D01*
X0094437Y0346814D01*
X0094500Y0346929D01*
X0094567Y0347042D01*
X0094637Y0347154D01*
X0094710Y0347263D01*
X0094786Y0347369D01*
X0094866Y0347474D01*
X0094949Y0347576D01*
X0095035Y0347675D01*
X0095124Y0347772D01*
X0095216Y0347866D01*
X0095311Y0347957D01*
X0095408Y0348046D01*
X0095508Y0348131D01*
X0095611Y0348213D01*
X0095716Y0348292D01*
X0095823Y0348368D01*
X0095933Y0348440D01*
X0096045Y0348509D01*
X0096159Y0348575D01*
X0096274Y0348637D01*
X0096392Y0348696D01*
X0096511Y0348751D01*
X0096632Y0348803D01*
X0096755Y0348850D01*
X0096879Y0348894D01*
X0097004Y0348935D01*
X0097130Y0348971D01*
X0097258Y0349004D01*
X0097386Y0349032D01*
X0097515Y0349057D01*
X0097645Y0349078D01*
X0097775Y0349095D01*
X0097906Y0349108D01*
X0098037Y0349117D01*
X0098168Y0349122D01*
X0098300Y0349123D01*
X0098431Y0349120D01*
X0098563Y0349113D01*
X0098694Y0349102D01*
X0098824Y0349087D01*
X0098954Y0349068D01*
X0099084Y0349045D01*
X0099212Y0349019D01*
X0099340Y0348988D01*
X0099467Y0348953D01*
X0099593Y0348915D01*
X0099717Y0348873D01*
X0099841Y0348827D01*
X0099962Y0348777D01*
X0100082Y0348724D01*
X0100201Y0348667D01*
X0100318Y0348607D01*
X0100432Y0348543D01*
X0100545Y0348475D01*
X0100656Y0348404D01*
X0100765Y0348330D01*
X0100871Y0348253D01*
X0100975Y0348172D01*
X0101076Y0348089D01*
X0101175Y0348002D01*
X0101271Y0347912D01*
X0101364Y0347819D01*
X0101455Y0347724D01*
X0101542Y0347626D01*
X0101627Y0347525D01*
X0101708Y0347422D01*
X0101786Y0347316D01*
X0101861Y0347208D01*
X0101933Y0347098D01*
X0102001Y0346986D01*
X0102066Y0346872D01*
X0102127Y0346755D01*
X0102185Y0346637D01*
X0102239Y0346517D01*
X0102290Y0346396D01*
X0102337Y0346273D01*
X0102380Y0346149D01*
X0102419Y0346024D01*
X0102455Y0345897D01*
X0102486Y0345769D01*
X0102514Y0345641D01*
X0102538Y0345512D01*
X0102558Y0345382D01*
X0102574Y0345251D01*
X0102586Y0345120D01*
X0102594Y0344989D01*
X0102598Y0344858D01*
X0102598Y0344726D01*
X0102594Y0344595D01*
X0102586Y0344464D01*
X0102574Y0344333D01*
X0102558Y0344202D01*
X0102538Y0344072D01*
X0102514Y0343943D01*
X0102486Y0343815D01*
X0102455Y0343687D01*
X0102419Y0343560D01*
X0102380Y0343435D01*
X0102337Y0343311D01*
X0102290Y0343188D01*
X0102239Y0343067D01*
X0102185Y0342947D01*
X0102127Y0342829D01*
X0102066Y0342712D01*
X0102001Y0342598D01*
X0101933Y0342486D01*
X0101861Y0342376D01*
X0101786Y0342268D01*
X0101708Y0342162D01*
X0101627Y0342059D01*
X0101542Y0341958D01*
X0101455Y0341860D01*
X0101364Y0341765D01*
X0101271Y0341672D01*
X0101175Y0341582D01*
X0101076Y0341495D01*
X0100975Y0341412D01*
X0100871Y0341331D01*
X0100765Y0341254D01*
X0100656Y0341180D01*
X0100545Y0341109D01*
X0100433Y0341041D01*
X0100318Y0340977D01*
X0100201Y0340917D01*
X0100082Y0340860D01*
X0099962Y0340807D01*
X0099841Y0340757D01*
X0099717Y0340711D01*
X0099593Y0340669D01*
X0099467Y0340631D01*
X0099340Y0340596D01*
X0099212Y0340565D01*
X0099084Y0340539D01*
X0098954Y0340516D01*
X0098824Y0340497D01*
X0098694Y0340482D01*
X0098563Y0340471D01*
X0098431Y0340464D01*
X0098300Y0340461D01*
X0098168Y0340462D01*
X0098037Y0340467D01*
X0097906Y0340476D01*
X0097775Y0340489D01*
X0097645Y0340506D01*
X0097515Y0340527D01*
X0097386Y0340552D01*
X0097258Y0340580D01*
X0097130Y0340613D01*
X0097004Y0340649D01*
X0096879Y0340690D01*
X0096755Y0340734D01*
X0096632Y0340781D01*
X0096511Y0340833D01*
X0096392Y0340888D01*
X0096274Y0340947D01*
X0096159Y0341009D01*
X0096045Y0341075D01*
X0095933Y0341144D01*
X0095823Y0341216D01*
X0095716Y0341292D01*
X0095611Y0341371D01*
X0095508Y0341453D01*
X0095408Y0341538D01*
X0095311Y0341627D01*
X0095216Y0341718D01*
X0095124Y0341812D01*
X0095035Y0341909D01*
X0094949Y0342008D01*
X0094866Y0342110D01*
X0094786Y0342215D01*
X0094710Y0342321D01*
X0094637Y0342430D01*
X0094567Y0342542D01*
X0094500Y0342655D01*
X0094437Y0342770D01*
X0094377Y0342888D01*
X0094321Y0343006D01*
X0094269Y0343127D01*
X0094220Y0343249D01*
X0094175Y0343373D01*
X0094134Y0343497D01*
X0094097Y0343624D01*
X0094063Y0343751D01*
X0094033Y0343879D01*
X0094008Y0344008D01*
X0093986Y0344137D01*
X0093968Y0344267D01*
X0093954Y0344398D01*
X0093944Y0344529D01*
X0093938Y0344661D01*
X0093936Y0344792D01*
X0122686Y0344792D02*
X0122688Y0344923D01*
X0122694Y0345055D01*
X0122704Y0345186D01*
X0122718Y0345317D01*
X0122736Y0345447D01*
X0122758Y0345576D01*
X0122783Y0345705D01*
X0122813Y0345833D01*
X0122847Y0345960D01*
X0122884Y0346087D01*
X0122925Y0346211D01*
X0122970Y0346335D01*
X0123019Y0346457D01*
X0123071Y0346578D01*
X0123127Y0346696D01*
X0123187Y0346814D01*
X0123250Y0346929D01*
X0123317Y0347042D01*
X0123387Y0347154D01*
X0123460Y0347263D01*
X0123536Y0347369D01*
X0123616Y0347474D01*
X0123699Y0347576D01*
X0123785Y0347675D01*
X0123874Y0347772D01*
X0123966Y0347866D01*
X0124061Y0347957D01*
X0124158Y0348046D01*
X0124258Y0348131D01*
X0124361Y0348213D01*
X0124466Y0348292D01*
X0124573Y0348368D01*
X0124683Y0348440D01*
X0124795Y0348509D01*
X0124909Y0348575D01*
X0125024Y0348637D01*
X0125142Y0348696D01*
X0125261Y0348751D01*
X0125382Y0348803D01*
X0125505Y0348850D01*
X0125629Y0348894D01*
X0125754Y0348935D01*
X0125880Y0348971D01*
X0126008Y0349004D01*
X0126136Y0349032D01*
X0126265Y0349057D01*
X0126395Y0349078D01*
X0126525Y0349095D01*
X0126656Y0349108D01*
X0126787Y0349117D01*
X0126918Y0349122D01*
X0127050Y0349123D01*
X0127181Y0349120D01*
X0127313Y0349113D01*
X0127444Y0349102D01*
X0127574Y0349087D01*
X0127704Y0349068D01*
X0127834Y0349045D01*
X0127962Y0349019D01*
X0128090Y0348988D01*
X0128217Y0348953D01*
X0128343Y0348915D01*
X0128467Y0348873D01*
X0128591Y0348827D01*
X0128712Y0348777D01*
X0128832Y0348724D01*
X0128951Y0348667D01*
X0129068Y0348607D01*
X0129182Y0348543D01*
X0129295Y0348475D01*
X0129406Y0348404D01*
X0129515Y0348330D01*
X0129621Y0348253D01*
X0129725Y0348172D01*
X0129826Y0348089D01*
X0129925Y0348002D01*
X0130021Y0347912D01*
X0130114Y0347819D01*
X0130205Y0347724D01*
X0130292Y0347626D01*
X0130377Y0347525D01*
X0130458Y0347422D01*
X0130536Y0347316D01*
X0130611Y0347208D01*
X0130683Y0347098D01*
X0130751Y0346986D01*
X0130816Y0346872D01*
X0130877Y0346755D01*
X0130935Y0346637D01*
X0130989Y0346517D01*
X0131040Y0346396D01*
X0131087Y0346273D01*
X0131130Y0346149D01*
X0131169Y0346024D01*
X0131205Y0345897D01*
X0131236Y0345769D01*
X0131264Y0345641D01*
X0131288Y0345512D01*
X0131308Y0345382D01*
X0131324Y0345251D01*
X0131336Y0345120D01*
X0131344Y0344989D01*
X0131348Y0344858D01*
X0131348Y0344726D01*
X0131344Y0344595D01*
X0131336Y0344464D01*
X0131324Y0344333D01*
X0131308Y0344202D01*
X0131288Y0344072D01*
X0131264Y0343943D01*
X0131236Y0343815D01*
X0131205Y0343687D01*
X0131169Y0343560D01*
X0131130Y0343435D01*
X0131087Y0343311D01*
X0131040Y0343188D01*
X0130989Y0343067D01*
X0130935Y0342947D01*
X0130877Y0342829D01*
X0130816Y0342712D01*
X0130751Y0342598D01*
X0130683Y0342486D01*
X0130611Y0342376D01*
X0130536Y0342268D01*
X0130458Y0342162D01*
X0130377Y0342059D01*
X0130292Y0341958D01*
X0130205Y0341860D01*
X0130114Y0341765D01*
X0130021Y0341672D01*
X0129925Y0341582D01*
X0129826Y0341495D01*
X0129725Y0341412D01*
X0129621Y0341331D01*
X0129515Y0341254D01*
X0129406Y0341180D01*
X0129295Y0341109D01*
X0129183Y0341041D01*
X0129068Y0340977D01*
X0128951Y0340917D01*
X0128832Y0340860D01*
X0128712Y0340807D01*
X0128591Y0340757D01*
X0128467Y0340711D01*
X0128343Y0340669D01*
X0128217Y0340631D01*
X0128090Y0340596D01*
X0127962Y0340565D01*
X0127834Y0340539D01*
X0127704Y0340516D01*
X0127574Y0340497D01*
X0127444Y0340482D01*
X0127313Y0340471D01*
X0127181Y0340464D01*
X0127050Y0340461D01*
X0126918Y0340462D01*
X0126787Y0340467D01*
X0126656Y0340476D01*
X0126525Y0340489D01*
X0126395Y0340506D01*
X0126265Y0340527D01*
X0126136Y0340552D01*
X0126008Y0340580D01*
X0125880Y0340613D01*
X0125754Y0340649D01*
X0125629Y0340690D01*
X0125505Y0340734D01*
X0125382Y0340781D01*
X0125261Y0340833D01*
X0125142Y0340888D01*
X0125024Y0340947D01*
X0124909Y0341009D01*
X0124795Y0341075D01*
X0124683Y0341144D01*
X0124573Y0341216D01*
X0124466Y0341292D01*
X0124361Y0341371D01*
X0124258Y0341453D01*
X0124158Y0341538D01*
X0124061Y0341627D01*
X0123966Y0341718D01*
X0123874Y0341812D01*
X0123785Y0341909D01*
X0123699Y0342008D01*
X0123616Y0342110D01*
X0123536Y0342215D01*
X0123460Y0342321D01*
X0123387Y0342430D01*
X0123317Y0342542D01*
X0123250Y0342655D01*
X0123187Y0342770D01*
X0123127Y0342888D01*
X0123071Y0343006D01*
X0123019Y0343127D01*
X0122970Y0343249D01*
X0122925Y0343373D01*
X0122884Y0343497D01*
X0122847Y0343624D01*
X0122813Y0343751D01*
X0122783Y0343879D01*
X0122758Y0344008D01*
X0122736Y0344137D01*
X0122718Y0344267D01*
X0122704Y0344398D01*
X0122694Y0344529D01*
X0122688Y0344661D01*
X0122686Y0344792D01*
X0150186Y0344792D02*
X0150188Y0344923D01*
X0150194Y0345055D01*
X0150204Y0345186D01*
X0150218Y0345317D01*
X0150236Y0345447D01*
X0150258Y0345576D01*
X0150283Y0345705D01*
X0150313Y0345833D01*
X0150347Y0345960D01*
X0150384Y0346087D01*
X0150425Y0346211D01*
X0150470Y0346335D01*
X0150519Y0346457D01*
X0150571Y0346578D01*
X0150627Y0346696D01*
X0150687Y0346814D01*
X0150750Y0346929D01*
X0150817Y0347042D01*
X0150887Y0347154D01*
X0150960Y0347263D01*
X0151036Y0347369D01*
X0151116Y0347474D01*
X0151199Y0347576D01*
X0151285Y0347675D01*
X0151374Y0347772D01*
X0151466Y0347866D01*
X0151561Y0347957D01*
X0151658Y0348046D01*
X0151758Y0348131D01*
X0151861Y0348213D01*
X0151966Y0348292D01*
X0152073Y0348368D01*
X0152183Y0348440D01*
X0152295Y0348509D01*
X0152409Y0348575D01*
X0152524Y0348637D01*
X0152642Y0348696D01*
X0152761Y0348751D01*
X0152882Y0348803D01*
X0153005Y0348850D01*
X0153129Y0348894D01*
X0153254Y0348935D01*
X0153380Y0348971D01*
X0153508Y0349004D01*
X0153636Y0349032D01*
X0153765Y0349057D01*
X0153895Y0349078D01*
X0154025Y0349095D01*
X0154156Y0349108D01*
X0154287Y0349117D01*
X0154418Y0349122D01*
X0154550Y0349123D01*
X0154681Y0349120D01*
X0154813Y0349113D01*
X0154944Y0349102D01*
X0155074Y0349087D01*
X0155204Y0349068D01*
X0155334Y0349045D01*
X0155462Y0349019D01*
X0155590Y0348988D01*
X0155717Y0348953D01*
X0155843Y0348915D01*
X0155967Y0348873D01*
X0156091Y0348827D01*
X0156212Y0348777D01*
X0156332Y0348724D01*
X0156451Y0348667D01*
X0156568Y0348607D01*
X0156682Y0348543D01*
X0156795Y0348475D01*
X0156906Y0348404D01*
X0157015Y0348330D01*
X0157121Y0348253D01*
X0157225Y0348172D01*
X0157326Y0348089D01*
X0157425Y0348002D01*
X0157521Y0347912D01*
X0157614Y0347819D01*
X0157705Y0347724D01*
X0157792Y0347626D01*
X0157877Y0347525D01*
X0157958Y0347422D01*
X0158036Y0347316D01*
X0158111Y0347208D01*
X0158183Y0347098D01*
X0158251Y0346986D01*
X0158316Y0346872D01*
X0158377Y0346755D01*
X0158435Y0346637D01*
X0158489Y0346517D01*
X0158540Y0346396D01*
X0158587Y0346273D01*
X0158630Y0346149D01*
X0158669Y0346024D01*
X0158705Y0345897D01*
X0158736Y0345769D01*
X0158764Y0345641D01*
X0158788Y0345512D01*
X0158808Y0345382D01*
X0158824Y0345251D01*
X0158836Y0345120D01*
X0158844Y0344989D01*
X0158848Y0344858D01*
X0158848Y0344726D01*
X0158844Y0344595D01*
X0158836Y0344464D01*
X0158824Y0344333D01*
X0158808Y0344202D01*
X0158788Y0344072D01*
X0158764Y0343943D01*
X0158736Y0343815D01*
X0158705Y0343687D01*
X0158669Y0343560D01*
X0158630Y0343435D01*
X0158587Y0343311D01*
X0158540Y0343188D01*
X0158489Y0343067D01*
X0158435Y0342947D01*
X0158377Y0342829D01*
X0158316Y0342712D01*
X0158251Y0342598D01*
X0158183Y0342486D01*
X0158111Y0342376D01*
X0158036Y0342268D01*
X0157958Y0342162D01*
X0157877Y0342059D01*
X0157792Y0341958D01*
X0157705Y0341860D01*
X0157614Y0341765D01*
X0157521Y0341672D01*
X0157425Y0341582D01*
X0157326Y0341495D01*
X0157225Y0341412D01*
X0157121Y0341331D01*
X0157015Y0341254D01*
X0156906Y0341180D01*
X0156795Y0341109D01*
X0156683Y0341041D01*
X0156568Y0340977D01*
X0156451Y0340917D01*
X0156332Y0340860D01*
X0156212Y0340807D01*
X0156091Y0340757D01*
X0155967Y0340711D01*
X0155843Y0340669D01*
X0155717Y0340631D01*
X0155590Y0340596D01*
X0155462Y0340565D01*
X0155334Y0340539D01*
X0155204Y0340516D01*
X0155074Y0340497D01*
X0154944Y0340482D01*
X0154813Y0340471D01*
X0154681Y0340464D01*
X0154550Y0340461D01*
X0154418Y0340462D01*
X0154287Y0340467D01*
X0154156Y0340476D01*
X0154025Y0340489D01*
X0153895Y0340506D01*
X0153765Y0340527D01*
X0153636Y0340552D01*
X0153508Y0340580D01*
X0153380Y0340613D01*
X0153254Y0340649D01*
X0153129Y0340690D01*
X0153005Y0340734D01*
X0152882Y0340781D01*
X0152761Y0340833D01*
X0152642Y0340888D01*
X0152524Y0340947D01*
X0152409Y0341009D01*
X0152295Y0341075D01*
X0152183Y0341144D01*
X0152073Y0341216D01*
X0151966Y0341292D01*
X0151861Y0341371D01*
X0151758Y0341453D01*
X0151658Y0341538D01*
X0151561Y0341627D01*
X0151466Y0341718D01*
X0151374Y0341812D01*
X0151285Y0341909D01*
X0151199Y0342008D01*
X0151116Y0342110D01*
X0151036Y0342215D01*
X0150960Y0342321D01*
X0150887Y0342430D01*
X0150817Y0342542D01*
X0150750Y0342655D01*
X0150687Y0342770D01*
X0150627Y0342888D01*
X0150571Y0343006D01*
X0150519Y0343127D01*
X0150470Y0343249D01*
X0150425Y0343373D01*
X0150384Y0343497D01*
X0150347Y0343624D01*
X0150313Y0343751D01*
X0150283Y0343879D01*
X0150258Y0344008D01*
X0150236Y0344137D01*
X0150218Y0344267D01*
X0150204Y0344398D01*
X0150194Y0344529D01*
X0150188Y0344661D01*
X0150186Y0344792D01*
X0177686Y0344792D02*
X0177688Y0344923D01*
X0177694Y0345055D01*
X0177704Y0345186D01*
X0177718Y0345317D01*
X0177736Y0345447D01*
X0177758Y0345576D01*
X0177783Y0345705D01*
X0177813Y0345833D01*
X0177847Y0345960D01*
X0177884Y0346087D01*
X0177925Y0346211D01*
X0177970Y0346335D01*
X0178019Y0346457D01*
X0178071Y0346578D01*
X0178127Y0346696D01*
X0178187Y0346814D01*
X0178250Y0346929D01*
X0178317Y0347042D01*
X0178387Y0347154D01*
X0178460Y0347263D01*
X0178536Y0347369D01*
X0178616Y0347474D01*
X0178699Y0347576D01*
X0178785Y0347675D01*
X0178874Y0347772D01*
X0178966Y0347866D01*
X0179061Y0347957D01*
X0179158Y0348046D01*
X0179258Y0348131D01*
X0179361Y0348213D01*
X0179466Y0348292D01*
X0179573Y0348368D01*
X0179683Y0348440D01*
X0179795Y0348509D01*
X0179909Y0348575D01*
X0180024Y0348637D01*
X0180142Y0348696D01*
X0180261Y0348751D01*
X0180382Y0348803D01*
X0180505Y0348850D01*
X0180629Y0348894D01*
X0180754Y0348935D01*
X0180880Y0348971D01*
X0181008Y0349004D01*
X0181136Y0349032D01*
X0181265Y0349057D01*
X0181395Y0349078D01*
X0181525Y0349095D01*
X0181656Y0349108D01*
X0181787Y0349117D01*
X0181918Y0349122D01*
X0182050Y0349123D01*
X0182181Y0349120D01*
X0182313Y0349113D01*
X0182444Y0349102D01*
X0182574Y0349087D01*
X0182704Y0349068D01*
X0182834Y0349045D01*
X0182962Y0349019D01*
X0183090Y0348988D01*
X0183217Y0348953D01*
X0183343Y0348915D01*
X0183467Y0348873D01*
X0183591Y0348827D01*
X0183712Y0348777D01*
X0183832Y0348724D01*
X0183951Y0348667D01*
X0184068Y0348607D01*
X0184182Y0348543D01*
X0184295Y0348475D01*
X0184406Y0348404D01*
X0184515Y0348330D01*
X0184621Y0348253D01*
X0184725Y0348172D01*
X0184826Y0348089D01*
X0184925Y0348002D01*
X0185021Y0347912D01*
X0185114Y0347819D01*
X0185205Y0347724D01*
X0185292Y0347626D01*
X0185377Y0347525D01*
X0185458Y0347422D01*
X0185536Y0347316D01*
X0185611Y0347208D01*
X0185683Y0347098D01*
X0185751Y0346986D01*
X0185816Y0346872D01*
X0185877Y0346755D01*
X0185935Y0346637D01*
X0185989Y0346517D01*
X0186040Y0346396D01*
X0186087Y0346273D01*
X0186130Y0346149D01*
X0186169Y0346024D01*
X0186205Y0345897D01*
X0186236Y0345769D01*
X0186264Y0345641D01*
X0186288Y0345512D01*
X0186308Y0345382D01*
X0186324Y0345251D01*
X0186336Y0345120D01*
X0186344Y0344989D01*
X0186348Y0344858D01*
X0186348Y0344726D01*
X0186344Y0344595D01*
X0186336Y0344464D01*
X0186324Y0344333D01*
X0186308Y0344202D01*
X0186288Y0344072D01*
X0186264Y0343943D01*
X0186236Y0343815D01*
X0186205Y0343687D01*
X0186169Y0343560D01*
X0186130Y0343435D01*
X0186087Y0343311D01*
X0186040Y0343188D01*
X0185989Y0343067D01*
X0185935Y0342947D01*
X0185877Y0342829D01*
X0185816Y0342712D01*
X0185751Y0342598D01*
X0185683Y0342486D01*
X0185611Y0342376D01*
X0185536Y0342268D01*
X0185458Y0342162D01*
X0185377Y0342059D01*
X0185292Y0341958D01*
X0185205Y0341860D01*
X0185114Y0341765D01*
X0185021Y0341672D01*
X0184925Y0341582D01*
X0184826Y0341495D01*
X0184725Y0341412D01*
X0184621Y0341331D01*
X0184515Y0341254D01*
X0184406Y0341180D01*
X0184295Y0341109D01*
X0184183Y0341041D01*
X0184068Y0340977D01*
X0183951Y0340917D01*
X0183832Y0340860D01*
X0183712Y0340807D01*
X0183591Y0340757D01*
X0183467Y0340711D01*
X0183343Y0340669D01*
X0183217Y0340631D01*
X0183090Y0340596D01*
X0182962Y0340565D01*
X0182834Y0340539D01*
X0182704Y0340516D01*
X0182574Y0340497D01*
X0182444Y0340482D01*
X0182313Y0340471D01*
X0182181Y0340464D01*
X0182050Y0340461D01*
X0181918Y0340462D01*
X0181787Y0340467D01*
X0181656Y0340476D01*
X0181525Y0340489D01*
X0181395Y0340506D01*
X0181265Y0340527D01*
X0181136Y0340552D01*
X0181008Y0340580D01*
X0180880Y0340613D01*
X0180754Y0340649D01*
X0180629Y0340690D01*
X0180505Y0340734D01*
X0180382Y0340781D01*
X0180261Y0340833D01*
X0180142Y0340888D01*
X0180024Y0340947D01*
X0179909Y0341009D01*
X0179795Y0341075D01*
X0179683Y0341144D01*
X0179573Y0341216D01*
X0179466Y0341292D01*
X0179361Y0341371D01*
X0179258Y0341453D01*
X0179158Y0341538D01*
X0179061Y0341627D01*
X0178966Y0341718D01*
X0178874Y0341812D01*
X0178785Y0341909D01*
X0178699Y0342008D01*
X0178616Y0342110D01*
X0178536Y0342215D01*
X0178460Y0342321D01*
X0178387Y0342430D01*
X0178317Y0342542D01*
X0178250Y0342655D01*
X0178187Y0342770D01*
X0178127Y0342888D01*
X0178071Y0343006D01*
X0178019Y0343127D01*
X0177970Y0343249D01*
X0177925Y0343373D01*
X0177884Y0343497D01*
X0177847Y0343624D01*
X0177813Y0343751D01*
X0177783Y0343879D01*
X0177758Y0344008D01*
X0177736Y0344137D01*
X0177718Y0344267D01*
X0177704Y0344398D01*
X0177694Y0344529D01*
X0177688Y0344661D01*
X0177686Y0344792D01*
X0205186Y0344792D02*
X0205188Y0344923D01*
X0205194Y0345055D01*
X0205204Y0345186D01*
X0205218Y0345317D01*
X0205236Y0345447D01*
X0205258Y0345576D01*
X0205283Y0345705D01*
X0205313Y0345833D01*
X0205347Y0345960D01*
X0205384Y0346087D01*
X0205425Y0346211D01*
X0205470Y0346335D01*
X0205519Y0346457D01*
X0205571Y0346578D01*
X0205627Y0346696D01*
X0205687Y0346814D01*
X0205750Y0346929D01*
X0205817Y0347042D01*
X0205887Y0347154D01*
X0205960Y0347263D01*
X0206036Y0347369D01*
X0206116Y0347474D01*
X0206199Y0347576D01*
X0206285Y0347675D01*
X0206374Y0347772D01*
X0206466Y0347866D01*
X0206561Y0347957D01*
X0206658Y0348046D01*
X0206758Y0348131D01*
X0206861Y0348213D01*
X0206966Y0348292D01*
X0207073Y0348368D01*
X0207183Y0348440D01*
X0207295Y0348509D01*
X0207409Y0348575D01*
X0207524Y0348637D01*
X0207642Y0348696D01*
X0207761Y0348751D01*
X0207882Y0348803D01*
X0208005Y0348850D01*
X0208129Y0348894D01*
X0208254Y0348935D01*
X0208380Y0348971D01*
X0208508Y0349004D01*
X0208636Y0349032D01*
X0208765Y0349057D01*
X0208895Y0349078D01*
X0209025Y0349095D01*
X0209156Y0349108D01*
X0209287Y0349117D01*
X0209418Y0349122D01*
X0209550Y0349123D01*
X0209681Y0349120D01*
X0209813Y0349113D01*
X0209944Y0349102D01*
X0210074Y0349087D01*
X0210204Y0349068D01*
X0210334Y0349045D01*
X0210462Y0349019D01*
X0210590Y0348988D01*
X0210717Y0348953D01*
X0210843Y0348915D01*
X0210967Y0348873D01*
X0211091Y0348827D01*
X0211212Y0348777D01*
X0211332Y0348724D01*
X0211451Y0348667D01*
X0211568Y0348607D01*
X0211682Y0348543D01*
X0211795Y0348475D01*
X0211906Y0348404D01*
X0212015Y0348330D01*
X0212121Y0348253D01*
X0212225Y0348172D01*
X0212326Y0348089D01*
X0212425Y0348002D01*
X0212521Y0347912D01*
X0212614Y0347819D01*
X0212705Y0347724D01*
X0212792Y0347626D01*
X0212877Y0347525D01*
X0212958Y0347422D01*
X0213036Y0347316D01*
X0213111Y0347208D01*
X0213183Y0347098D01*
X0213251Y0346986D01*
X0213316Y0346872D01*
X0213377Y0346755D01*
X0213435Y0346637D01*
X0213489Y0346517D01*
X0213540Y0346396D01*
X0213587Y0346273D01*
X0213630Y0346149D01*
X0213669Y0346024D01*
X0213705Y0345897D01*
X0213736Y0345769D01*
X0213764Y0345641D01*
X0213788Y0345512D01*
X0213808Y0345382D01*
X0213824Y0345251D01*
X0213836Y0345120D01*
X0213844Y0344989D01*
X0213848Y0344858D01*
X0213848Y0344726D01*
X0213844Y0344595D01*
X0213836Y0344464D01*
X0213824Y0344333D01*
X0213808Y0344202D01*
X0213788Y0344072D01*
X0213764Y0343943D01*
X0213736Y0343815D01*
X0213705Y0343687D01*
X0213669Y0343560D01*
X0213630Y0343435D01*
X0213587Y0343311D01*
X0213540Y0343188D01*
X0213489Y0343067D01*
X0213435Y0342947D01*
X0213377Y0342829D01*
X0213316Y0342712D01*
X0213251Y0342598D01*
X0213183Y0342486D01*
X0213111Y0342376D01*
X0213036Y0342268D01*
X0212958Y0342162D01*
X0212877Y0342059D01*
X0212792Y0341958D01*
X0212705Y0341860D01*
X0212614Y0341765D01*
X0212521Y0341672D01*
X0212425Y0341582D01*
X0212326Y0341495D01*
X0212225Y0341412D01*
X0212121Y0341331D01*
X0212015Y0341254D01*
X0211906Y0341180D01*
X0211795Y0341109D01*
X0211683Y0341041D01*
X0211568Y0340977D01*
X0211451Y0340917D01*
X0211332Y0340860D01*
X0211212Y0340807D01*
X0211091Y0340757D01*
X0210967Y0340711D01*
X0210843Y0340669D01*
X0210717Y0340631D01*
X0210590Y0340596D01*
X0210462Y0340565D01*
X0210334Y0340539D01*
X0210204Y0340516D01*
X0210074Y0340497D01*
X0209944Y0340482D01*
X0209813Y0340471D01*
X0209681Y0340464D01*
X0209550Y0340461D01*
X0209418Y0340462D01*
X0209287Y0340467D01*
X0209156Y0340476D01*
X0209025Y0340489D01*
X0208895Y0340506D01*
X0208765Y0340527D01*
X0208636Y0340552D01*
X0208508Y0340580D01*
X0208380Y0340613D01*
X0208254Y0340649D01*
X0208129Y0340690D01*
X0208005Y0340734D01*
X0207882Y0340781D01*
X0207761Y0340833D01*
X0207642Y0340888D01*
X0207524Y0340947D01*
X0207409Y0341009D01*
X0207295Y0341075D01*
X0207183Y0341144D01*
X0207073Y0341216D01*
X0206966Y0341292D01*
X0206861Y0341371D01*
X0206758Y0341453D01*
X0206658Y0341538D01*
X0206561Y0341627D01*
X0206466Y0341718D01*
X0206374Y0341812D01*
X0206285Y0341909D01*
X0206199Y0342008D01*
X0206116Y0342110D01*
X0206036Y0342215D01*
X0205960Y0342321D01*
X0205887Y0342430D01*
X0205817Y0342542D01*
X0205750Y0342655D01*
X0205687Y0342770D01*
X0205627Y0342888D01*
X0205571Y0343006D01*
X0205519Y0343127D01*
X0205470Y0343249D01*
X0205425Y0343373D01*
X0205384Y0343497D01*
X0205347Y0343624D01*
X0205313Y0343751D01*
X0205283Y0343879D01*
X0205258Y0344008D01*
X0205236Y0344137D01*
X0205218Y0344267D01*
X0205204Y0344398D01*
X0205194Y0344529D01*
X0205188Y0344661D01*
X0205186Y0344792D01*
X0232686Y0344792D02*
X0232688Y0344923D01*
X0232694Y0345055D01*
X0232704Y0345186D01*
X0232718Y0345317D01*
X0232736Y0345447D01*
X0232758Y0345576D01*
X0232783Y0345705D01*
X0232813Y0345833D01*
X0232847Y0345960D01*
X0232884Y0346087D01*
X0232925Y0346211D01*
X0232970Y0346335D01*
X0233019Y0346457D01*
X0233071Y0346578D01*
X0233127Y0346696D01*
X0233187Y0346814D01*
X0233250Y0346929D01*
X0233317Y0347042D01*
X0233387Y0347154D01*
X0233460Y0347263D01*
X0233536Y0347369D01*
X0233616Y0347474D01*
X0233699Y0347576D01*
X0233785Y0347675D01*
X0233874Y0347772D01*
X0233966Y0347866D01*
X0234061Y0347957D01*
X0234158Y0348046D01*
X0234258Y0348131D01*
X0234361Y0348213D01*
X0234466Y0348292D01*
X0234573Y0348368D01*
X0234683Y0348440D01*
X0234795Y0348509D01*
X0234909Y0348575D01*
X0235024Y0348637D01*
X0235142Y0348696D01*
X0235261Y0348751D01*
X0235382Y0348803D01*
X0235505Y0348850D01*
X0235629Y0348894D01*
X0235754Y0348935D01*
X0235880Y0348971D01*
X0236008Y0349004D01*
X0236136Y0349032D01*
X0236265Y0349057D01*
X0236395Y0349078D01*
X0236525Y0349095D01*
X0236656Y0349108D01*
X0236787Y0349117D01*
X0236918Y0349122D01*
X0237050Y0349123D01*
X0237181Y0349120D01*
X0237313Y0349113D01*
X0237444Y0349102D01*
X0237574Y0349087D01*
X0237704Y0349068D01*
X0237834Y0349045D01*
X0237962Y0349019D01*
X0238090Y0348988D01*
X0238217Y0348953D01*
X0238343Y0348915D01*
X0238467Y0348873D01*
X0238591Y0348827D01*
X0238712Y0348777D01*
X0238832Y0348724D01*
X0238951Y0348667D01*
X0239068Y0348607D01*
X0239182Y0348543D01*
X0239295Y0348475D01*
X0239406Y0348404D01*
X0239515Y0348330D01*
X0239621Y0348253D01*
X0239725Y0348172D01*
X0239826Y0348089D01*
X0239925Y0348002D01*
X0240021Y0347912D01*
X0240114Y0347819D01*
X0240205Y0347724D01*
X0240292Y0347626D01*
X0240377Y0347525D01*
X0240458Y0347422D01*
X0240536Y0347316D01*
X0240611Y0347208D01*
X0240683Y0347098D01*
X0240751Y0346986D01*
X0240816Y0346872D01*
X0240877Y0346755D01*
X0240935Y0346637D01*
X0240989Y0346517D01*
X0241040Y0346396D01*
X0241087Y0346273D01*
X0241130Y0346149D01*
X0241169Y0346024D01*
X0241205Y0345897D01*
X0241236Y0345769D01*
X0241264Y0345641D01*
X0241288Y0345512D01*
X0241308Y0345382D01*
X0241324Y0345251D01*
X0241336Y0345120D01*
X0241344Y0344989D01*
X0241348Y0344858D01*
X0241348Y0344726D01*
X0241344Y0344595D01*
X0241336Y0344464D01*
X0241324Y0344333D01*
X0241308Y0344202D01*
X0241288Y0344072D01*
X0241264Y0343943D01*
X0241236Y0343815D01*
X0241205Y0343687D01*
X0241169Y0343560D01*
X0241130Y0343435D01*
X0241087Y0343311D01*
X0241040Y0343188D01*
X0240989Y0343067D01*
X0240935Y0342947D01*
X0240877Y0342829D01*
X0240816Y0342712D01*
X0240751Y0342598D01*
X0240683Y0342486D01*
X0240611Y0342376D01*
X0240536Y0342268D01*
X0240458Y0342162D01*
X0240377Y0342059D01*
X0240292Y0341958D01*
X0240205Y0341860D01*
X0240114Y0341765D01*
X0240021Y0341672D01*
X0239925Y0341582D01*
X0239826Y0341495D01*
X0239725Y0341412D01*
X0239621Y0341331D01*
X0239515Y0341254D01*
X0239406Y0341180D01*
X0239295Y0341109D01*
X0239183Y0341041D01*
X0239068Y0340977D01*
X0238951Y0340917D01*
X0238832Y0340860D01*
X0238712Y0340807D01*
X0238591Y0340757D01*
X0238467Y0340711D01*
X0238343Y0340669D01*
X0238217Y0340631D01*
X0238090Y0340596D01*
X0237962Y0340565D01*
X0237834Y0340539D01*
X0237704Y0340516D01*
X0237574Y0340497D01*
X0237444Y0340482D01*
X0237313Y0340471D01*
X0237181Y0340464D01*
X0237050Y0340461D01*
X0236918Y0340462D01*
X0236787Y0340467D01*
X0236656Y0340476D01*
X0236525Y0340489D01*
X0236395Y0340506D01*
X0236265Y0340527D01*
X0236136Y0340552D01*
X0236008Y0340580D01*
X0235880Y0340613D01*
X0235754Y0340649D01*
X0235629Y0340690D01*
X0235505Y0340734D01*
X0235382Y0340781D01*
X0235261Y0340833D01*
X0235142Y0340888D01*
X0235024Y0340947D01*
X0234909Y0341009D01*
X0234795Y0341075D01*
X0234683Y0341144D01*
X0234573Y0341216D01*
X0234466Y0341292D01*
X0234361Y0341371D01*
X0234258Y0341453D01*
X0234158Y0341538D01*
X0234061Y0341627D01*
X0233966Y0341718D01*
X0233874Y0341812D01*
X0233785Y0341909D01*
X0233699Y0342008D01*
X0233616Y0342110D01*
X0233536Y0342215D01*
X0233460Y0342321D01*
X0233387Y0342430D01*
X0233317Y0342542D01*
X0233250Y0342655D01*
X0233187Y0342770D01*
X0233127Y0342888D01*
X0233071Y0343006D01*
X0233019Y0343127D01*
X0232970Y0343249D01*
X0232925Y0343373D01*
X0232884Y0343497D01*
X0232847Y0343624D01*
X0232813Y0343751D01*
X0232783Y0343879D01*
X0232758Y0344008D01*
X0232736Y0344137D01*
X0232718Y0344267D01*
X0232704Y0344398D01*
X0232694Y0344529D01*
X0232688Y0344661D01*
X0232686Y0344792D01*
X0260186Y0344792D02*
X0260188Y0344923D01*
X0260194Y0345055D01*
X0260204Y0345186D01*
X0260218Y0345317D01*
X0260236Y0345447D01*
X0260258Y0345576D01*
X0260283Y0345705D01*
X0260313Y0345833D01*
X0260347Y0345960D01*
X0260384Y0346087D01*
X0260425Y0346211D01*
X0260470Y0346335D01*
X0260519Y0346457D01*
X0260571Y0346578D01*
X0260627Y0346696D01*
X0260687Y0346814D01*
X0260750Y0346929D01*
X0260817Y0347042D01*
X0260887Y0347154D01*
X0260960Y0347263D01*
X0261036Y0347369D01*
X0261116Y0347474D01*
X0261199Y0347576D01*
X0261285Y0347675D01*
X0261374Y0347772D01*
X0261466Y0347866D01*
X0261561Y0347957D01*
X0261658Y0348046D01*
X0261758Y0348131D01*
X0261861Y0348213D01*
X0261966Y0348292D01*
X0262073Y0348368D01*
X0262183Y0348440D01*
X0262295Y0348509D01*
X0262409Y0348575D01*
X0262524Y0348637D01*
X0262642Y0348696D01*
X0262761Y0348751D01*
X0262882Y0348803D01*
X0263005Y0348850D01*
X0263129Y0348894D01*
X0263254Y0348935D01*
X0263380Y0348971D01*
X0263508Y0349004D01*
X0263636Y0349032D01*
X0263765Y0349057D01*
X0263895Y0349078D01*
X0264025Y0349095D01*
X0264156Y0349108D01*
X0264287Y0349117D01*
X0264418Y0349122D01*
X0264550Y0349123D01*
X0264681Y0349120D01*
X0264813Y0349113D01*
X0264944Y0349102D01*
X0265074Y0349087D01*
X0265204Y0349068D01*
X0265334Y0349045D01*
X0265462Y0349019D01*
X0265590Y0348988D01*
X0265717Y0348953D01*
X0265843Y0348915D01*
X0265967Y0348873D01*
X0266091Y0348827D01*
X0266212Y0348777D01*
X0266332Y0348724D01*
X0266451Y0348667D01*
X0266568Y0348607D01*
X0266682Y0348543D01*
X0266795Y0348475D01*
X0266906Y0348404D01*
X0267015Y0348330D01*
X0267121Y0348253D01*
X0267225Y0348172D01*
X0267326Y0348089D01*
X0267425Y0348002D01*
X0267521Y0347912D01*
X0267614Y0347819D01*
X0267705Y0347724D01*
X0267792Y0347626D01*
X0267877Y0347525D01*
X0267958Y0347422D01*
X0268036Y0347316D01*
X0268111Y0347208D01*
X0268183Y0347098D01*
X0268251Y0346986D01*
X0268316Y0346872D01*
X0268377Y0346755D01*
X0268435Y0346637D01*
X0268489Y0346517D01*
X0268540Y0346396D01*
X0268587Y0346273D01*
X0268630Y0346149D01*
X0268669Y0346024D01*
X0268705Y0345897D01*
X0268736Y0345769D01*
X0268764Y0345641D01*
X0268788Y0345512D01*
X0268808Y0345382D01*
X0268824Y0345251D01*
X0268836Y0345120D01*
X0268844Y0344989D01*
X0268848Y0344858D01*
X0268848Y0344726D01*
X0268844Y0344595D01*
X0268836Y0344464D01*
X0268824Y0344333D01*
X0268808Y0344202D01*
X0268788Y0344072D01*
X0268764Y0343943D01*
X0268736Y0343815D01*
X0268705Y0343687D01*
X0268669Y0343560D01*
X0268630Y0343435D01*
X0268587Y0343311D01*
X0268540Y0343188D01*
X0268489Y0343067D01*
X0268435Y0342947D01*
X0268377Y0342829D01*
X0268316Y0342712D01*
X0268251Y0342598D01*
X0268183Y0342486D01*
X0268111Y0342376D01*
X0268036Y0342268D01*
X0267958Y0342162D01*
X0267877Y0342059D01*
X0267792Y0341958D01*
X0267705Y0341860D01*
X0267614Y0341765D01*
X0267521Y0341672D01*
X0267425Y0341582D01*
X0267326Y0341495D01*
X0267225Y0341412D01*
X0267121Y0341331D01*
X0267015Y0341254D01*
X0266906Y0341180D01*
X0266795Y0341109D01*
X0266683Y0341041D01*
X0266568Y0340977D01*
X0266451Y0340917D01*
X0266332Y0340860D01*
X0266212Y0340807D01*
X0266091Y0340757D01*
X0265967Y0340711D01*
X0265843Y0340669D01*
X0265717Y0340631D01*
X0265590Y0340596D01*
X0265462Y0340565D01*
X0265334Y0340539D01*
X0265204Y0340516D01*
X0265074Y0340497D01*
X0264944Y0340482D01*
X0264813Y0340471D01*
X0264681Y0340464D01*
X0264550Y0340461D01*
X0264418Y0340462D01*
X0264287Y0340467D01*
X0264156Y0340476D01*
X0264025Y0340489D01*
X0263895Y0340506D01*
X0263765Y0340527D01*
X0263636Y0340552D01*
X0263508Y0340580D01*
X0263380Y0340613D01*
X0263254Y0340649D01*
X0263129Y0340690D01*
X0263005Y0340734D01*
X0262882Y0340781D01*
X0262761Y0340833D01*
X0262642Y0340888D01*
X0262524Y0340947D01*
X0262409Y0341009D01*
X0262295Y0341075D01*
X0262183Y0341144D01*
X0262073Y0341216D01*
X0261966Y0341292D01*
X0261861Y0341371D01*
X0261758Y0341453D01*
X0261658Y0341538D01*
X0261561Y0341627D01*
X0261466Y0341718D01*
X0261374Y0341812D01*
X0261285Y0341909D01*
X0261199Y0342008D01*
X0261116Y0342110D01*
X0261036Y0342215D01*
X0260960Y0342321D01*
X0260887Y0342430D01*
X0260817Y0342542D01*
X0260750Y0342655D01*
X0260687Y0342770D01*
X0260627Y0342888D01*
X0260571Y0343006D01*
X0260519Y0343127D01*
X0260470Y0343249D01*
X0260425Y0343373D01*
X0260384Y0343497D01*
X0260347Y0343624D01*
X0260313Y0343751D01*
X0260283Y0343879D01*
X0260258Y0344008D01*
X0260236Y0344137D01*
X0260218Y0344267D01*
X0260204Y0344398D01*
X0260194Y0344529D01*
X0260188Y0344661D01*
X0260186Y0344792D01*
X0287686Y0344792D02*
X0287688Y0344923D01*
X0287694Y0345055D01*
X0287704Y0345186D01*
X0287718Y0345317D01*
X0287736Y0345447D01*
X0287758Y0345576D01*
X0287783Y0345705D01*
X0287813Y0345833D01*
X0287847Y0345960D01*
X0287884Y0346087D01*
X0287925Y0346211D01*
X0287970Y0346335D01*
X0288019Y0346457D01*
X0288071Y0346578D01*
X0288127Y0346696D01*
X0288187Y0346814D01*
X0288250Y0346929D01*
X0288317Y0347042D01*
X0288387Y0347154D01*
X0288460Y0347263D01*
X0288536Y0347369D01*
X0288616Y0347474D01*
X0288699Y0347576D01*
X0288785Y0347675D01*
X0288874Y0347772D01*
X0288966Y0347866D01*
X0289061Y0347957D01*
X0289158Y0348046D01*
X0289258Y0348131D01*
X0289361Y0348213D01*
X0289466Y0348292D01*
X0289573Y0348368D01*
X0289683Y0348440D01*
X0289795Y0348509D01*
X0289909Y0348575D01*
X0290024Y0348637D01*
X0290142Y0348696D01*
X0290261Y0348751D01*
X0290382Y0348803D01*
X0290505Y0348850D01*
X0290629Y0348894D01*
X0290754Y0348935D01*
X0290880Y0348971D01*
X0291008Y0349004D01*
X0291136Y0349032D01*
X0291265Y0349057D01*
X0291395Y0349078D01*
X0291525Y0349095D01*
X0291656Y0349108D01*
X0291787Y0349117D01*
X0291918Y0349122D01*
X0292050Y0349123D01*
X0292181Y0349120D01*
X0292313Y0349113D01*
X0292444Y0349102D01*
X0292574Y0349087D01*
X0292704Y0349068D01*
X0292834Y0349045D01*
X0292962Y0349019D01*
X0293090Y0348988D01*
X0293217Y0348953D01*
X0293343Y0348915D01*
X0293467Y0348873D01*
X0293591Y0348827D01*
X0293712Y0348777D01*
X0293832Y0348724D01*
X0293951Y0348667D01*
X0294068Y0348607D01*
X0294182Y0348543D01*
X0294295Y0348475D01*
X0294406Y0348404D01*
X0294515Y0348330D01*
X0294621Y0348253D01*
X0294725Y0348172D01*
X0294826Y0348089D01*
X0294925Y0348002D01*
X0295021Y0347912D01*
X0295114Y0347819D01*
X0295205Y0347724D01*
X0295292Y0347626D01*
X0295377Y0347525D01*
X0295458Y0347422D01*
X0295536Y0347316D01*
X0295611Y0347208D01*
X0295683Y0347098D01*
X0295751Y0346986D01*
X0295816Y0346872D01*
X0295877Y0346755D01*
X0295935Y0346637D01*
X0295989Y0346517D01*
X0296040Y0346396D01*
X0296087Y0346273D01*
X0296130Y0346149D01*
X0296169Y0346024D01*
X0296205Y0345897D01*
X0296236Y0345769D01*
X0296264Y0345641D01*
X0296288Y0345512D01*
X0296308Y0345382D01*
X0296324Y0345251D01*
X0296336Y0345120D01*
X0296344Y0344989D01*
X0296348Y0344858D01*
X0296348Y0344726D01*
X0296344Y0344595D01*
X0296336Y0344464D01*
X0296324Y0344333D01*
X0296308Y0344202D01*
X0296288Y0344072D01*
X0296264Y0343943D01*
X0296236Y0343815D01*
X0296205Y0343687D01*
X0296169Y0343560D01*
X0296130Y0343435D01*
X0296087Y0343311D01*
X0296040Y0343188D01*
X0295989Y0343067D01*
X0295935Y0342947D01*
X0295877Y0342829D01*
X0295816Y0342712D01*
X0295751Y0342598D01*
X0295683Y0342486D01*
X0295611Y0342376D01*
X0295536Y0342268D01*
X0295458Y0342162D01*
X0295377Y0342059D01*
X0295292Y0341958D01*
X0295205Y0341860D01*
X0295114Y0341765D01*
X0295021Y0341672D01*
X0294925Y0341582D01*
X0294826Y0341495D01*
X0294725Y0341412D01*
X0294621Y0341331D01*
X0294515Y0341254D01*
X0294406Y0341180D01*
X0294295Y0341109D01*
X0294183Y0341041D01*
X0294068Y0340977D01*
X0293951Y0340917D01*
X0293832Y0340860D01*
X0293712Y0340807D01*
X0293591Y0340757D01*
X0293467Y0340711D01*
X0293343Y0340669D01*
X0293217Y0340631D01*
X0293090Y0340596D01*
X0292962Y0340565D01*
X0292834Y0340539D01*
X0292704Y0340516D01*
X0292574Y0340497D01*
X0292444Y0340482D01*
X0292313Y0340471D01*
X0292181Y0340464D01*
X0292050Y0340461D01*
X0291918Y0340462D01*
X0291787Y0340467D01*
X0291656Y0340476D01*
X0291525Y0340489D01*
X0291395Y0340506D01*
X0291265Y0340527D01*
X0291136Y0340552D01*
X0291008Y0340580D01*
X0290880Y0340613D01*
X0290754Y0340649D01*
X0290629Y0340690D01*
X0290505Y0340734D01*
X0290382Y0340781D01*
X0290261Y0340833D01*
X0290142Y0340888D01*
X0290024Y0340947D01*
X0289909Y0341009D01*
X0289795Y0341075D01*
X0289683Y0341144D01*
X0289573Y0341216D01*
X0289466Y0341292D01*
X0289361Y0341371D01*
X0289258Y0341453D01*
X0289158Y0341538D01*
X0289061Y0341627D01*
X0288966Y0341718D01*
X0288874Y0341812D01*
X0288785Y0341909D01*
X0288699Y0342008D01*
X0288616Y0342110D01*
X0288536Y0342215D01*
X0288460Y0342321D01*
X0288387Y0342430D01*
X0288317Y0342542D01*
X0288250Y0342655D01*
X0288187Y0342770D01*
X0288127Y0342888D01*
X0288071Y0343006D01*
X0288019Y0343127D01*
X0287970Y0343249D01*
X0287925Y0343373D01*
X0287884Y0343497D01*
X0287847Y0343624D01*
X0287813Y0343751D01*
X0287783Y0343879D01*
X0287758Y0344008D01*
X0287736Y0344137D01*
X0287718Y0344267D01*
X0287704Y0344398D01*
X0287694Y0344529D01*
X0287688Y0344661D01*
X0287686Y0344792D01*
X0315186Y0344792D02*
X0315188Y0344923D01*
X0315194Y0345055D01*
X0315204Y0345186D01*
X0315218Y0345317D01*
X0315236Y0345447D01*
X0315258Y0345576D01*
X0315283Y0345705D01*
X0315313Y0345833D01*
X0315347Y0345960D01*
X0315384Y0346087D01*
X0315425Y0346211D01*
X0315470Y0346335D01*
X0315519Y0346457D01*
X0315571Y0346578D01*
X0315627Y0346696D01*
X0315687Y0346814D01*
X0315750Y0346929D01*
X0315817Y0347042D01*
X0315887Y0347154D01*
X0315960Y0347263D01*
X0316036Y0347369D01*
X0316116Y0347474D01*
X0316199Y0347576D01*
X0316285Y0347675D01*
X0316374Y0347772D01*
X0316466Y0347866D01*
X0316561Y0347957D01*
X0316658Y0348046D01*
X0316758Y0348131D01*
X0316861Y0348213D01*
X0316966Y0348292D01*
X0317073Y0348368D01*
X0317183Y0348440D01*
X0317295Y0348509D01*
X0317409Y0348575D01*
X0317524Y0348637D01*
X0317642Y0348696D01*
X0317761Y0348751D01*
X0317882Y0348803D01*
X0318005Y0348850D01*
X0318129Y0348894D01*
X0318254Y0348935D01*
X0318380Y0348971D01*
X0318508Y0349004D01*
X0318636Y0349032D01*
X0318765Y0349057D01*
X0318895Y0349078D01*
X0319025Y0349095D01*
X0319156Y0349108D01*
X0319287Y0349117D01*
X0319418Y0349122D01*
X0319550Y0349123D01*
X0319681Y0349120D01*
X0319813Y0349113D01*
X0319944Y0349102D01*
X0320074Y0349087D01*
X0320204Y0349068D01*
X0320334Y0349045D01*
X0320462Y0349019D01*
X0320590Y0348988D01*
X0320717Y0348953D01*
X0320843Y0348915D01*
X0320967Y0348873D01*
X0321091Y0348827D01*
X0321212Y0348777D01*
X0321332Y0348724D01*
X0321451Y0348667D01*
X0321568Y0348607D01*
X0321682Y0348543D01*
X0321795Y0348475D01*
X0321906Y0348404D01*
X0322015Y0348330D01*
X0322121Y0348253D01*
X0322225Y0348172D01*
X0322326Y0348089D01*
X0322425Y0348002D01*
X0322521Y0347912D01*
X0322614Y0347819D01*
X0322705Y0347724D01*
X0322792Y0347626D01*
X0322877Y0347525D01*
X0322958Y0347422D01*
X0323036Y0347316D01*
X0323111Y0347208D01*
X0323183Y0347098D01*
X0323251Y0346986D01*
X0323316Y0346872D01*
X0323377Y0346755D01*
X0323435Y0346637D01*
X0323489Y0346517D01*
X0323540Y0346396D01*
X0323587Y0346273D01*
X0323630Y0346149D01*
X0323669Y0346024D01*
X0323705Y0345897D01*
X0323736Y0345769D01*
X0323764Y0345641D01*
X0323788Y0345512D01*
X0323808Y0345382D01*
X0323824Y0345251D01*
X0323836Y0345120D01*
X0323844Y0344989D01*
X0323848Y0344858D01*
X0323848Y0344726D01*
X0323844Y0344595D01*
X0323836Y0344464D01*
X0323824Y0344333D01*
X0323808Y0344202D01*
X0323788Y0344072D01*
X0323764Y0343943D01*
X0323736Y0343815D01*
X0323705Y0343687D01*
X0323669Y0343560D01*
X0323630Y0343435D01*
X0323587Y0343311D01*
X0323540Y0343188D01*
X0323489Y0343067D01*
X0323435Y0342947D01*
X0323377Y0342829D01*
X0323316Y0342712D01*
X0323251Y0342598D01*
X0323183Y0342486D01*
X0323111Y0342376D01*
X0323036Y0342268D01*
X0322958Y0342162D01*
X0322877Y0342059D01*
X0322792Y0341958D01*
X0322705Y0341860D01*
X0322614Y0341765D01*
X0322521Y0341672D01*
X0322425Y0341582D01*
X0322326Y0341495D01*
X0322225Y0341412D01*
X0322121Y0341331D01*
X0322015Y0341254D01*
X0321906Y0341180D01*
X0321795Y0341109D01*
X0321683Y0341041D01*
X0321568Y0340977D01*
X0321451Y0340917D01*
X0321332Y0340860D01*
X0321212Y0340807D01*
X0321091Y0340757D01*
X0320967Y0340711D01*
X0320843Y0340669D01*
X0320717Y0340631D01*
X0320590Y0340596D01*
X0320462Y0340565D01*
X0320334Y0340539D01*
X0320204Y0340516D01*
X0320074Y0340497D01*
X0319944Y0340482D01*
X0319813Y0340471D01*
X0319681Y0340464D01*
X0319550Y0340461D01*
X0319418Y0340462D01*
X0319287Y0340467D01*
X0319156Y0340476D01*
X0319025Y0340489D01*
X0318895Y0340506D01*
X0318765Y0340527D01*
X0318636Y0340552D01*
X0318508Y0340580D01*
X0318380Y0340613D01*
X0318254Y0340649D01*
X0318129Y0340690D01*
X0318005Y0340734D01*
X0317882Y0340781D01*
X0317761Y0340833D01*
X0317642Y0340888D01*
X0317524Y0340947D01*
X0317409Y0341009D01*
X0317295Y0341075D01*
X0317183Y0341144D01*
X0317073Y0341216D01*
X0316966Y0341292D01*
X0316861Y0341371D01*
X0316758Y0341453D01*
X0316658Y0341538D01*
X0316561Y0341627D01*
X0316466Y0341718D01*
X0316374Y0341812D01*
X0316285Y0341909D01*
X0316199Y0342008D01*
X0316116Y0342110D01*
X0316036Y0342215D01*
X0315960Y0342321D01*
X0315887Y0342430D01*
X0315817Y0342542D01*
X0315750Y0342655D01*
X0315687Y0342770D01*
X0315627Y0342888D01*
X0315571Y0343006D01*
X0315519Y0343127D01*
X0315470Y0343249D01*
X0315425Y0343373D01*
X0315384Y0343497D01*
X0315347Y0343624D01*
X0315313Y0343751D01*
X0315283Y0343879D01*
X0315258Y0344008D01*
X0315236Y0344137D01*
X0315218Y0344267D01*
X0315204Y0344398D01*
X0315194Y0344529D01*
X0315188Y0344661D01*
X0315186Y0344792D01*
X0345936Y0344792D02*
X0345938Y0344923D01*
X0345944Y0345055D01*
X0345954Y0345186D01*
X0345968Y0345317D01*
X0345986Y0345447D01*
X0346008Y0345576D01*
X0346033Y0345705D01*
X0346063Y0345833D01*
X0346097Y0345960D01*
X0346134Y0346087D01*
X0346175Y0346211D01*
X0346220Y0346335D01*
X0346269Y0346457D01*
X0346321Y0346578D01*
X0346377Y0346696D01*
X0346437Y0346814D01*
X0346500Y0346929D01*
X0346567Y0347042D01*
X0346637Y0347154D01*
X0346710Y0347263D01*
X0346786Y0347369D01*
X0346866Y0347474D01*
X0346949Y0347576D01*
X0347035Y0347675D01*
X0347124Y0347772D01*
X0347216Y0347866D01*
X0347311Y0347957D01*
X0347408Y0348046D01*
X0347508Y0348131D01*
X0347611Y0348213D01*
X0347716Y0348292D01*
X0347823Y0348368D01*
X0347933Y0348440D01*
X0348045Y0348509D01*
X0348159Y0348575D01*
X0348274Y0348637D01*
X0348392Y0348696D01*
X0348511Y0348751D01*
X0348632Y0348803D01*
X0348755Y0348850D01*
X0348879Y0348894D01*
X0349004Y0348935D01*
X0349130Y0348971D01*
X0349258Y0349004D01*
X0349386Y0349032D01*
X0349515Y0349057D01*
X0349645Y0349078D01*
X0349775Y0349095D01*
X0349906Y0349108D01*
X0350037Y0349117D01*
X0350168Y0349122D01*
X0350300Y0349123D01*
X0350431Y0349120D01*
X0350563Y0349113D01*
X0350694Y0349102D01*
X0350824Y0349087D01*
X0350954Y0349068D01*
X0351084Y0349045D01*
X0351212Y0349019D01*
X0351340Y0348988D01*
X0351467Y0348953D01*
X0351593Y0348915D01*
X0351717Y0348873D01*
X0351841Y0348827D01*
X0351962Y0348777D01*
X0352082Y0348724D01*
X0352201Y0348667D01*
X0352318Y0348607D01*
X0352432Y0348543D01*
X0352545Y0348475D01*
X0352656Y0348404D01*
X0352765Y0348330D01*
X0352871Y0348253D01*
X0352975Y0348172D01*
X0353076Y0348089D01*
X0353175Y0348002D01*
X0353271Y0347912D01*
X0353364Y0347819D01*
X0353455Y0347724D01*
X0353542Y0347626D01*
X0353627Y0347525D01*
X0353708Y0347422D01*
X0353786Y0347316D01*
X0353861Y0347208D01*
X0353933Y0347098D01*
X0354001Y0346986D01*
X0354066Y0346872D01*
X0354127Y0346755D01*
X0354185Y0346637D01*
X0354239Y0346517D01*
X0354290Y0346396D01*
X0354337Y0346273D01*
X0354380Y0346149D01*
X0354419Y0346024D01*
X0354455Y0345897D01*
X0354486Y0345769D01*
X0354514Y0345641D01*
X0354538Y0345512D01*
X0354558Y0345382D01*
X0354574Y0345251D01*
X0354586Y0345120D01*
X0354594Y0344989D01*
X0354598Y0344858D01*
X0354598Y0344726D01*
X0354594Y0344595D01*
X0354586Y0344464D01*
X0354574Y0344333D01*
X0354558Y0344202D01*
X0354538Y0344072D01*
X0354514Y0343943D01*
X0354486Y0343815D01*
X0354455Y0343687D01*
X0354419Y0343560D01*
X0354380Y0343435D01*
X0354337Y0343311D01*
X0354290Y0343188D01*
X0354239Y0343067D01*
X0354185Y0342947D01*
X0354127Y0342829D01*
X0354066Y0342712D01*
X0354001Y0342598D01*
X0353933Y0342486D01*
X0353861Y0342376D01*
X0353786Y0342268D01*
X0353708Y0342162D01*
X0353627Y0342059D01*
X0353542Y0341958D01*
X0353455Y0341860D01*
X0353364Y0341765D01*
X0353271Y0341672D01*
X0353175Y0341582D01*
X0353076Y0341495D01*
X0352975Y0341412D01*
X0352871Y0341331D01*
X0352765Y0341254D01*
X0352656Y0341180D01*
X0352545Y0341109D01*
X0352433Y0341041D01*
X0352318Y0340977D01*
X0352201Y0340917D01*
X0352082Y0340860D01*
X0351962Y0340807D01*
X0351841Y0340757D01*
X0351717Y0340711D01*
X0351593Y0340669D01*
X0351467Y0340631D01*
X0351340Y0340596D01*
X0351212Y0340565D01*
X0351084Y0340539D01*
X0350954Y0340516D01*
X0350824Y0340497D01*
X0350694Y0340482D01*
X0350563Y0340471D01*
X0350431Y0340464D01*
X0350300Y0340461D01*
X0350168Y0340462D01*
X0350037Y0340467D01*
X0349906Y0340476D01*
X0349775Y0340489D01*
X0349645Y0340506D01*
X0349515Y0340527D01*
X0349386Y0340552D01*
X0349258Y0340580D01*
X0349130Y0340613D01*
X0349004Y0340649D01*
X0348879Y0340690D01*
X0348755Y0340734D01*
X0348632Y0340781D01*
X0348511Y0340833D01*
X0348392Y0340888D01*
X0348274Y0340947D01*
X0348159Y0341009D01*
X0348045Y0341075D01*
X0347933Y0341144D01*
X0347823Y0341216D01*
X0347716Y0341292D01*
X0347611Y0341371D01*
X0347508Y0341453D01*
X0347408Y0341538D01*
X0347311Y0341627D01*
X0347216Y0341718D01*
X0347124Y0341812D01*
X0347035Y0341909D01*
X0346949Y0342008D01*
X0346866Y0342110D01*
X0346786Y0342215D01*
X0346710Y0342321D01*
X0346637Y0342430D01*
X0346567Y0342542D01*
X0346500Y0342655D01*
X0346437Y0342770D01*
X0346377Y0342888D01*
X0346321Y0343006D01*
X0346269Y0343127D01*
X0346220Y0343249D01*
X0346175Y0343373D01*
X0346134Y0343497D01*
X0346097Y0343624D01*
X0346063Y0343751D01*
X0346033Y0343879D01*
X0346008Y0344008D01*
X0345986Y0344137D01*
X0345968Y0344267D01*
X0345954Y0344398D01*
X0345944Y0344529D01*
X0345938Y0344661D01*
X0345936Y0344792D01*
X0382550Y0288050D02*
X0388550Y0288050D01*
X0388610Y0288048D01*
X0388671Y0288043D01*
X0388730Y0288034D01*
X0388789Y0288021D01*
X0388848Y0288005D01*
X0388905Y0287985D01*
X0388960Y0287962D01*
X0389015Y0287935D01*
X0389067Y0287906D01*
X0389118Y0287873D01*
X0389167Y0287837D01*
X0389213Y0287799D01*
X0389257Y0287757D01*
X0389299Y0287713D01*
X0389337Y0287667D01*
X0389373Y0287618D01*
X0389406Y0287567D01*
X0389435Y0287515D01*
X0389462Y0287460D01*
X0389485Y0287405D01*
X0389505Y0287348D01*
X0389521Y0287289D01*
X0389534Y0287230D01*
X0389543Y0287171D01*
X0389548Y0287110D01*
X0389550Y0287050D01*
X0389550Y0285550D01*
X0389050Y0285050D01*
X0389050Y0271050D01*
X0389550Y0270550D01*
X0389550Y0269050D01*
X0389548Y0268990D01*
X0389543Y0268929D01*
X0389534Y0268870D01*
X0389521Y0268811D01*
X0389505Y0268752D01*
X0389485Y0268695D01*
X0389462Y0268640D01*
X0389435Y0268585D01*
X0389406Y0268533D01*
X0389373Y0268482D01*
X0389337Y0268433D01*
X0389299Y0268387D01*
X0389257Y0268343D01*
X0389213Y0268301D01*
X0389167Y0268263D01*
X0389118Y0268227D01*
X0389067Y0268194D01*
X0389015Y0268165D01*
X0388960Y0268138D01*
X0388905Y0268115D01*
X0388848Y0268095D01*
X0388789Y0268079D01*
X0388730Y0268066D01*
X0388671Y0268057D01*
X0388610Y0268052D01*
X0388550Y0268050D01*
X0382550Y0268050D01*
X0382490Y0268052D01*
X0382429Y0268057D01*
X0382370Y0268066D01*
X0382311Y0268079D01*
X0382252Y0268095D01*
X0382195Y0268115D01*
X0382140Y0268138D01*
X0382085Y0268165D01*
X0382033Y0268194D01*
X0381982Y0268227D01*
X0381933Y0268263D01*
X0381887Y0268301D01*
X0381843Y0268343D01*
X0381801Y0268387D01*
X0381763Y0268433D01*
X0381727Y0268482D01*
X0381694Y0268533D01*
X0381665Y0268585D01*
X0381638Y0268640D01*
X0381615Y0268695D01*
X0381595Y0268752D01*
X0381579Y0268811D01*
X0381566Y0268870D01*
X0381557Y0268929D01*
X0381552Y0268990D01*
X0381550Y0269050D01*
X0381550Y0270550D01*
X0382050Y0271050D01*
X0382050Y0285050D01*
X0381550Y0285550D01*
X0381550Y0287050D01*
X0381552Y0287110D01*
X0381557Y0287171D01*
X0381566Y0287230D01*
X0381579Y0287289D01*
X0381595Y0287348D01*
X0381615Y0287405D01*
X0381638Y0287460D01*
X0381665Y0287515D01*
X0381694Y0287567D01*
X0381727Y0287618D01*
X0381763Y0287667D01*
X0381801Y0287713D01*
X0381843Y0287757D01*
X0381887Y0287799D01*
X0381933Y0287837D01*
X0381982Y0287873D01*
X0382033Y0287906D01*
X0382085Y0287935D01*
X0382140Y0287962D01*
X0382195Y0287985D01*
X0382252Y0288005D01*
X0382311Y0288021D01*
X0382370Y0288034D01*
X0382429Y0288043D01*
X0382490Y0288048D01*
X0382550Y0288050D01*
X0395550Y0279300D02*
X0395553Y0279545D01*
X0395562Y0279791D01*
X0395577Y0280036D01*
X0395598Y0280280D01*
X0395625Y0280524D01*
X0395658Y0280767D01*
X0395697Y0281010D01*
X0395742Y0281251D01*
X0395793Y0281491D01*
X0395850Y0281730D01*
X0395912Y0281967D01*
X0395981Y0282203D01*
X0396055Y0282437D01*
X0396135Y0282669D01*
X0396220Y0282899D01*
X0396311Y0283127D01*
X0396408Y0283352D01*
X0396510Y0283576D01*
X0396618Y0283796D01*
X0396731Y0284014D01*
X0396849Y0284229D01*
X0396973Y0284441D01*
X0397101Y0284650D01*
X0397235Y0284856D01*
X0397374Y0285058D01*
X0397518Y0285257D01*
X0397667Y0285452D01*
X0397820Y0285644D01*
X0397978Y0285832D01*
X0398140Y0286016D01*
X0398308Y0286195D01*
X0398479Y0286371D01*
X0398655Y0286542D01*
X0398834Y0286710D01*
X0399018Y0286872D01*
X0399206Y0287030D01*
X0399398Y0287183D01*
X0399593Y0287332D01*
X0399792Y0287476D01*
X0399994Y0287615D01*
X0400200Y0287749D01*
X0400409Y0287877D01*
X0400621Y0288001D01*
X0400836Y0288119D01*
X0401054Y0288232D01*
X0401274Y0288340D01*
X0401498Y0288442D01*
X0401723Y0288539D01*
X0401951Y0288630D01*
X0402181Y0288715D01*
X0402413Y0288795D01*
X0402647Y0288869D01*
X0402883Y0288938D01*
X0403120Y0289000D01*
X0403359Y0289057D01*
X0403599Y0289108D01*
X0403840Y0289153D01*
X0404083Y0289192D01*
X0404326Y0289225D01*
X0404570Y0289252D01*
X0404814Y0289273D01*
X0405059Y0289288D01*
X0405305Y0289297D01*
X0405550Y0289300D01*
X0405795Y0289297D01*
X0406041Y0289288D01*
X0406286Y0289273D01*
X0406530Y0289252D01*
X0406774Y0289225D01*
X0407017Y0289192D01*
X0407260Y0289153D01*
X0407501Y0289108D01*
X0407741Y0289057D01*
X0407980Y0289000D01*
X0408217Y0288938D01*
X0408453Y0288869D01*
X0408687Y0288795D01*
X0408919Y0288715D01*
X0409149Y0288630D01*
X0409377Y0288539D01*
X0409602Y0288442D01*
X0409826Y0288340D01*
X0410046Y0288232D01*
X0410264Y0288119D01*
X0410479Y0288001D01*
X0410691Y0287877D01*
X0410900Y0287749D01*
X0411106Y0287615D01*
X0411308Y0287476D01*
X0411507Y0287332D01*
X0411702Y0287183D01*
X0411894Y0287030D01*
X0412082Y0286872D01*
X0412266Y0286710D01*
X0412445Y0286542D01*
X0412621Y0286371D01*
X0412792Y0286195D01*
X0412960Y0286016D01*
X0413122Y0285832D01*
X0413280Y0285644D01*
X0413433Y0285452D01*
X0413582Y0285257D01*
X0413726Y0285058D01*
X0413865Y0284856D01*
X0413999Y0284650D01*
X0414127Y0284441D01*
X0414251Y0284229D01*
X0414369Y0284014D01*
X0414482Y0283796D01*
X0414590Y0283576D01*
X0414692Y0283352D01*
X0414789Y0283127D01*
X0414880Y0282899D01*
X0414965Y0282669D01*
X0415045Y0282437D01*
X0415119Y0282203D01*
X0415188Y0281967D01*
X0415250Y0281730D01*
X0415307Y0281491D01*
X0415358Y0281251D01*
X0415403Y0281010D01*
X0415442Y0280767D01*
X0415475Y0280524D01*
X0415502Y0280280D01*
X0415523Y0280036D01*
X0415538Y0279791D01*
X0415547Y0279545D01*
X0415550Y0279300D01*
X0415547Y0279055D01*
X0415538Y0278809D01*
X0415523Y0278564D01*
X0415502Y0278320D01*
X0415475Y0278076D01*
X0415442Y0277833D01*
X0415403Y0277590D01*
X0415358Y0277349D01*
X0415307Y0277109D01*
X0415250Y0276870D01*
X0415188Y0276633D01*
X0415119Y0276397D01*
X0415045Y0276163D01*
X0414965Y0275931D01*
X0414880Y0275701D01*
X0414789Y0275473D01*
X0414692Y0275248D01*
X0414590Y0275024D01*
X0414482Y0274804D01*
X0414369Y0274586D01*
X0414251Y0274371D01*
X0414127Y0274159D01*
X0413999Y0273950D01*
X0413865Y0273744D01*
X0413726Y0273542D01*
X0413582Y0273343D01*
X0413433Y0273148D01*
X0413280Y0272956D01*
X0413122Y0272768D01*
X0412960Y0272584D01*
X0412792Y0272405D01*
X0412621Y0272229D01*
X0412445Y0272058D01*
X0412266Y0271890D01*
X0412082Y0271728D01*
X0411894Y0271570D01*
X0411702Y0271417D01*
X0411507Y0271268D01*
X0411308Y0271124D01*
X0411106Y0270985D01*
X0410900Y0270851D01*
X0410691Y0270723D01*
X0410479Y0270599D01*
X0410264Y0270481D01*
X0410046Y0270368D01*
X0409826Y0270260D01*
X0409602Y0270158D01*
X0409377Y0270061D01*
X0409149Y0269970D01*
X0408919Y0269885D01*
X0408687Y0269805D01*
X0408453Y0269731D01*
X0408217Y0269662D01*
X0407980Y0269600D01*
X0407741Y0269543D01*
X0407501Y0269492D01*
X0407260Y0269447D01*
X0407017Y0269408D01*
X0406774Y0269375D01*
X0406530Y0269348D01*
X0406286Y0269327D01*
X0406041Y0269312D01*
X0405795Y0269303D01*
X0405550Y0269300D01*
X0405305Y0269303D01*
X0405059Y0269312D01*
X0404814Y0269327D01*
X0404570Y0269348D01*
X0404326Y0269375D01*
X0404083Y0269408D01*
X0403840Y0269447D01*
X0403599Y0269492D01*
X0403359Y0269543D01*
X0403120Y0269600D01*
X0402883Y0269662D01*
X0402647Y0269731D01*
X0402413Y0269805D01*
X0402181Y0269885D01*
X0401951Y0269970D01*
X0401723Y0270061D01*
X0401498Y0270158D01*
X0401274Y0270260D01*
X0401054Y0270368D01*
X0400836Y0270481D01*
X0400621Y0270599D01*
X0400409Y0270723D01*
X0400200Y0270851D01*
X0399994Y0270985D01*
X0399792Y0271124D01*
X0399593Y0271268D01*
X0399398Y0271417D01*
X0399206Y0271570D01*
X0399018Y0271728D01*
X0398834Y0271890D01*
X0398655Y0272058D01*
X0398479Y0272229D01*
X0398308Y0272405D01*
X0398140Y0272584D01*
X0397978Y0272768D01*
X0397820Y0272956D01*
X0397667Y0273148D01*
X0397518Y0273343D01*
X0397374Y0273542D01*
X0397235Y0273744D01*
X0397101Y0273950D01*
X0396973Y0274159D01*
X0396849Y0274371D01*
X0396731Y0274586D01*
X0396618Y0274804D01*
X0396510Y0275024D01*
X0396408Y0275248D01*
X0396311Y0275473D01*
X0396220Y0275701D01*
X0396135Y0275931D01*
X0396055Y0276163D01*
X0395981Y0276397D01*
X0395912Y0276633D01*
X0395850Y0276870D01*
X0395793Y0277109D01*
X0395742Y0277349D01*
X0395697Y0277590D01*
X0395658Y0277833D01*
X0395625Y0278076D01*
X0395598Y0278320D01*
X0395577Y0278564D01*
X0395562Y0278809D01*
X0395553Y0279055D01*
X0395550Y0279300D01*
X0389300Y0256800D02*
X0384300Y0256800D01*
X0381800Y0254300D01*
X0381800Y0249300D01*
X0384300Y0246800D01*
X0389300Y0246800D01*
X0391800Y0249300D01*
X0391800Y0254300D01*
X0389300Y0256800D01*
X0389300Y0196800D02*
X0384300Y0196800D01*
X0381800Y0194300D01*
X0381800Y0189300D01*
X0384300Y0186800D01*
X0389300Y0186800D01*
X0391800Y0189300D01*
X0391800Y0194300D01*
X0389300Y0196800D01*
X0369800Y0156800D02*
X0367300Y0156800D01*
X0369800Y0156800D02*
X0369876Y0156798D01*
X0369952Y0156792D01*
X0370027Y0156783D01*
X0370102Y0156769D01*
X0370176Y0156752D01*
X0370249Y0156731D01*
X0370321Y0156707D01*
X0370392Y0156678D01*
X0370461Y0156647D01*
X0370528Y0156612D01*
X0370593Y0156573D01*
X0370657Y0156531D01*
X0370718Y0156486D01*
X0370777Y0156438D01*
X0370833Y0156387D01*
X0370887Y0156333D01*
X0370938Y0156277D01*
X0370986Y0156218D01*
X0371031Y0156157D01*
X0371073Y0156093D01*
X0371112Y0156028D01*
X0371147Y0155961D01*
X0371178Y0155892D01*
X0371207Y0155821D01*
X0371231Y0155749D01*
X0371252Y0155676D01*
X0371269Y0155602D01*
X0371283Y0155527D01*
X0371292Y0155452D01*
X0371298Y0155376D01*
X0371300Y0155300D01*
X0371300Y0118300D01*
X0371298Y0118224D01*
X0371292Y0118148D01*
X0371283Y0118073D01*
X0371269Y0117998D01*
X0371252Y0117924D01*
X0371231Y0117851D01*
X0371207Y0117779D01*
X0371178Y0117708D01*
X0371147Y0117639D01*
X0371112Y0117572D01*
X0371073Y0117507D01*
X0371031Y0117443D01*
X0370986Y0117382D01*
X0370938Y0117323D01*
X0370887Y0117267D01*
X0370833Y0117213D01*
X0370777Y0117162D01*
X0370718Y0117114D01*
X0370657Y0117069D01*
X0370593Y0117027D01*
X0370528Y0116988D01*
X0370461Y0116953D01*
X0370392Y0116922D01*
X0370321Y0116893D01*
X0370249Y0116869D01*
X0370176Y0116848D01*
X0370102Y0116831D01*
X0370027Y0116817D01*
X0369952Y0116808D01*
X0369876Y0116802D01*
X0369800Y0116800D01*
X0357800Y0116800D01*
X0351800Y0125300D02*
X0351800Y0127300D01*
X0353300Y0130300D02*
X0350300Y0130300D01*
X0350300Y0135300D01*
X0347800Y0137300D01*
X0347800Y0138300D01*
X0350300Y0138300D01*
X0350300Y0143300D01*
X0353300Y0143300D01*
X0353300Y0138300D01*
X0355800Y0138300D01*
X0355800Y0137300D01*
X0353300Y0135300D01*
X0353300Y0130300D01*
X0358800Y0129800D02*
X0359800Y0128800D01*
X0361300Y0136800D02*
X0363300Y0136800D01*
X0357800Y0142800D02*
X0359800Y0144800D01*
X0340300Y0136800D02*
X0340303Y0137082D01*
X0340314Y0137364D01*
X0340331Y0137646D01*
X0340355Y0137927D01*
X0340386Y0138208D01*
X0340424Y0138487D01*
X0340469Y0138766D01*
X0340521Y0139044D01*
X0340579Y0139320D01*
X0340645Y0139594D01*
X0340717Y0139867D01*
X0340795Y0140138D01*
X0340880Y0140407D01*
X0340972Y0140674D01*
X0341071Y0140939D01*
X0341175Y0141201D01*
X0341287Y0141460D01*
X0341404Y0141717D01*
X0341528Y0141971D01*
X0341658Y0142221D01*
X0341794Y0142468D01*
X0341936Y0142712D01*
X0342084Y0142952D01*
X0342238Y0143189D01*
X0342398Y0143422D01*
X0342563Y0143651D01*
X0342734Y0143875D01*
X0342910Y0144096D01*
X0343092Y0144311D01*
X0343279Y0144523D01*
X0343471Y0144730D01*
X0343668Y0144932D01*
X0343870Y0145129D01*
X0344077Y0145321D01*
X0344289Y0145508D01*
X0344504Y0145690D01*
X0344725Y0145866D01*
X0344949Y0146037D01*
X0345178Y0146202D01*
X0345411Y0146362D01*
X0345648Y0146516D01*
X0345888Y0146664D01*
X0346132Y0146806D01*
X0346379Y0146942D01*
X0346629Y0147072D01*
X0346883Y0147196D01*
X0347140Y0147313D01*
X0347399Y0147425D01*
X0347661Y0147529D01*
X0347926Y0147628D01*
X0348193Y0147720D01*
X0348462Y0147805D01*
X0348733Y0147883D01*
X0349006Y0147955D01*
X0349280Y0148021D01*
X0349556Y0148079D01*
X0349834Y0148131D01*
X0350113Y0148176D01*
X0350392Y0148214D01*
X0350673Y0148245D01*
X0350954Y0148269D01*
X0351236Y0148286D01*
X0351518Y0148297D01*
X0351800Y0148300D01*
X0352082Y0148297D01*
X0352364Y0148286D01*
X0352646Y0148269D01*
X0352927Y0148245D01*
X0353208Y0148214D01*
X0353487Y0148176D01*
X0353766Y0148131D01*
X0354044Y0148079D01*
X0354320Y0148021D01*
X0354594Y0147955D01*
X0354867Y0147883D01*
X0355138Y0147805D01*
X0355407Y0147720D01*
X0355674Y0147628D01*
X0355939Y0147529D01*
X0356201Y0147425D01*
X0356460Y0147313D01*
X0356717Y0147196D01*
X0356971Y0147072D01*
X0357221Y0146942D01*
X0357468Y0146806D01*
X0357712Y0146664D01*
X0357952Y0146516D01*
X0358189Y0146362D01*
X0358422Y0146202D01*
X0358651Y0146037D01*
X0358875Y0145866D01*
X0359096Y0145690D01*
X0359311Y0145508D01*
X0359523Y0145321D01*
X0359730Y0145129D01*
X0359932Y0144932D01*
X0360129Y0144730D01*
X0360321Y0144523D01*
X0360508Y0144311D01*
X0360690Y0144096D01*
X0360866Y0143875D01*
X0361037Y0143651D01*
X0361202Y0143422D01*
X0361362Y0143189D01*
X0361516Y0142952D01*
X0361664Y0142712D01*
X0361806Y0142468D01*
X0361942Y0142221D01*
X0362072Y0141971D01*
X0362196Y0141717D01*
X0362313Y0141460D01*
X0362425Y0141201D01*
X0362529Y0140939D01*
X0362628Y0140674D01*
X0362720Y0140407D01*
X0362805Y0140138D01*
X0362883Y0139867D01*
X0362955Y0139594D01*
X0363021Y0139320D01*
X0363079Y0139044D01*
X0363131Y0138766D01*
X0363176Y0138487D01*
X0363214Y0138208D01*
X0363245Y0137927D01*
X0363269Y0137646D01*
X0363286Y0137364D01*
X0363297Y0137082D01*
X0363300Y0136800D01*
X0363297Y0136518D01*
X0363286Y0136236D01*
X0363269Y0135954D01*
X0363245Y0135673D01*
X0363214Y0135392D01*
X0363176Y0135113D01*
X0363131Y0134834D01*
X0363079Y0134556D01*
X0363021Y0134280D01*
X0362955Y0134006D01*
X0362883Y0133733D01*
X0362805Y0133462D01*
X0362720Y0133193D01*
X0362628Y0132926D01*
X0362529Y0132661D01*
X0362425Y0132399D01*
X0362313Y0132140D01*
X0362196Y0131883D01*
X0362072Y0131629D01*
X0361942Y0131379D01*
X0361806Y0131132D01*
X0361664Y0130888D01*
X0361516Y0130648D01*
X0361362Y0130411D01*
X0361202Y0130178D01*
X0361037Y0129949D01*
X0360866Y0129725D01*
X0360690Y0129504D01*
X0360508Y0129289D01*
X0360321Y0129077D01*
X0360129Y0128870D01*
X0359932Y0128668D01*
X0359730Y0128471D01*
X0359523Y0128279D01*
X0359311Y0128092D01*
X0359096Y0127910D01*
X0358875Y0127734D01*
X0358651Y0127563D01*
X0358422Y0127398D01*
X0358189Y0127238D01*
X0357952Y0127084D01*
X0357712Y0126936D01*
X0357468Y0126794D01*
X0357221Y0126658D01*
X0356971Y0126528D01*
X0356717Y0126404D01*
X0356460Y0126287D01*
X0356201Y0126175D01*
X0355939Y0126071D01*
X0355674Y0125972D01*
X0355407Y0125880D01*
X0355138Y0125795D01*
X0354867Y0125717D01*
X0354594Y0125645D01*
X0354320Y0125579D01*
X0354044Y0125521D01*
X0353766Y0125469D01*
X0353487Y0125424D01*
X0353208Y0125386D01*
X0352927Y0125355D01*
X0352646Y0125331D01*
X0352364Y0125314D01*
X0352082Y0125303D01*
X0351800Y0125300D01*
X0351518Y0125303D01*
X0351236Y0125314D01*
X0350954Y0125331D01*
X0350673Y0125355D01*
X0350392Y0125386D01*
X0350113Y0125424D01*
X0349834Y0125469D01*
X0349556Y0125521D01*
X0349280Y0125579D01*
X0349006Y0125645D01*
X0348733Y0125717D01*
X0348462Y0125795D01*
X0348193Y0125880D01*
X0347926Y0125972D01*
X0347661Y0126071D01*
X0347399Y0126175D01*
X0347140Y0126287D01*
X0346883Y0126404D01*
X0346629Y0126528D01*
X0346379Y0126658D01*
X0346132Y0126794D01*
X0345888Y0126936D01*
X0345648Y0127084D01*
X0345411Y0127238D01*
X0345178Y0127398D01*
X0344949Y0127563D01*
X0344725Y0127734D01*
X0344504Y0127910D01*
X0344289Y0128092D01*
X0344077Y0128279D01*
X0343870Y0128471D01*
X0343668Y0128668D01*
X0343471Y0128870D01*
X0343279Y0129077D01*
X0343092Y0129289D01*
X0342910Y0129504D01*
X0342734Y0129725D01*
X0342563Y0129949D01*
X0342398Y0130178D01*
X0342238Y0130411D01*
X0342084Y0130648D01*
X0341936Y0130888D01*
X0341794Y0131132D01*
X0341658Y0131379D01*
X0341528Y0131629D01*
X0341404Y0131883D01*
X0341287Y0132140D01*
X0341175Y0132399D01*
X0341071Y0132661D01*
X0340972Y0132926D01*
X0340880Y0133193D01*
X0340795Y0133462D01*
X0340717Y0133733D01*
X0340645Y0134006D01*
X0340579Y0134280D01*
X0340521Y0134556D01*
X0340469Y0134834D01*
X0340424Y0135113D01*
X0340386Y0135392D01*
X0340355Y0135673D01*
X0340331Y0135954D01*
X0340314Y0136236D01*
X0340303Y0136518D01*
X0340300Y0136800D01*
X0342300Y0136800D01*
X0345800Y0142800D02*
X0343800Y0144800D01*
X0343800Y0136800D02*
X0343802Y0136996D01*
X0343810Y0137193D01*
X0343822Y0137389D01*
X0343839Y0137584D01*
X0343860Y0137779D01*
X0343887Y0137974D01*
X0343918Y0138168D01*
X0343954Y0138361D01*
X0343994Y0138553D01*
X0344040Y0138744D01*
X0344090Y0138934D01*
X0344144Y0139122D01*
X0344204Y0139309D01*
X0344268Y0139495D01*
X0344336Y0139679D01*
X0344409Y0139861D01*
X0344486Y0140042D01*
X0344568Y0140220D01*
X0344654Y0140397D01*
X0344745Y0140571D01*
X0344839Y0140743D01*
X0344938Y0140913D01*
X0345041Y0141080D01*
X0345148Y0141245D01*
X0345259Y0141406D01*
X0345374Y0141566D01*
X0345493Y0141722D01*
X0345616Y0141875D01*
X0345742Y0142025D01*
X0345872Y0142172D01*
X0346006Y0142316D01*
X0346143Y0142457D01*
X0346284Y0142594D01*
X0346428Y0142728D01*
X0346575Y0142858D01*
X0346725Y0142984D01*
X0346878Y0143107D01*
X0347034Y0143226D01*
X0347194Y0143341D01*
X0347355Y0143452D01*
X0347520Y0143559D01*
X0347687Y0143662D01*
X0347857Y0143761D01*
X0348029Y0143855D01*
X0348203Y0143946D01*
X0348380Y0144032D01*
X0348558Y0144114D01*
X0348739Y0144191D01*
X0348921Y0144264D01*
X0349105Y0144332D01*
X0349291Y0144396D01*
X0349478Y0144456D01*
X0349666Y0144510D01*
X0349856Y0144560D01*
X0350047Y0144606D01*
X0350239Y0144646D01*
X0350432Y0144682D01*
X0350626Y0144713D01*
X0350821Y0144740D01*
X0351016Y0144761D01*
X0351211Y0144778D01*
X0351407Y0144790D01*
X0351604Y0144798D01*
X0351800Y0144800D01*
X0351996Y0144798D01*
X0352193Y0144790D01*
X0352389Y0144778D01*
X0352584Y0144761D01*
X0352779Y0144740D01*
X0352974Y0144713D01*
X0353168Y0144682D01*
X0353361Y0144646D01*
X0353553Y0144606D01*
X0353744Y0144560D01*
X0353934Y0144510D01*
X0354122Y0144456D01*
X0354309Y0144396D01*
X0354495Y0144332D01*
X0354679Y0144264D01*
X0354861Y0144191D01*
X0355042Y0144114D01*
X0355220Y0144032D01*
X0355397Y0143946D01*
X0355571Y0143855D01*
X0355743Y0143761D01*
X0355913Y0143662D01*
X0356080Y0143559D01*
X0356245Y0143452D01*
X0356406Y0143341D01*
X0356566Y0143226D01*
X0356722Y0143107D01*
X0356875Y0142984D01*
X0357025Y0142858D01*
X0357172Y0142728D01*
X0357316Y0142594D01*
X0357457Y0142457D01*
X0357594Y0142316D01*
X0357728Y0142172D01*
X0357858Y0142025D01*
X0357984Y0141875D01*
X0358107Y0141722D01*
X0358226Y0141566D01*
X0358341Y0141406D01*
X0358452Y0141245D01*
X0358559Y0141080D01*
X0358662Y0140913D01*
X0358761Y0140743D01*
X0358855Y0140571D01*
X0358946Y0140397D01*
X0359032Y0140220D01*
X0359114Y0140042D01*
X0359191Y0139861D01*
X0359264Y0139679D01*
X0359332Y0139495D01*
X0359396Y0139309D01*
X0359456Y0139122D01*
X0359510Y0138934D01*
X0359560Y0138744D01*
X0359606Y0138553D01*
X0359646Y0138361D01*
X0359682Y0138168D01*
X0359713Y0137974D01*
X0359740Y0137779D01*
X0359761Y0137584D01*
X0359778Y0137389D01*
X0359790Y0137193D01*
X0359798Y0136996D01*
X0359800Y0136800D01*
X0359798Y0136604D01*
X0359790Y0136407D01*
X0359778Y0136211D01*
X0359761Y0136016D01*
X0359740Y0135821D01*
X0359713Y0135626D01*
X0359682Y0135432D01*
X0359646Y0135239D01*
X0359606Y0135047D01*
X0359560Y0134856D01*
X0359510Y0134666D01*
X0359456Y0134478D01*
X0359396Y0134291D01*
X0359332Y0134105D01*
X0359264Y0133921D01*
X0359191Y0133739D01*
X0359114Y0133558D01*
X0359032Y0133380D01*
X0358946Y0133203D01*
X0358855Y0133029D01*
X0358761Y0132857D01*
X0358662Y0132687D01*
X0358559Y0132520D01*
X0358452Y0132355D01*
X0358341Y0132194D01*
X0358226Y0132034D01*
X0358107Y0131878D01*
X0357984Y0131725D01*
X0357858Y0131575D01*
X0357728Y0131428D01*
X0357594Y0131284D01*
X0357457Y0131143D01*
X0357316Y0131006D01*
X0357172Y0130872D01*
X0357025Y0130742D01*
X0356875Y0130616D01*
X0356722Y0130493D01*
X0356566Y0130374D01*
X0356406Y0130259D01*
X0356245Y0130148D01*
X0356080Y0130041D01*
X0355913Y0129938D01*
X0355743Y0129839D01*
X0355571Y0129745D01*
X0355397Y0129654D01*
X0355220Y0129568D01*
X0355042Y0129486D01*
X0354861Y0129409D01*
X0354679Y0129336D01*
X0354495Y0129268D01*
X0354309Y0129204D01*
X0354122Y0129144D01*
X0353934Y0129090D01*
X0353744Y0129040D01*
X0353553Y0128994D01*
X0353361Y0128954D01*
X0353168Y0128918D01*
X0352974Y0128887D01*
X0352779Y0128860D01*
X0352584Y0128839D01*
X0352389Y0128822D01*
X0352193Y0128810D01*
X0351996Y0128802D01*
X0351800Y0128800D01*
X0351604Y0128802D01*
X0351407Y0128810D01*
X0351211Y0128822D01*
X0351016Y0128839D01*
X0350821Y0128860D01*
X0350626Y0128887D01*
X0350432Y0128918D01*
X0350239Y0128954D01*
X0350047Y0128994D01*
X0349856Y0129040D01*
X0349666Y0129090D01*
X0349478Y0129144D01*
X0349291Y0129204D01*
X0349105Y0129268D01*
X0348921Y0129336D01*
X0348739Y0129409D01*
X0348558Y0129486D01*
X0348380Y0129568D01*
X0348203Y0129654D01*
X0348029Y0129745D01*
X0347857Y0129839D01*
X0347687Y0129938D01*
X0347520Y0130041D01*
X0347355Y0130148D01*
X0347194Y0130259D01*
X0347034Y0130374D01*
X0346878Y0130493D01*
X0346725Y0130616D01*
X0346575Y0130742D01*
X0346428Y0130872D01*
X0346284Y0131006D01*
X0346143Y0131143D01*
X0346006Y0131284D01*
X0345872Y0131428D01*
X0345742Y0131575D01*
X0345616Y0131725D01*
X0345493Y0131878D01*
X0345374Y0132034D01*
X0345259Y0132194D01*
X0345148Y0132355D01*
X0345041Y0132520D01*
X0344938Y0132687D01*
X0344839Y0132857D01*
X0344745Y0133029D01*
X0344654Y0133203D01*
X0344568Y0133380D01*
X0344486Y0133558D01*
X0344409Y0133739D01*
X0344336Y0133921D01*
X0344268Y0134105D01*
X0344204Y0134291D01*
X0344144Y0134478D01*
X0344090Y0134666D01*
X0344040Y0134856D01*
X0343994Y0135047D01*
X0343954Y0135239D01*
X0343918Y0135432D01*
X0343887Y0135626D01*
X0343860Y0135821D01*
X0343839Y0136016D01*
X0343822Y0136211D01*
X0343810Y0136407D01*
X0343802Y0136604D01*
X0343800Y0136800D01*
X0344800Y0129800D02*
X0343800Y0128800D01*
X0345800Y0116800D02*
X0333800Y0116800D01*
X0333724Y0116802D01*
X0333648Y0116808D01*
X0333573Y0116817D01*
X0333498Y0116831D01*
X0333424Y0116848D01*
X0333351Y0116869D01*
X0333279Y0116893D01*
X0333208Y0116922D01*
X0333139Y0116953D01*
X0333072Y0116988D01*
X0333007Y0117027D01*
X0332943Y0117069D01*
X0332882Y0117114D01*
X0332823Y0117162D01*
X0332767Y0117213D01*
X0332713Y0117267D01*
X0332662Y0117323D01*
X0332614Y0117382D01*
X0332569Y0117443D01*
X0332527Y0117507D01*
X0332488Y0117572D01*
X0332453Y0117639D01*
X0332422Y0117708D01*
X0332393Y0117779D01*
X0332369Y0117851D01*
X0332348Y0117924D01*
X0332331Y0117998D01*
X0332317Y0118073D01*
X0332308Y0118148D01*
X0332302Y0118224D01*
X0332300Y0118300D01*
X0332300Y0155300D01*
X0332302Y0155376D01*
X0332308Y0155452D01*
X0332317Y0155527D01*
X0332331Y0155602D01*
X0332348Y0155676D01*
X0332369Y0155749D01*
X0332393Y0155821D01*
X0332422Y0155892D01*
X0332453Y0155961D01*
X0332488Y0156028D01*
X0332527Y0156093D01*
X0332569Y0156157D01*
X0332614Y0156218D01*
X0332662Y0156277D01*
X0332713Y0156333D01*
X0332767Y0156387D01*
X0332823Y0156438D01*
X0332882Y0156486D01*
X0332943Y0156531D01*
X0333007Y0156573D01*
X0333072Y0156612D01*
X0333139Y0156647D01*
X0333208Y0156678D01*
X0333279Y0156707D01*
X0333351Y0156731D01*
X0333424Y0156752D01*
X0333498Y0156769D01*
X0333573Y0156783D01*
X0333648Y0156792D01*
X0333724Y0156798D01*
X0333800Y0156800D01*
X0336300Y0156800D01*
X0347300Y0156800D02*
X0356300Y0156800D01*
X0383800Y0139300D02*
X0385300Y0139300D01*
X0385300Y0140800D01*
X0385300Y0139300D02*
X0386800Y0139300D01*
X0385300Y0139300D02*
X0385300Y0137800D01*
X0380800Y0134300D02*
X0380803Y0134570D01*
X0380813Y0134840D01*
X0380830Y0135109D01*
X0380853Y0135378D01*
X0380883Y0135647D01*
X0380919Y0135914D01*
X0380962Y0136181D01*
X0381011Y0136446D01*
X0381067Y0136710D01*
X0381130Y0136973D01*
X0381198Y0137234D01*
X0381274Y0137493D01*
X0381355Y0137750D01*
X0381443Y0138006D01*
X0381537Y0138259D01*
X0381637Y0138510D01*
X0381744Y0138758D01*
X0381856Y0139003D01*
X0381975Y0139246D01*
X0382099Y0139485D01*
X0382229Y0139722D01*
X0382365Y0139955D01*
X0382507Y0140185D01*
X0382654Y0140411D01*
X0382807Y0140634D01*
X0382965Y0140853D01*
X0383128Y0141068D01*
X0383297Y0141278D01*
X0383471Y0141485D01*
X0383650Y0141687D01*
X0383833Y0141885D01*
X0384022Y0142078D01*
X0384215Y0142267D01*
X0384413Y0142450D01*
X0384615Y0142629D01*
X0384822Y0142803D01*
X0385032Y0142972D01*
X0385247Y0143135D01*
X0385466Y0143293D01*
X0385689Y0143446D01*
X0385915Y0143593D01*
X0386145Y0143735D01*
X0386378Y0143871D01*
X0386615Y0144001D01*
X0386854Y0144125D01*
X0387097Y0144244D01*
X0387342Y0144356D01*
X0387590Y0144463D01*
X0387841Y0144563D01*
X0388094Y0144657D01*
X0388350Y0144745D01*
X0388607Y0144826D01*
X0388866Y0144902D01*
X0389127Y0144970D01*
X0389390Y0145033D01*
X0389654Y0145089D01*
X0389919Y0145138D01*
X0390186Y0145181D01*
X0390453Y0145217D01*
X0390722Y0145247D01*
X0390991Y0145270D01*
X0391260Y0145287D01*
X0391530Y0145297D01*
X0391800Y0145300D01*
X0392070Y0145297D01*
X0392340Y0145287D01*
X0392609Y0145270D01*
X0392878Y0145247D01*
X0393147Y0145217D01*
X0393414Y0145181D01*
X0393681Y0145138D01*
X0393946Y0145089D01*
X0394210Y0145033D01*
X0394473Y0144970D01*
X0394734Y0144902D01*
X0394993Y0144826D01*
X0395250Y0144745D01*
X0395506Y0144657D01*
X0395759Y0144563D01*
X0396010Y0144463D01*
X0396258Y0144356D01*
X0396503Y0144244D01*
X0396746Y0144125D01*
X0396985Y0144001D01*
X0397222Y0143871D01*
X0397455Y0143735D01*
X0397685Y0143593D01*
X0397911Y0143446D01*
X0398134Y0143293D01*
X0398353Y0143135D01*
X0398568Y0142972D01*
X0398778Y0142803D01*
X0398985Y0142629D01*
X0399187Y0142450D01*
X0399385Y0142267D01*
X0399578Y0142078D01*
X0399767Y0141885D01*
X0399950Y0141687D01*
X0400129Y0141485D01*
X0400303Y0141278D01*
X0400472Y0141068D01*
X0400635Y0140853D01*
X0400793Y0140634D01*
X0400946Y0140411D01*
X0401093Y0140185D01*
X0401235Y0139955D01*
X0401371Y0139722D01*
X0401501Y0139485D01*
X0401625Y0139246D01*
X0401744Y0139003D01*
X0401856Y0138758D01*
X0401963Y0138510D01*
X0402063Y0138259D01*
X0402157Y0138006D01*
X0402245Y0137750D01*
X0402326Y0137493D01*
X0402402Y0137234D01*
X0402470Y0136973D01*
X0402533Y0136710D01*
X0402589Y0136446D01*
X0402638Y0136181D01*
X0402681Y0135914D01*
X0402717Y0135647D01*
X0402747Y0135378D01*
X0402770Y0135109D01*
X0402787Y0134840D01*
X0402797Y0134570D01*
X0402800Y0134300D01*
X0402797Y0134030D01*
X0402787Y0133760D01*
X0402770Y0133491D01*
X0402747Y0133222D01*
X0402717Y0132953D01*
X0402681Y0132686D01*
X0402638Y0132419D01*
X0402589Y0132154D01*
X0402533Y0131890D01*
X0402470Y0131627D01*
X0402402Y0131366D01*
X0402326Y0131107D01*
X0402245Y0130850D01*
X0402157Y0130594D01*
X0402063Y0130341D01*
X0401963Y0130090D01*
X0401856Y0129842D01*
X0401744Y0129597D01*
X0401625Y0129354D01*
X0401501Y0129115D01*
X0401371Y0128878D01*
X0401235Y0128645D01*
X0401093Y0128415D01*
X0400946Y0128189D01*
X0400793Y0127966D01*
X0400635Y0127747D01*
X0400472Y0127532D01*
X0400303Y0127322D01*
X0400129Y0127115D01*
X0399950Y0126913D01*
X0399767Y0126715D01*
X0399578Y0126522D01*
X0399385Y0126333D01*
X0399187Y0126150D01*
X0398985Y0125971D01*
X0398778Y0125797D01*
X0398568Y0125628D01*
X0398353Y0125465D01*
X0398134Y0125307D01*
X0397911Y0125154D01*
X0397685Y0125007D01*
X0397455Y0124865D01*
X0397222Y0124729D01*
X0396985Y0124599D01*
X0396746Y0124475D01*
X0396503Y0124356D01*
X0396258Y0124244D01*
X0396010Y0124137D01*
X0395759Y0124037D01*
X0395506Y0123943D01*
X0395250Y0123855D01*
X0394993Y0123774D01*
X0394734Y0123698D01*
X0394473Y0123630D01*
X0394210Y0123567D01*
X0393946Y0123511D01*
X0393681Y0123462D01*
X0393414Y0123419D01*
X0393147Y0123383D01*
X0392878Y0123353D01*
X0392609Y0123330D01*
X0392340Y0123313D01*
X0392070Y0123303D01*
X0391800Y0123300D01*
X0391530Y0123303D01*
X0391260Y0123313D01*
X0390991Y0123330D01*
X0390722Y0123353D01*
X0390453Y0123383D01*
X0390186Y0123419D01*
X0389919Y0123462D01*
X0389654Y0123511D01*
X0389390Y0123567D01*
X0389127Y0123630D01*
X0388866Y0123698D01*
X0388607Y0123774D01*
X0388350Y0123855D01*
X0388094Y0123943D01*
X0387841Y0124037D01*
X0387590Y0124137D01*
X0387342Y0124244D01*
X0387097Y0124356D01*
X0386854Y0124475D01*
X0386615Y0124599D01*
X0386378Y0124729D01*
X0386145Y0124865D01*
X0385915Y0125007D01*
X0385689Y0125154D01*
X0385466Y0125307D01*
X0385247Y0125465D01*
X0385032Y0125628D01*
X0384822Y0125797D01*
X0384615Y0125971D01*
X0384413Y0126150D01*
X0384215Y0126333D01*
X0384022Y0126522D01*
X0383833Y0126715D01*
X0383650Y0126913D01*
X0383471Y0127115D01*
X0383297Y0127322D01*
X0383128Y0127532D01*
X0382965Y0127747D01*
X0382807Y0127966D01*
X0382654Y0128189D01*
X0382507Y0128415D01*
X0382365Y0128645D01*
X0382229Y0128878D01*
X0382099Y0129115D01*
X0381975Y0129354D01*
X0381856Y0129597D01*
X0381744Y0129842D01*
X0381637Y0130090D01*
X0381537Y0130341D01*
X0381443Y0130594D01*
X0381355Y0130850D01*
X0381274Y0131107D01*
X0381198Y0131366D01*
X0381130Y0131627D01*
X0381067Y0131890D01*
X0381011Y0132154D01*
X0380962Y0132419D01*
X0380919Y0132686D01*
X0380883Y0132953D01*
X0380853Y0133222D01*
X0380830Y0133491D01*
X0380813Y0133760D01*
X0380803Y0134030D01*
X0380800Y0134300D01*
X0384300Y0086800D02*
X0389300Y0086800D01*
X0391800Y0084300D01*
X0391800Y0079300D01*
X0389300Y0076800D01*
X0391800Y0074300D01*
X0391800Y0069300D01*
X0389300Y0066800D01*
X0391800Y0064300D01*
X0391800Y0059300D01*
X0389300Y0056800D01*
X0391800Y0054300D01*
X0391800Y0049300D01*
X0389300Y0046800D01*
X0384300Y0046800D01*
X0381800Y0049300D01*
X0381800Y0054300D01*
X0384300Y0056800D01*
X0381800Y0059300D01*
X0381800Y0064300D01*
X0384300Y0066800D01*
X0389300Y0066800D01*
X0384300Y0066800D02*
X0381800Y0069300D01*
X0381800Y0074300D01*
X0384300Y0076800D01*
X0381800Y0079300D01*
X0381800Y0084300D01*
X0384300Y0086800D01*
X0384300Y0076800D02*
X0389300Y0076800D01*
X0389300Y0056800D02*
X0384300Y0056800D01*
X0346800Y0039300D02*
X0346800Y0034300D01*
X0344300Y0031800D01*
X0339300Y0031800D01*
X0336800Y0034300D01*
X0334300Y0031800D01*
X0329300Y0031800D01*
X0326800Y0034300D01*
X0324300Y0031800D01*
X0319300Y0031800D01*
X0316800Y0034300D01*
X0314300Y0031800D01*
X0309300Y0031800D01*
X0306800Y0034300D01*
X0304300Y0031800D01*
X0299300Y0031800D01*
X0296800Y0034300D01*
X0294300Y0031800D01*
X0289300Y0031800D01*
X0286800Y0034300D01*
X0286800Y0039300D01*
X0289300Y0041800D01*
X0294300Y0041800D01*
X0296800Y0039300D01*
X0299300Y0041800D01*
X0304300Y0041800D01*
X0306800Y0039300D01*
X0306800Y0034300D01*
X0306800Y0039300D02*
X0309300Y0041800D01*
X0314300Y0041800D01*
X0316800Y0039300D01*
X0319300Y0041800D01*
X0324300Y0041800D01*
X0326800Y0039300D01*
X0329300Y0041800D01*
X0334300Y0041800D01*
X0336800Y0039300D01*
X0339300Y0041800D01*
X0344300Y0041800D01*
X0346800Y0039300D01*
X0336800Y0039300D02*
X0336800Y0034300D01*
X0326800Y0034300D02*
X0326800Y0039300D01*
X0316800Y0039300D02*
X0316800Y0034300D01*
X0296800Y0034300D02*
X0296800Y0039300D01*
X0246800Y0039300D02*
X0246800Y0034300D01*
X0244300Y0031800D01*
X0239300Y0031800D01*
X0236800Y0034300D01*
X0234300Y0031800D01*
X0229300Y0031800D01*
X0226800Y0034300D01*
X0224300Y0031800D01*
X0219300Y0031800D01*
X0216800Y0034300D01*
X0214300Y0031800D01*
X0209300Y0031800D01*
X0206800Y0034300D01*
X0204300Y0031800D01*
X0199300Y0031800D01*
X0196800Y0034300D01*
X0194300Y0031800D01*
X0189300Y0031800D01*
X0186800Y0034300D01*
X0184300Y0031800D01*
X0179300Y0031800D01*
X0176800Y0034300D01*
X0176800Y0039300D01*
X0179300Y0041800D01*
X0184300Y0041800D01*
X0186800Y0039300D01*
X0186800Y0034300D01*
X0186800Y0039300D01*
X0189300Y0041800D01*
X0194300Y0041800D01*
X0196800Y0039300D01*
X0199300Y0041800D01*
X0204300Y0041800D01*
X0206800Y0039300D01*
X0206800Y0034300D01*
X0206800Y0039300D02*
X0209300Y0041800D01*
X0214300Y0041800D01*
X0216800Y0039300D01*
X0219300Y0041800D01*
X0224300Y0041800D01*
X0226800Y0039300D01*
X0229300Y0041800D01*
X0234300Y0041800D01*
X0236800Y0039300D01*
X0239300Y0041800D01*
X0244300Y0041800D01*
X0246800Y0039300D01*
X0236800Y0039300D02*
X0236800Y0034300D01*
X0226800Y0034300D02*
X0226800Y0039300D01*
X0216800Y0039300D02*
X0216800Y0034300D01*
X0196800Y0034300D02*
X0196800Y0039300D01*
X0224800Y0103800D02*
X0248800Y0103800D01*
X0248995Y0103802D01*
X0249190Y0103809D01*
X0249384Y0103821D01*
X0249578Y0103838D01*
X0249772Y0103859D01*
X0249965Y0103885D01*
X0250157Y0103916D01*
X0250349Y0103951D01*
X0250539Y0103991D01*
X0250729Y0104036D01*
X0250918Y0104085D01*
X0251105Y0104139D01*
X0251291Y0104198D01*
X0251475Y0104260D01*
X0251658Y0104328D01*
X0251839Y0104400D01*
X0252018Y0104476D01*
X0252196Y0104556D01*
X0252371Y0104641D01*
X0252544Y0104730D01*
X0252715Y0104824D01*
X0252884Y0104921D01*
X0253050Y0105023D01*
X0253214Y0105128D01*
X0253375Y0105237D01*
X0253534Y0105351D01*
X0253689Y0105468D01*
X0253842Y0105589D01*
X0253992Y0105714D01*
X0254139Y0105842D01*
X0254282Y0105974D01*
X0254422Y0106109D01*
X0254559Y0106247D01*
X0254693Y0106389D01*
X0254823Y0106534D01*
X0254949Y0106683D01*
X0255072Y0106834D01*
X0255191Y0106988D01*
X0255306Y0107145D01*
X0255418Y0107305D01*
X0255525Y0107467D01*
X0255629Y0107632D01*
X0255728Y0107800D01*
X0255824Y0107970D01*
X0255915Y0108142D01*
X0256002Y0108316D01*
X0256084Y0108493D01*
X0256163Y0108671D01*
X0256237Y0108851D01*
X0256306Y0109033D01*
X0256372Y0109217D01*
X0256432Y0109402D01*
X0256488Y0109589D01*
X0256540Y0109777D01*
X0256587Y0109966D01*
X0256629Y0110156D01*
X0256667Y0110347D01*
X0256700Y0110539D01*
X0256728Y0110732D01*
X0256752Y0110925D01*
X0256771Y0111119D01*
X0256785Y0111313D01*
X0256795Y0111508D01*
X0256799Y0111703D01*
X0256799Y0111897D01*
X0256795Y0112092D01*
X0256785Y0112287D01*
X0256771Y0112481D01*
X0256752Y0112675D01*
X0256728Y0112868D01*
X0256700Y0113061D01*
X0256667Y0113253D01*
X0256629Y0113444D01*
X0256587Y0113634D01*
X0256540Y0113823D01*
X0256488Y0114011D01*
X0256432Y0114198D01*
X0256372Y0114383D01*
X0256306Y0114567D01*
X0256237Y0114749D01*
X0256163Y0114929D01*
X0256084Y0115107D01*
X0256002Y0115284D01*
X0255915Y0115458D01*
X0255824Y0115630D01*
X0255728Y0115800D01*
X0255629Y0115968D01*
X0255525Y0116133D01*
X0255418Y0116295D01*
X0255306Y0116455D01*
X0255191Y0116612D01*
X0255072Y0116766D01*
X0254949Y0116917D01*
X0254823Y0117066D01*
X0254693Y0117211D01*
X0254559Y0117353D01*
X0254422Y0117491D01*
X0254282Y0117626D01*
X0254139Y0117758D01*
X0253992Y0117886D01*
X0253842Y0118011D01*
X0253689Y0118132D01*
X0253534Y0118249D01*
X0253375Y0118363D01*
X0253214Y0118472D01*
X0253050Y0118577D01*
X0252884Y0118679D01*
X0252715Y0118776D01*
X0252544Y0118870D01*
X0252371Y0118959D01*
X0252196Y0119044D01*
X0252018Y0119124D01*
X0251839Y0119200D01*
X0251658Y0119272D01*
X0251475Y0119340D01*
X0251291Y0119402D01*
X0251105Y0119461D01*
X0250918Y0119515D01*
X0250729Y0119564D01*
X0250539Y0119609D01*
X0250349Y0119649D01*
X0250157Y0119684D01*
X0249965Y0119715D01*
X0249772Y0119741D01*
X0249578Y0119762D01*
X0249384Y0119779D01*
X0249190Y0119791D01*
X0248995Y0119798D01*
X0248800Y0119800D01*
X0224800Y0119800D01*
X0230300Y0126800D02*
X0213300Y0126800D01*
X0213240Y0126802D01*
X0213179Y0126807D01*
X0213120Y0126816D01*
X0213061Y0126829D01*
X0213002Y0126845D01*
X0212945Y0126865D01*
X0212890Y0126888D01*
X0212835Y0126915D01*
X0212783Y0126944D01*
X0212732Y0126977D01*
X0212683Y0127013D01*
X0212637Y0127051D01*
X0212593Y0127093D01*
X0212551Y0127137D01*
X0212513Y0127183D01*
X0212477Y0127232D01*
X0212444Y0127283D01*
X0212415Y0127335D01*
X0212388Y0127390D01*
X0212365Y0127445D01*
X0212345Y0127502D01*
X0212329Y0127561D01*
X0212316Y0127620D01*
X0212307Y0127679D01*
X0212302Y0127740D01*
X0212300Y0127800D01*
X0212300Y0135800D01*
X0212302Y0135860D01*
X0212307Y0135921D01*
X0212316Y0135980D01*
X0212329Y0136039D01*
X0212345Y0136098D01*
X0212365Y0136155D01*
X0212388Y0136210D01*
X0212415Y0136265D01*
X0212444Y0136317D01*
X0212477Y0136368D01*
X0212513Y0136417D01*
X0212551Y0136463D01*
X0212593Y0136507D01*
X0212637Y0136549D01*
X0212683Y0136587D01*
X0212732Y0136623D01*
X0212783Y0136656D01*
X0212835Y0136685D01*
X0212890Y0136712D01*
X0212945Y0136735D01*
X0213002Y0136755D01*
X0213061Y0136771D01*
X0213120Y0136784D01*
X0213179Y0136793D01*
X0213240Y0136798D01*
X0213300Y0136800D01*
X0230300Y0136800D01*
X0230360Y0136798D01*
X0230421Y0136793D01*
X0230480Y0136784D01*
X0230539Y0136771D01*
X0230598Y0136755D01*
X0230655Y0136735D01*
X0230710Y0136712D01*
X0230765Y0136685D01*
X0230817Y0136656D01*
X0230868Y0136623D01*
X0230917Y0136587D01*
X0230963Y0136549D01*
X0231007Y0136507D01*
X0231049Y0136463D01*
X0231087Y0136417D01*
X0231123Y0136368D01*
X0231156Y0136317D01*
X0231185Y0136265D01*
X0231212Y0136210D01*
X0231235Y0136155D01*
X0231255Y0136098D01*
X0231271Y0136039D01*
X0231284Y0135980D01*
X0231293Y0135921D01*
X0231298Y0135860D01*
X0231300Y0135800D01*
X0231300Y0127800D01*
X0231298Y0127740D01*
X0231293Y0127679D01*
X0231284Y0127620D01*
X0231271Y0127561D01*
X0231255Y0127502D01*
X0231235Y0127445D01*
X0231212Y0127390D01*
X0231185Y0127335D01*
X0231156Y0127283D01*
X0231123Y0127232D01*
X0231087Y0127183D01*
X0231049Y0127137D01*
X0231007Y0127093D01*
X0230963Y0127051D01*
X0230917Y0127013D01*
X0230868Y0126977D01*
X0230817Y0126944D01*
X0230765Y0126915D01*
X0230710Y0126888D01*
X0230655Y0126865D01*
X0230598Y0126845D01*
X0230539Y0126829D01*
X0230480Y0126816D01*
X0230421Y0126807D01*
X0230360Y0126802D01*
X0230300Y0126800D01*
X0237300Y0127800D02*
X0237300Y0135800D01*
X0237302Y0135860D01*
X0237307Y0135921D01*
X0237316Y0135980D01*
X0237329Y0136039D01*
X0237345Y0136098D01*
X0237365Y0136155D01*
X0237388Y0136210D01*
X0237415Y0136265D01*
X0237444Y0136317D01*
X0237477Y0136368D01*
X0237513Y0136417D01*
X0237551Y0136463D01*
X0237593Y0136507D01*
X0237637Y0136549D01*
X0237683Y0136587D01*
X0237732Y0136623D01*
X0237783Y0136656D01*
X0237835Y0136685D01*
X0237890Y0136712D01*
X0237945Y0136735D01*
X0238002Y0136755D01*
X0238061Y0136771D01*
X0238120Y0136784D01*
X0238179Y0136793D01*
X0238240Y0136798D01*
X0238300Y0136800D01*
X0255300Y0136800D01*
X0255360Y0136798D01*
X0255421Y0136793D01*
X0255480Y0136784D01*
X0255539Y0136771D01*
X0255598Y0136755D01*
X0255655Y0136735D01*
X0255710Y0136712D01*
X0255765Y0136685D01*
X0255817Y0136656D01*
X0255868Y0136623D01*
X0255917Y0136587D01*
X0255963Y0136549D01*
X0256007Y0136507D01*
X0256049Y0136463D01*
X0256087Y0136417D01*
X0256123Y0136368D01*
X0256156Y0136317D01*
X0256185Y0136265D01*
X0256212Y0136210D01*
X0256235Y0136155D01*
X0256255Y0136098D01*
X0256271Y0136039D01*
X0256284Y0135980D01*
X0256293Y0135921D01*
X0256298Y0135860D01*
X0256300Y0135800D01*
X0256300Y0127800D01*
X0256298Y0127740D01*
X0256293Y0127679D01*
X0256284Y0127620D01*
X0256271Y0127561D01*
X0256255Y0127502D01*
X0256235Y0127445D01*
X0256212Y0127390D01*
X0256185Y0127335D01*
X0256156Y0127283D01*
X0256123Y0127232D01*
X0256087Y0127183D01*
X0256049Y0127137D01*
X0256007Y0127093D01*
X0255963Y0127051D01*
X0255917Y0127013D01*
X0255868Y0126977D01*
X0255817Y0126944D01*
X0255765Y0126915D01*
X0255710Y0126888D01*
X0255655Y0126865D01*
X0255598Y0126845D01*
X0255539Y0126829D01*
X0255480Y0126816D01*
X0255421Y0126807D01*
X0255360Y0126802D01*
X0255300Y0126800D01*
X0238300Y0126800D01*
X0238240Y0126802D01*
X0238179Y0126807D01*
X0238120Y0126816D01*
X0238061Y0126829D01*
X0238002Y0126845D01*
X0237945Y0126865D01*
X0237890Y0126888D01*
X0237835Y0126915D01*
X0237783Y0126944D01*
X0237732Y0126977D01*
X0237683Y0127013D01*
X0237637Y0127051D01*
X0237593Y0127093D01*
X0237551Y0127137D01*
X0237513Y0127183D01*
X0237477Y0127232D01*
X0237444Y0127283D01*
X0237415Y0127335D01*
X0237388Y0127390D01*
X0237365Y0127445D01*
X0237345Y0127502D01*
X0237329Y0127561D01*
X0237316Y0127620D01*
X0237307Y0127679D01*
X0237302Y0127740D01*
X0237300Y0127800D01*
X0245300Y0131800D02*
X0245800Y0131800D01*
X0247800Y0131800D02*
X0248300Y0131800D01*
X0239500Y0115800D02*
X0239500Y0111800D01*
X0239500Y0107800D01*
X0238000Y0107800D02*
X0238000Y0115800D01*
X0235500Y0115800D01*
X0235500Y0107800D01*
X0238000Y0107800D01*
X0234100Y0107800D02*
X0234100Y0111800D01*
X0231300Y0111800D01*
X0234100Y0111800D02*
X0234100Y0115800D01*
X0239500Y0111800D02*
X0242300Y0111800D01*
X0224800Y0119800D02*
X0224605Y0119798D01*
X0224410Y0119791D01*
X0224216Y0119779D01*
X0224022Y0119762D01*
X0223828Y0119741D01*
X0223635Y0119715D01*
X0223443Y0119684D01*
X0223251Y0119649D01*
X0223061Y0119609D01*
X0222871Y0119564D01*
X0222682Y0119515D01*
X0222495Y0119461D01*
X0222309Y0119402D01*
X0222125Y0119340D01*
X0221942Y0119272D01*
X0221761Y0119200D01*
X0221582Y0119124D01*
X0221404Y0119044D01*
X0221229Y0118959D01*
X0221056Y0118870D01*
X0220885Y0118776D01*
X0220716Y0118679D01*
X0220550Y0118577D01*
X0220386Y0118472D01*
X0220225Y0118363D01*
X0220066Y0118249D01*
X0219911Y0118132D01*
X0219758Y0118011D01*
X0219608Y0117886D01*
X0219461Y0117758D01*
X0219318Y0117626D01*
X0219178Y0117491D01*
X0219041Y0117353D01*
X0218907Y0117211D01*
X0218777Y0117066D01*
X0218651Y0116917D01*
X0218528Y0116766D01*
X0218409Y0116612D01*
X0218294Y0116455D01*
X0218182Y0116295D01*
X0218075Y0116133D01*
X0217971Y0115968D01*
X0217872Y0115800D01*
X0217776Y0115630D01*
X0217685Y0115458D01*
X0217598Y0115284D01*
X0217516Y0115107D01*
X0217437Y0114929D01*
X0217363Y0114749D01*
X0217294Y0114567D01*
X0217228Y0114383D01*
X0217168Y0114198D01*
X0217112Y0114011D01*
X0217060Y0113823D01*
X0217013Y0113634D01*
X0216971Y0113444D01*
X0216933Y0113253D01*
X0216900Y0113061D01*
X0216872Y0112868D01*
X0216848Y0112675D01*
X0216829Y0112481D01*
X0216815Y0112287D01*
X0216805Y0112092D01*
X0216801Y0111897D01*
X0216801Y0111703D01*
X0216805Y0111508D01*
X0216815Y0111313D01*
X0216829Y0111119D01*
X0216848Y0110925D01*
X0216872Y0110732D01*
X0216900Y0110539D01*
X0216933Y0110347D01*
X0216971Y0110156D01*
X0217013Y0109966D01*
X0217060Y0109777D01*
X0217112Y0109589D01*
X0217168Y0109402D01*
X0217228Y0109217D01*
X0217294Y0109033D01*
X0217363Y0108851D01*
X0217437Y0108671D01*
X0217516Y0108493D01*
X0217598Y0108316D01*
X0217685Y0108142D01*
X0217776Y0107970D01*
X0217872Y0107800D01*
X0217971Y0107632D01*
X0218075Y0107467D01*
X0218182Y0107305D01*
X0218294Y0107145D01*
X0218409Y0106988D01*
X0218528Y0106834D01*
X0218651Y0106683D01*
X0218777Y0106534D01*
X0218907Y0106389D01*
X0219041Y0106247D01*
X0219178Y0106109D01*
X0219318Y0105974D01*
X0219461Y0105842D01*
X0219608Y0105714D01*
X0219758Y0105589D01*
X0219911Y0105468D01*
X0220066Y0105351D01*
X0220225Y0105237D01*
X0220386Y0105128D01*
X0220550Y0105023D01*
X0220716Y0104921D01*
X0220885Y0104824D01*
X0221056Y0104730D01*
X0221229Y0104641D01*
X0221404Y0104556D01*
X0221582Y0104476D01*
X0221761Y0104400D01*
X0221942Y0104328D01*
X0222125Y0104260D01*
X0222309Y0104198D01*
X0222495Y0104139D01*
X0222682Y0104085D01*
X0222871Y0104036D01*
X0223061Y0103991D01*
X0223251Y0103951D01*
X0223443Y0103916D01*
X0223635Y0103885D01*
X0223828Y0103859D01*
X0224022Y0103838D01*
X0224216Y0103821D01*
X0224410Y0103809D01*
X0224605Y0103802D01*
X0224800Y0103800D01*
X0213800Y0106800D02*
X0213800Y0116800D01*
X0213798Y0116860D01*
X0213793Y0116921D01*
X0213784Y0116980D01*
X0213771Y0117039D01*
X0213755Y0117098D01*
X0213735Y0117155D01*
X0213712Y0117210D01*
X0213685Y0117265D01*
X0213656Y0117317D01*
X0213623Y0117368D01*
X0213587Y0117417D01*
X0213549Y0117463D01*
X0213507Y0117507D01*
X0213463Y0117549D01*
X0213417Y0117587D01*
X0213368Y0117623D01*
X0213317Y0117656D01*
X0213265Y0117685D01*
X0213210Y0117712D01*
X0213155Y0117735D01*
X0213098Y0117755D01*
X0213039Y0117771D01*
X0212980Y0117784D01*
X0212921Y0117793D01*
X0212860Y0117798D01*
X0212800Y0117800D01*
X0185800Y0117800D01*
X0185740Y0117798D01*
X0185679Y0117793D01*
X0185620Y0117784D01*
X0185561Y0117771D01*
X0185502Y0117755D01*
X0185445Y0117735D01*
X0185390Y0117712D01*
X0185335Y0117685D01*
X0185283Y0117656D01*
X0185232Y0117623D01*
X0185183Y0117587D01*
X0185137Y0117549D01*
X0185093Y0117507D01*
X0185051Y0117463D01*
X0185013Y0117417D01*
X0184977Y0117368D01*
X0184944Y0117317D01*
X0184915Y0117265D01*
X0184888Y0117210D01*
X0184865Y0117155D01*
X0184845Y0117098D01*
X0184829Y0117039D01*
X0184816Y0116980D01*
X0184807Y0116921D01*
X0184802Y0116860D01*
X0184800Y0116800D01*
X0184800Y0106800D01*
X0184802Y0106740D01*
X0184807Y0106679D01*
X0184816Y0106620D01*
X0184829Y0106561D01*
X0184845Y0106502D01*
X0184865Y0106445D01*
X0184888Y0106390D01*
X0184915Y0106335D01*
X0184944Y0106283D01*
X0184977Y0106232D01*
X0185013Y0106183D01*
X0185051Y0106137D01*
X0185093Y0106093D01*
X0185137Y0106051D01*
X0185183Y0106013D01*
X0185232Y0105977D01*
X0185283Y0105944D01*
X0185335Y0105915D01*
X0185390Y0105888D01*
X0185445Y0105865D01*
X0185502Y0105845D01*
X0185561Y0105829D01*
X0185620Y0105816D01*
X0185679Y0105807D01*
X0185740Y0105802D01*
X0185800Y0105800D01*
X0212800Y0105800D01*
X0212860Y0105802D01*
X0212921Y0105807D01*
X0212980Y0105816D01*
X0213039Y0105829D01*
X0213098Y0105845D01*
X0213155Y0105865D01*
X0213210Y0105888D01*
X0213265Y0105915D01*
X0213317Y0105944D01*
X0213368Y0105977D01*
X0213417Y0106013D01*
X0213463Y0106051D01*
X0213507Y0106093D01*
X0213549Y0106137D01*
X0213587Y0106183D01*
X0213623Y0106232D01*
X0213656Y0106283D01*
X0213685Y0106335D01*
X0213712Y0106390D01*
X0213735Y0106445D01*
X0213755Y0106502D01*
X0213771Y0106561D01*
X0213784Y0106620D01*
X0213793Y0106679D01*
X0213798Y0106740D01*
X0213800Y0106800D01*
X0205300Y0111800D02*
X0200600Y0111800D01*
X0198100Y0111800D02*
X0193300Y0111800D01*
X0220300Y0131800D02*
X0220800Y0131800D01*
X0222800Y0131800D02*
X0223300Y0131800D01*
X0224550Y0196800D02*
X0201550Y0196800D01*
X0201550Y0266800D01*
X0209050Y0266800D01*
X0209052Y0266674D01*
X0209058Y0266549D01*
X0209068Y0266424D01*
X0209082Y0266299D01*
X0209099Y0266174D01*
X0209121Y0266050D01*
X0209146Y0265927D01*
X0209176Y0265805D01*
X0209209Y0265684D01*
X0209246Y0265564D01*
X0209286Y0265445D01*
X0209331Y0265328D01*
X0209379Y0265211D01*
X0209431Y0265097D01*
X0209486Y0264984D01*
X0209545Y0264873D01*
X0209607Y0264764D01*
X0209673Y0264657D01*
X0209742Y0264552D01*
X0209814Y0264449D01*
X0209889Y0264348D01*
X0209968Y0264250D01*
X0210050Y0264155D01*
X0210134Y0264062D01*
X0210222Y0263972D01*
X0210312Y0263884D01*
X0210405Y0263800D01*
X0210500Y0263718D01*
X0210598Y0263639D01*
X0210699Y0263564D01*
X0210802Y0263492D01*
X0210907Y0263423D01*
X0211014Y0263357D01*
X0211123Y0263295D01*
X0211234Y0263236D01*
X0211347Y0263181D01*
X0211461Y0263129D01*
X0211578Y0263081D01*
X0211695Y0263036D01*
X0211814Y0262996D01*
X0211934Y0262959D01*
X0212055Y0262926D01*
X0212177Y0262896D01*
X0212300Y0262871D01*
X0212424Y0262849D01*
X0212549Y0262832D01*
X0212674Y0262818D01*
X0212799Y0262808D01*
X0212924Y0262802D01*
X0213050Y0262800D01*
X0213176Y0262802D01*
X0213301Y0262808D01*
X0213426Y0262818D01*
X0213551Y0262832D01*
X0213676Y0262849D01*
X0213800Y0262871D01*
X0213923Y0262896D01*
X0214045Y0262926D01*
X0214166Y0262959D01*
X0214286Y0262996D01*
X0214405Y0263036D01*
X0214522Y0263081D01*
X0214639Y0263129D01*
X0214753Y0263181D01*
X0214866Y0263236D01*
X0214977Y0263295D01*
X0215086Y0263357D01*
X0215193Y0263423D01*
X0215298Y0263492D01*
X0215401Y0263564D01*
X0215502Y0263639D01*
X0215600Y0263718D01*
X0215695Y0263800D01*
X0215788Y0263884D01*
X0215878Y0263972D01*
X0215966Y0264062D01*
X0216050Y0264155D01*
X0216132Y0264250D01*
X0216211Y0264348D01*
X0216286Y0264449D01*
X0216358Y0264552D01*
X0216427Y0264657D01*
X0216493Y0264764D01*
X0216555Y0264873D01*
X0216614Y0264984D01*
X0216669Y0265097D01*
X0216721Y0265211D01*
X0216769Y0265328D01*
X0216814Y0265445D01*
X0216854Y0265564D01*
X0216891Y0265684D01*
X0216924Y0265805D01*
X0216954Y0265927D01*
X0216979Y0266050D01*
X0217001Y0266174D01*
X0217018Y0266299D01*
X0217032Y0266424D01*
X0217042Y0266549D01*
X0217048Y0266674D01*
X0217050Y0266800D01*
X0224550Y0266800D01*
X0224550Y0196800D01*
X0294050Y0198050D02*
X0317050Y0198050D01*
X0317050Y0268050D01*
X0309550Y0268050D01*
X0309548Y0267924D01*
X0309542Y0267799D01*
X0309532Y0267674D01*
X0309518Y0267549D01*
X0309501Y0267424D01*
X0309479Y0267300D01*
X0309454Y0267177D01*
X0309424Y0267055D01*
X0309391Y0266934D01*
X0309354Y0266814D01*
X0309314Y0266695D01*
X0309269Y0266578D01*
X0309221Y0266461D01*
X0309169Y0266347D01*
X0309114Y0266234D01*
X0309055Y0266123D01*
X0308993Y0266014D01*
X0308927Y0265907D01*
X0308858Y0265802D01*
X0308786Y0265699D01*
X0308711Y0265598D01*
X0308632Y0265500D01*
X0308550Y0265405D01*
X0308466Y0265312D01*
X0308378Y0265222D01*
X0308288Y0265134D01*
X0308195Y0265050D01*
X0308100Y0264968D01*
X0308002Y0264889D01*
X0307901Y0264814D01*
X0307798Y0264742D01*
X0307693Y0264673D01*
X0307586Y0264607D01*
X0307477Y0264545D01*
X0307366Y0264486D01*
X0307253Y0264431D01*
X0307139Y0264379D01*
X0307022Y0264331D01*
X0306905Y0264286D01*
X0306786Y0264246D01*
X0306666Y0264209D01*
X0306545Y0264176D01*
X0306423Y0264146D01*
X0306300Y0264121D01*
X0306176Y0264099D01*
X0306051Y0264082D01*
X0305926Y0264068D01*
X0305801Y0264058D01*
X0305676Y0264052D01*
X0305550Y0264050D01*
X0305424Y0264052D01*
X0305299Y0264058D01*
X0305174Y0264068D01*
X0305049Y0264082D01*
X0304924Y0264099D01*
X0304800Y0264121D01*
X0304677Y0264146D01*
X0304555Y0264176D01*
X0304434Y0264209D01*
X0304314Y0264246D01*
X0304195Y0264286D01*
X0304078Y0264331D01*
X0303961Y0264379D01*
X0303847Y0264431D01*
X0303734Y0264486D01*
X0303623Y0264545D01*
X0303514Y0264607D01*
X0303407Y0264673D01*
X0303302Y0264742D01*
X0303199Y0264814D01*
X0303098Y0264889D01*
X0303000Y0264968D01*
X0302905Y0265050D01*
X0302812Y0265134D01*
X0302722Y0265222D01*
X0302634Y0265312D01*
X0302550Y0265405D01*
X0302468Y0265500D01*
X0302389Y0265598D01*
X0302314Y0265699D01*
X0302242Y0265802D01*
X0302173Y0265907D01*
X0302107Y0266014D01*
X0302045Y0266123D01*
X0301986Y0266234D01*
X0301931Y0266347D01*
X0301879Y0266461D01*
X0301831Y0266578D01*
X0301786Y0266695D01*
X0301746Y0266814D01*
X0301709Y0266934D01*
X0301676Y0267055D01*
X0301646Y0267177D01*
X0301621Y0267300D01*
X0301599Y0267424D01*
X0301582Y0267549D01*
X0301568Y0267674D01*
X0301558Y0267799D01*
X0301552Y0267924D01*
X0301550Y0268050D01*
X0294050Y0268050D01*
X0294050Y0198050D01*
X0264300Y0416800D02*
X0254300Y0416800D01*
X0254300Y0426800D01*
X0264300Y0426800D01*
X0264300Y0416800D01*
X0254300Y0416800D02*
X0244300Y0416800D01*
X0244300Y0426800D01*
X0254300Y0426800D01*
X0244300Y0426800D02*
X0234300Y0426800D01*
X0224300Y0426800D01*
X0214300Y0426800D01*
X0204300Y0426800D01*
X0194300Y0426800D01*
X0184300Y0426800D01*
X0174300Y0426800D01*
X0164300Y0426800D01*
X0154300Y0426800D01*
X0144300Y0426800D01*
X0134300Y0426800D01*
X0124300Y0426800D01*
X0124300Y0416800D01*
X0134300Y0416800D01*
X0144300Y0416800D01*
X0154300Y0416800D01*
X0164300Y0416800D01*
X0174300Y0416800D01*
X0184300Y0416800D01*
X0194300Y0416800D01*
X0204300Y0416800D01*
X0214300Y0416800D01*
X0224300Y0416800D01*
X0234300Y0416800D01*
X0244300Y0416800D01*
X0234300Y0416800D02*
X0234300Y0426800D01*
X0224300Y0426800D02*
X0224300Y0416800D01*
X0214300Y0416800D02*
X0214300Y0426800D01*
X0204300Y0426800D02*
X0204300Y0416800D01*
X0194300Y0416800D02*
X0194300Y0426800D01*
X0184300Y0426800D02*
X0184300Y0416800D01*
X0174300Y0416800D02*
X0174300Y0426800D01*
X0164300Y0426800D02*
X0164300Y0416800D01*
X0154300Y0416800D02*
X0154300Y0426800D01*
X0144300Y0426800D02*
X0144300Y0416800D01*
X0134300Y0416800D02*
X0134300Y0426800D01*
D11*
X0139221Y0350698D02*
X0121308Y0350698D01*
X0121308Y0312902D01*
X0139221Y0312902D01*
X0139221Y0319202D01*
X0138237Y0319202D01*
X0138237Y0344398D01*
X0139221Y0344398D01*
X0139221Y0350698D01*
X0148808Y0350698D02*
X0166721Y0350698D01*
X0166721Y0344398D01*
X0165737Y0344398D01*
X0165737Y0319202D01*
X0166721Y0319202D01*
X0166721Y0312902D01*
X0148808Y0312902D01*
X0148808Y0350698D01*
X0176308Y0350698D02*
X0194221Y0350698D01*
X0194221Y0344398D01*
X0193237Y0344398D01*
X0193237Y0319202D01*
X0194221Y0319202D01*
X0194221Y0312902D01*
X0176308Y0312902D01*
X0176308Y0350698D01*
X0203808Y0350698D02*
X0221721Y0350698D01*
X0221721Y0344398D01*
X0220737Y0344398D01*
X0220737Y0319202D01*
X0221721Y0319202D01*
X0221721Y0312902D01*
X0203808Y0312902D01*
X0203808Y0350698D01*
X0231308Y0350698D02*
X0249221Y0350698D01*
X0249221Y0344398D01*
X0248237Y0344398D01*
X0248237Y0319202D01*
X0249221Y0319202D01*
X0249221Y0312902D01*
X0231308Y0312902D01*
X0231308Y0350698D01*
X0258808Y0350698D02*
X0276721Y0350698D01*
X0276721Y0344398D01*
X0275737Y0344398D01*
X0275737Y0319202D01*
X0276721Y0319202D01*
X0276721Y0312902D01*
X0258808Y0312902D01*
X0258808Y0350698D01*
X0286308Y0350698D02*
X0304221Y0350698D01*
X0304221Y0344398D01*
X0303237Y0344398D01*
X0303237Y0319202D01*
X0304221Y0319202D01*
X0304221Y0312902D01*
X0286308Y0312902D01*
X0286308Y0350698D01*
X0313808Y0350698D02*
X0331721Y0350698D01*
X0331721Y0344398D01*
X0330737Y0344398D01*
X0330737Y0319202D01*
X0331721Y0319202D01*
X0331721Y0312902D01*
X0313808Y0312902D01*
X0313808Y0350698D01*
X0344558Y0350698D02*
X0362471Y0350698D01*
X0362471Y0344398D01*
X0361487Y0344398D01*
X0361487Y0319202D01*
X0362471Y0319202D01*
X0362471Y0312902D01*
X0344558Y0312902D01*
X0344558Y0350698D01*
X0415550Y0286800D02*
X0415363Y0287043D01*
X0415171Y0287281D01*
X0414972Y0287514D01*
X0414768Y0287742D01*
X0414559Y0287965D01*
X0414344Y0288183D01*
X0414124Y0288396D01*
X0413899Y0288603D01*
X0413668Y0288805D01*
X0413433Y0289001D01*
X0413193Y0289191D01*
X0412949Y0289375D01*
X0412700Y0289553D01*
X0412446Y0289725D01*
X0412189Y0289891D01*
X0411928Y0290051D01*
X0411663Y0290204D01*
X0411394Y0290350D01*
X0411121Y0290490D01*
X0410846Y0290623D01*
X0410567Y0290749D01*
X0410285Y0290869D01*
X0410000Y0290981D01*
X0409713Y0291086D01*
X0409423Y0291185D01*
X0409131Y0291276D01*
X0408836Y0291360D01*
X0408540Y0291437D01*
X0408242Y0291507D01*
X0407942Y0291569D01*
X0407641Y0291624D01*
X0407339Y0291671D01*
X0407035Y0291711D01*
X0406731Y0291744D01*
X0406426Y0291769D01*
X0406120Y0291787D01*
X0405814Y0291797D01*
X0405508Y0291800D01*
X0405202Y0291795D01*
X0404896Y0291783D01*
X0404590Y0291763D01*
X0404286Y0291736D01*
X0403981Y0291701D01*
X0403678Y0291659D01*
X0403376Y0291610D01*
X0403075Y0291553D01*
X0402776Y0291488D01*
X0402478Y0291417D01*
X0402183Y0291338D01*
X0401889Y0291252D01*
X0401597Y0291159D01*
X0401308Y0291058D01*
X0401021Y0290951D01*
X0400737Y0290836D01*
X0400456Y0290715D01*
X0400178Y0290587D01*
X0399903Y0290452D01*
X0399632Y0290310D01*
X0399364Y0290162D01*
X0399100Y0290007D01*
X0398840Y0289846D01*
X0398584Y0289679D01*
X0398331Y0289505D01*
X0398084Y0289325D01*
X0397840Y0289139D01*
X0397602Y0288948D01*
X0397368Y0288750D01*
X0397139Y0288547D01*
X0396915Y0288338D01*
X0396696Y0288124D01*
X0396483Y0287904D01*
X0396275Y0287680D01*
X0396072Y0287450D01*
X0395876Y0287216D01*
X0395685Y0286976D01*
X0395500Y0286733D01*
X0395321Y0286484D01*
X0395148Y0286232D01*
X0394981Y0285975D01*
X0394821Y0285714D01*
X0394667Y0285449D01*
X0394520Y0285181D01*
X0394379Y0284909D01*
X0394245Y0284634D01*
X0394118Y0284355D01*
X0393997Y0284074D01*
X0393884Y0283789D01*
X0393778Y0283502D01*
X0393678Y0283213D01*
X0393586Y0282921D01*
X0393501Y0282627D01*
X0393423Y0282331D01*
X0393352Y0282033D01*
X0393289Y0281733D01*
X0393233Y0281432D01*
X0393185Y0281130D01*
X0393144Y0280827D01*
X0393110Y0280523D01*
X0393084Y0280218D01*
X0393065Y0279912D01*
X0393054Y0279606D01*
X0393050Y0279300D01*
X0393054Y0278994D01*
X0393065Y0278688D01*
X0393084Y0278382D01*
X0393110Y0278077D01*
X0393144Y0277773D01*
X0393185Y0277470D01*
X0393233Y0277168D01*
X0393289Y0276867D01*
X0393352Y0276567D01*
X0393423Y0276269D01*
X0393501Y0275973D01*
X0393586Y0275679D01*
X0393678Y0275387D01*
X0393778Y0275098D01*
X0393884Y0274811D01*
X0393997Y0274526D01*
X0394118Y0274245D01*
X0394245Y0273966D01*
X0394379Y0273691D01*
X0394520Y0273419D01*
X0394667Y0273151D01*
X0394821Y0272886D01*
X0394981Y0272625D01*
X0395148Y0272368D01*
X0395321Y0272116D01*
X0395500Y0271867D01*
X0395685Y0271624D01*
X0395876Y0271384D01*
X0396072Y0271150D01*
X0396275Y0270920D01*
X0396483Y0270696D01*
X0396696Y0270476D01*
X0396915Y0270262D01*
X0397139Y0270053D01*
X0397368Y0269850D01*
X0397602Y0269652D01*
X0397840Y0269461D01*
X0398084Y0269275D01*
X0398331Y0269095D01*
X0398584Y0268921D01*
X0398840Y0268754D01*
X0399100Y0268593D01*
X0399364Y0268438D01*
X0399632Y0268290D01*
X0399903Y0268148D01*
X0400178Y0268013D01*
X0400456Y0267885D01*
X0400737Y0267764D01*
X0401021Y0267649D01*
X0401308Y0267542D01*
X0401597Y0267441D01*
X0401889Y0267348D01*
X0402183Y0267262D01*
X0402478Y0267183D01*
X0402776Y0267112D01*
X0403075Y0267047D01*
X0403376Y0266990D01*
X0403678Y0266941D01*
X0403981Y0266899D01*
X0404286Y0266864D01*
X0404590Y0266837D01*
X0404896Y0266817D01*
X0405202Y0266805D01*
X0405508Y0266800D01*
X0405814Y0266803D01*
X0406120Y0266813D01*
X0406426Y0266831D01*
X0406731Y0266856D01*
X0407035Y0266889D01*
X0407339Y0266929D01*
X0407641Y0266976D01*
X0407942Y0267031D01*
X0408242Y0267093D01*
X0408540Y0267163D01*
X0408836Y0267240D01*
X0409131Y0267324D01*
X0409423Y0267415D01*
X0409713Y0267514D01*
X0410000Y0267619D01*
X0410285Y0267731D01*
X0410567Y0267851D01*
X0410846Y0267977D01*
X0411121Y0268110D01*
X0411394Y0268250D01*
X0411663Y0268396D01*
X0411928Y0268549D01*
X0412189Y0268709D01*
X0412446Y0268875D01*
X0412700Y0269047D01*
X0412949Y0269225D01*
X0413193Y0269409D01*
X0413433Y0269599D01*
X0413668Y0269795D01*
X0413899Y0269997D01*
X0414124Y0270204D01*
X0414344Y0270417D01*
X0414559Y0270635D01*
X0414768Y0270858D01*
X0414972Y0271086D01*
X0415171Y0271319D01*
X0415363Y0271557D01*
X0415550Y0271800D01*
X0247800Y0134800D02*
X0247800Y0131800D01*
X0247800Y0128800D01*
X0245800Y0128800D02*
X0245800Y0131800D01*
X0245800Y0134800D01*
X0222800Y0134800D02*
X0222800Y0131800D01*
X0222800Y0128800D01*
X0220800Y0128800D02*
X0220800Y0131800D01*
X0220800Y0134800D01*
X0099300Y0143800D02*
X0094300Y0143800D01*
X0096800Y0146300D02*
X0096800Y0141300D01*
X0036800Y0095550D02*
X0036987Y0095793D01*
X0037179Y0096031D01*
X0037378Y0096264D01*
X0037582Y0096492D01*
X0037791Y0096715D01*
X0038006Y0096933D01*
X0038226Y0097146D01*
X0038451Y0097353D01*
X0038682Y0097555D01*
X0038917Y0097751D01*
X0039157Y0097941D01*
X0039401Y0098125D01*
X0039650Y0098303D01*
X0039904Y0098475D01*
X0040161Y0098641D01*
X0040422Y0098801D01*
X0040687Y0098954D01*
X0040956Y0099100D01*
X0041229Y0099240D01*
X0041504Y0099373D01*
X0041783Y0099499D01*
X0042065Y0099619D01*
X0042350Y0099731D01*
X0042637Y0099836D01*
X0042927Y0099935D01*
X0043219Y0100026D01*
X0043514Y0100110D01*
X0043810Y0100187D01*
X0044108Y0100257D01*
X0044408Y0100319D01*
X0044709Y0100374D01*
X0045011Y0100421D01*
X0045315Y0100461D01*
X0045619Y0100494D01*
X0045924Y0100519D01*
X0046230Y0100537D01*
X0046536Y0100547D01*
X0046842Y0100550D01*
X0047148Y0100545D01*
X0047454Y0100533D01*
X0047760Y0100513D01*
X0048064Y0100486D01*
X0048369Y0100451D01*
X0048672Y0100409D01*
X0048974Y0100360D01*
X0049275Y0100303D01*
X0049574Y0100238D01*
X0049872Y0100167D01*
X0050167Y0100088D01*
X0050461Y0100002D01*
X0050753Y0099909D01*
X0051042Y0099808D01*
X0051329Y0099701D01*
X0051613Y0099586D01*
X0051894Y0099465D01*
X0052172Y0099337D01*
X0052447Y0099202D01*
X0052718Y0099060D01*
X0052986Y0098912D01*
X0053250Y0098757D01*
X0053510Y0098596D01*
X0053766Y0098429D01*
X0054019Y0098255D01*
X0054266Y0098075D01*
X0054510Y0097889D01*
X0054748Y0097698D01*
X0054982Y0097500D01*
X0055211Y0097297D01*
X0055435Y0097088D01*
X0055654Y0096874D01*
X0055867Y0096654D01*
X0056075Y0096430D01*
X0056278Y0096200D01*
X0056474Y0095966D01*
X0056665Y0095726D01*
X0056850Y0095483D01*
X0057029Y0095234D01*
X0057202Y0094982D01*
X0057369Y0094725D01*
X0057529Y0094464D01*
X0057683Y0094199D01*
X0057830Y0093931D01*
X0057971Y0093659D01*
X0058105Y0093384D01*
X0058232Y0093105D01*
X0058353Y0092824D01*
X0058466Y0092539D01*
X0058572Y0092252D01*
X0058672Y0091963D01*
X0058764Y0091671D01*
X0058849Y0091377D01*
X0058927Y0091081D01*
X0058998Y0090783D01*
X0059061Y0090483D01*
X0059117Y0090182D01*
X0059165Y0089880D01*
X0059206Y0089577D01*
X0059240Y0089273D01*
X0059266Y0088968D01*
X0059285Y0088662D01*
X0059296Y0088356D01*
X0059300Y0088050D01*
X0059296Y0087744D01*
X0059285Y0087438D01*
X0059266Y0087132D01*
X0059240Y0086827D01*
X0059206Y0086523D01*
X0059165Y0086220D01*
X0059117Y0085918D01*
X0059061Y0085617D01*
X0058998Y0085317D01*
X0058927Y0085019D01*
X0058849Y0084723D01*
X0058764Y0084429D01*
X0058672Y0084137D01*
X0058572Y0083848D01*
X0058466Y0083561D01*
X0058353Y0083276D01*
X0058232Y0082995D01*
X0058105Y0082716D01*
X0057971Y0082441D01*
X0057830Y0082169D01*
X0057683Y0081901D01*
X0057529Y0081636D01*
X0057369Y0081375D01*
X0057202Y0081118D01*
X0057029Y0080866D01*
X0056850Y0080617D01*
X0056665Y0080374D01*
X0056474Y0080134D01*
X0056278Y0079900D01*
X0056075Y0079670D01*
X0055867Y0079446D01*
X0055654Y0079226D01*
X0055435Y0079012D01*
X0055211Y0078803D01*
X0054982Y0078600D01*
X0054748Y0078402D01*
X0054510Y0078211D01*
X0054266Y0078025D01*
X0054019Y0077845D01*
X0053766Y0077671D01*
X0053510Y0077504D01*
X0053250Y0077343D01*
X0052986Y0077188D01*
X0052718Y0077040D01*
X0052447Y0076898D01*
X0052172Y0076763D01*
X0051894Y0076635D01*
X0051613Y0076514D01*
X0051329Y0076399D01*
X0051042Y0076292D01*
X0050753Y0076191D01*
X0050461Y0076098D01*
X0050167Y0076012D01*
X0049872Y0075933D01*
X0049574Y0075862D01*
X0049275Y0075797D01*
X0048974Y0075740D01*
X0048672Y0075691D01*
X0048369Y0075649D01*
X0048064Y0075614D01*
X0047760Y0075587D01*
X0047454Y0075567D01*
X0047148Y0075555D01*
X0046842Y0075550D01*
X0046536Y0075553D01*
X0046230Y0075563D01*
X0045924Y0075581D01*
X0045619Y0075606D01*
X0045315Y0075639D01*
X0045011Y0075679D01*
X0044709Y0075726D01*
X0044408Y0075781D01*
X0044108Y0075843D01*
X0043810Y0075913D01*
X0043514Y0075990D01*
X0043219Y0076074D01*
X0042927Y0076165D01*
X0042637Y0076264D01*
X0042350Y0076369D01*
X0042065Y0076481D01*
X0041783Y0076601D01*
X0041504Y0076727D01*
X0041229Y0076860D01*
X0040956Y0077000D01*
X0040687Y0077146D01*
X0040422Y0077299D01*
X0040161Y0077459D01*
X0039904Y0077625D01*
X0039650Y0077797D01*
X0039401Y0077975D01*
X0039157Y0078159D01*
X0038917Y0078349D01*
X0038682Y0078545D01*
X0038451Y0078747D01*
X0038226Y0078954D01*
X0038006Y0079167D01*
X0037791Y0079385D01*
X0037582Y0079608D01*
X0037378Y0079836D01*
X0037179Y0080069D01*
X0036987Y0080307D01*
X0036800Y0080550D01*
X0037558Y0312902D02*
X0037558Y0350698D01*
X0055471Y0350698D01*
X0055471Y0344398D01*
X0054487Y0344398D01*
X0054487Y0319202D01*
X0055471Y0319202D01*
X0055471Y0312902D01*
X0037558Y0312902D01*
X0065058Y0312902D02*
X0065058Y0350698D01*
X0082971Y0350698D01*
X0082971Y0344398D01*
X0081987Y0344398D01*
X0081987Y0319202D01*
X0082971Y0319202D01*
X0082971Y0312902D01*
X0065058Y0312902D01*
X0092558Y0312902D02*
X0092558Y0350698D01*
X0110471Y0350698D01*
X0110471Y0344398D01*
X0109487Y0344398D01*
X0109487Y0319202D01*
X0110471Y0319202D01*
X0110471Y0312902D01*
X0092558Y0312902D01*
D12*
X0198100Y0114300D02*
X0198100Y0111800D01*
X0198100Y0109300D01*
X0200600Y0109300D02*
X0200600Y0111800D01*
X0200600Y0114300D01*
D13*
X0036800Y0095550D02*
X0036800Y0080550D01*
X0380363Y0201583D02*
X0380363Y0209851D01*
X0380363Y0201583D02*
X0422489Y0201583D01*
X0422489Y0237017D01*
X0401623Y0237017D01*
X0383119Y0237017D02*
X0380363Y0237017D01*
X0380363Y0228749D01*
X0415550Y0271800D02*
X0415550Y0286800D01*
D14*
X0248800Y0121800D02*
X0224800Y0121800D01*
X0224556Y0121797D01*
X0224313Y0121788D01*
X0224070Y0121773D01*
X0223827Y0121753D01*
X0223585Y0121726D01*
X0223344Y0121693D01*
X0223104Y0121655D01*
X0222864Y0121611D01*
X0222626Y0121561D01*
X0222389Y0121505D01*
X0222153Y0121443D01*
X0221919Y0121376D01*
X0221687Y0121303D01*
X0221456Y0121224D01*
X0221228Y0121140D01*
X0221001Y0121050D01*
X0220777Y0120955D01*
X0220555Y0120854D01*
X0220336Y0120748D01*
X0220120Y0120637D01*
X0219906Y0120520D01*
X0219695Y0120399D01*
X0219487Y0120272D01*
X0219282Y0120140D01*
X0219081Y0120003D01*
X0218883Y0119861D01*
X0218688Y0119715D01*
X0218497Y0119564D01*
X0218310Y0119408D01*
X0218127Y0119248D01*
X0217947Y0119083D01*
X0217772Y0118914D01*
X0217601Y0118741D01*
X0217434Y0118563D01*
X0217272Y0118382D01*
X0217114Y0118197D01*
X0216960Y0118008D01*
X0216811Y0117815D01*
X0216667Y0117619D01*
X0216528Y0117419D01*
X0216393Y0117216D01*
X0216264Y0117009D01*
X0216140Y0116800D01*
X0216021Y0116588D01*
X0215907Y0116372D01*
X0215798Y0116155D01*
X0215695Y0115934D01*
X0215597Y0115711D01*
X0215504Y0115486D01*
X0215417Y0115258D01*
X0215336Y0115029D01*
X0215260Y0114797D01*
X0215190Y0114564D01*
X0215125Y0114329D01*
X0215066Y0114093D01*
X0215013Y0113855D01*
X0214966Y0113616D01*
X0214925Y0113376D01*
X0214890Y0113135D01*
X0214860Y0112894D01*
X0214836Y0112651D01*
X0214819Y0112408D01*
X0214807Y0112165D01*
X0214801Y0111922D01*
X0214801Y0111678D01*
X0214807Y0111435D01*
X0214819Y0111192D01*
X0214836Y0110949D01*
X0214860Y0110706D01*
X0214890Y0110465D01*
X0214925Y0110224D01*
X0214966Y0109984D01*
X0215013Y0109745D01*
X0215066Y0109507D01*
X0215125Y0109271D01*
X0215190Y0109036D01*
X0215260Y0108803D01*
X0215336Y0108571D01*
X0215417Y0108342D01*
X0215504Y0108114D01*
X0215597Y0107889D01*
X0215695Y0107666D01*
X0215798Y0107445D01*
X0215907Y0107228D01*
X0216021Y0107012D01*
X0216140Y0106800D01*
X0216264Y0106591D01*
X0216393Y0106384D01*
X0216528Y0106181D01*
X0216667Y0105981D01*
X0216811Y0105785D01*
X0216960Y0105592D01*
X0217114Y0105403D01*
X0217272Y0105218D01*
X0217434Y0105037D01*
X0217601Y0104859D01*
X0217772Y0104686D01*
X0217947Y0104517D01*
X0218127Y0104352D01*
X0218310Y0104192D01*
X0218497Y0104036D01*
X0218688Y0103885D01*
X0218883Y0103739D01*
X0219081Y0103597D01*
X0219282Y0103460D01*
X0219487Y0103328D01*
X0219695Y0103201D01*
X0219906Y0103080D01*
X0220120Y0102963D01*
X0220336Y0102852D01*
X0220555Y0102746D01*
X0220777Y0102645D01*
X0221001Y0102550D01*
X0221228Y0102460D01*
X0221456Y0102376D01*
X0221687Y0102297D01*
X0221919Y0102224D01*
X0222153Y0102157D01*
X0222389Y0102095D01*
X0222626Y0102039D01*
X0222864Y0101989D01*
X0223104Y0101945D01*
X0223344Y0101907D01*
X0223585Y0101874D01*
X0223827Y0101847D01*
X0224070Y0101827D01*
X0224313Y0101812D01*
X0224556Y0101803D01*
X0224800Y0101800D01*
X0248800Y0101800D01*
X0249044Y0101803D01*
X0249287Y0101812D01*
X0249530Y0101827D01*
X0249773Y0101847D01*
X0250015Y0101874D01*
X0250256Y0101907D01*
X0250496Y0101945D01*
X0250736Y0101989D01*
X0250974Y0102039D01*
X0251211Y0102095D01*
X0251447Y0102157D01*
X0251681Y0102224D01*
X0251913Y0102297D01*
X0252144Y0102376D01*
X0252372Y0102460D01*
X0252599Y0102550D01*
X0252823Y0102645D01*
X0253045Y0102746D01*
X0253264Y0102852D01*
X0253480Y0102963D01*
X0253694Y0103080D01*
X0253905Y0103201D01*
X0254113Y0103328D01*
X0254318Y0103460D01*
X0254519Y0103597D01*
X0254717Y0103739D01*
X0254912Y0103885D01*
X0255103Y0104036D01*
X0255290Y0104192D01*
X0255473Y0104352D01*
X0255653Y0104517D01*
X0255828Y0104686D01*
X0255999Y0104859D01*
X0256166Y0105037D01*
X0256328Y0105218D01*
X0256486Y0105403D01*
X0256640Y0105592D01*
X0256789Y0105785D01*
X0256933Y0105981D01*
X0257072Y0106181D01*
X0257207Y0106384D01*
X0257336Y0106591D01*
X0257460Y0106800D01*
X0257579Y0107012D01*
X0257693Y0107228D01*
X0257802Y0107445D01*
X0257905Y0107666D01*
X0258003Y0107889D01*
X0258096Y0108114D01*
X0258183Y0108342D01*
X0258264Y0108571D01*
X0258340Y0108803D01*
X0258410Y0109036D01*
X0258475Y0109271D01*
X0258534Y0109507D01*
X0258587Y0109745D01*
X0258634Y0109984D01*
X0258675Y0110224D01*
X0258710Y0110465D01*
X0258740Y0110706D01*
X0258764Y0110949D01*
X0258781Y0111192D01*
X0258793Y0111435D01*
X0258799Y0111678D01*
X0258799Y0111922D01*
X0258793Y0112165D01*
X0258781Y0112408D01*
X0258764Y0112651D01*
X0258740Y0112894D01*
X0258710Y0113135D01*
X0258675Y0113376D01*
X0258634Y0113616D01*
X0258587Y0113855D01*
X0258534Y0114093D01*
X0258475Y0114329D01*
X0258410Y0114564D01*
X0258340Y0114797D01*
X0258264Y0115029D01*
X0258183Y0115258D01*
X0258096Y0115486D01*
X0258003Y0115711D01*
X0257905Y0115934D01*
X0257802Y0116155D01*
X0257693Y0116372D01*
X0257579Y0116588D01*
X0257460Y0116800D01*
X0257336Y0117009D01*
X0257207Y0117216D01*
X0257072Y0117419D01*
X0256933Y0117619D01*
X0256789Y0117815D01*
X0256640Y0118008D01*
X0256486Y0118197D01*
X0256328Y0118382D01*
X0256166Y0118563D01*
X0255999Y0118741D01*
X0255828Y0118914D01*
X0255653Y0119083D01*
X0255473Y0119248D01*
X0255290Y0119408D01*
X0255103Y0119564D01*
X0254912Y0119715D01*
X0254717Y0119861D01*
X0254519Y0120003D01*
X0254318Y0120140D01*
X0254113Y0120272D01*
X0253905Y0120399D01*
X0253694Y0120520D01*
X0253480Y0120637D01*
X0253264Y0120748D01*
X0253045Y0120854D01*
X0252823Y0120955D01*
X0252599Y0121050D01*
X0252372Y0121140D01*
X0252144Y0121224D01*
X0251913Y0121303D01*
X0251681Y0121376D01*
X0251447Y0121443D01*
X0251211Y0121505D01*
X0250974Y0121561D01*
X0250736Y0121611D01*
X0250496Y0121655D01*
X0250256Y0121693D01*
X0250015Y0121726D01*
X0249773Y0121753D01*
X0249530Y0121773D01*
X0249287Y0121788D01*
X0249044Y0121797D01*
X0248800Y0121800D01*
D15*
X0237017Y0344792D03*
X0209517Y0344792D03*
X0182017Y0344792D03*
X0154517Y0344792D03*
X0127017Y0344792D03*
X0098267Y0344792D03*
X0070767Y0344792D03*
X0043267Y0344792D03*
X0264517Y0344792D03*
X0292017Y0344792D03*
X0319517Y0344792D03*
X0350267Y0344792D03*
D16*
X0039300Y0177550D02*
X0039300Y0176550D01*
X0029300Y0176550D01*
X0029300Y0177550D01*
X0029300Y0154550D02*
X0029300Y0153550D01*
X0029300Y0154550D02*
X0038800Y0154550D01*
X0038800Y0153550D01*
D17*
X0385550Y0267300D03*
X0385550Y0288800D03*
D18*
X0363550Y0149300D03*
X0340050Y0149300D03*
D19*
X0336800Y0142050D03*
X0366800Y0142050D03*
D20*
X0041800Y0138550D03*
X0041800Y0115050D03*
D21*
X0034550Y0111800D03*
X0034550Y0141800D03*
D22*
X0129300Y0429300D02*
X0129300Y0451800D01*
X0139300Y0451800D02*
X0139300Y0429300D01*
X0149300Y0429300D02*
X0149300Y0451800D01*
X0159300Y0451800D02*
X0159300Y0429300D01*
X0169300Y0429300D02*
X0169300Y0451800D01*
X0179300Y0451800D02*
X0179300Y0429300D01*
X0189300Y0429300D02*
X0189300Y0451800D01*
X0199300Y0451800D02*
X0199300Y0429300D01*
X0209300Y0429300D02*
X0209300Y0451800D01*
X0219300Y0451800D02*
X0219300Y0429300D01*
X0229300Y0429300D02*
X0229300Y0451800D01*
X0239300Y0451800D02*
X0239300Y0429300D01*
X0249300Y0429300D02*
X0249300Y0451800D01*
X0259300Y0451800D02*
X0259300Y0429300D01*
D23*
X0259300Y0427800D03*
X0249300Y0427800D03*
X0239300Y0427800D03*
X0229300Y0427800D03*
X0219300Y0427800D03*
X0209300Y0427800D03*
X0199300Y0427800D03*
X0189300Y0427800D03*
X0179300Y0427800D03*
X0169300Y0427800D03*
X0159300Y0427800D03*
X0149300Y0427800D03*
X0139300Y0427800D03*
X0129300Y0427800D03*
D24*
X0129300Y0414800D03*
X0139300Y0414800D03*
X0149300Y0414800D03*
X0159300Y0414800D03*
X0169300Y0414800D03*
X0179300Y0414800D03*
X0189300Y0414800D03*
X0199300Y0414800D03*
X0209300Y0414800D03*
X0219300Y0414800D03*
X0229300Y0414800D03*
X0239300Y0414800D03*
X0249300Y0414800D03*
X0259300Y0414800D03*
M02*
